<svg xmlns="http://www.w3.org/2000/svg" width="1302" height="356" viewBox="0 0 1302 356">
  <g fill="none" fill-rule="evenodd">
    <path fill="#0AC5FF" fill-rule="nonzero" d="M16.8223168,277.5 C27.9323168,244.77 58.8823168,241 87.4423168,241 C137.442317,241 144.782317,257.27 140.442317,277.11 L129.332317,329.88 C127.332317,339.2 125.572317,351.31 115.572317,351.31 L92.5723168,351.31 C92.5723168,351.31 93.9823168,343.43 94.5723168,339.66 C80.0923168,351.57 56.5723168,355.27 40.8423168,355.27 C13.0723168,355.27 -4.38768317,345.55 0.962316827,320.75 C6.30231683,294.94 30.3123168,289.41 51.9823168,288.02 L89.6823168,285.44 C100.392317,284.65 104.362317,282.86 106.142317,274.33 C108.142317,265.8 101.782317,261.63 81.5423168,261.63 C66.6623168,261.63 58.7323168,262.82 50.5923168,277.5 L16.8223168,277.5 Z M101.932317,299.5 C94.7923168,302.68 87.4423168,303.5 80.5023168,304.07 L59.8723168,305.85 C47.3723168,306.85 40.4223168,310.22 38.4423168,319.74 C36.4623168,329.26 44.1923168,334.62 57.2923168,334.62 C74.9523168,334.62 96.3723168,326.09 100.142317,308.23 L101.932317,299.5 Z"/>
    <path fill="#F56400" fill-rule="nonzero" d="M1176.82232 277.5C1187.93232 244.77 1218.88232 241 1247.44232 241 1297.44232 241 1304.78232 257.27 1300.44232 277.11L1289.33232 329.88C1287.33232 339.2 1285.57232 351.31 1275.57232 351.31L1252.57232 351.31C1252.57232 351.31 1253.98232 343.43 1254.57232 339.66 1240.09232 351.57 1216.57232 355.27 1200.84232 355.27 1173.07232 355.27 1155.61232 345.55 1160.96232 320.75 1166.32232 294.96 1190.33232 289.41 1211.96232 288.02L1249.66232 285.44C1260.37232 284.65 1264.34232 282.86 1266.12232 274.33 1268.12232 265.8 1261.76232 261.63 1241.52232 261.63 1226.64232 261.63 1218.71232 262.82 1210.52232 277.5L1176.82232 277.5zM1261.93232 299.5C1254.79232 302.68 1247.44232 303.5 1240.50232 304.07L1219.87232 305.85C1207.37232 306.85 1200.42232 310.22 1198.44232 319.74 1196.46232 329.26 1204.19232 334.62 1217.29232 334.62 1234.95232 334.62 1256.37232 326.09 1260.14232 308.23L1261.93232 299.5zM684.822317 277.5C695.932317 244.77 726.882317 241 755.442317 241 805.442317 241 812.782317 257.27 808.442317 277.11L797.332317 329.88C795.332317 339.2 793.572317 351.31 783.572317 351.31L760.572317 351.31C760.572317 351.31 761.982317 343.43 762.572317 339.66 748.092317 351.57 724.522317 355.27 708.842317 355.27 681.072317 355.27 663.612317 345.55 668.962317 320.75 674.322317 294.96 698.332317 289.41 719.962317 288.02L757.662317 285.44C768.372317 284.65 772.342317 282.86 774.122317 274.33 776.122317 265.8 769.762317 261.63 749.522317 261.63 734.642317 261.63 726.712317 262.82 718.522317 277.5L684.822317 277.5zM769.932317 299.5C762.792317 302.68 755.442317 303.5 748.502317 304.07L727.872317 305.85C715.372317 306.85 708.422317 310.22 706.442317 319.74 704.462317 329.26 712.192317 334.62 725.292317 334.62 742.952317 334.62 764.372317 326.09 768.142317 308.23L769.932317 299.5z"/>
    <path fill="#0AC5FF" fill-rule="nonzero" d="M243.896424 284.25C242.696424 270.16 232.976424 265.6 218.896424 265.6 197.266424 265.6 182.186424 277.3 177.826424 298.14 173.466424 318.98 183.376424 330.67 205.006424 330.67 220.476424 330.67 234.006424 322.34 238.536424 309.05L274.646424 309.05C260.396424 346.74 231.626424 355.27 196.896424 355.27 156.816424 355.27 133.206424 338.21 141.736424 298.14 150.266424 258.07 182.016424 241 224.076424 241 251.076424 241 280.816424 249.13 280.016424 284.25L243.896424 284.25zM302.18501 212L337.10501 212 330.16501 244.91 359.33501 244.91 356.95501 256.12C355.451964 263.232368 349.174462 268.321107 341.90501 268.32L325.20501 268.32 314.68501 317.91C312.90501 326.24 314.88501 329.02 324.01501 329.02 330.16501 329.02 335.51501 328.62 341.27501 328.22L336.27501 351.63C329.52501 352.43 316.03501 353.63 308.27501 353.63 275.14501 353.63 274.74501 341.33 278.71501 322.08L302.18501 212z"/>
    <polygon fill="#0AC5FF" fill-rule="nonzero" points="365.62 245 400.53 245 377.92 351.34 343 351.34"/>
    <path fill="#0AC5FF" fill-rule="nonzero" d="M478.001767 241C520.061767 241 544.661767 258.06 536.131767 298.14 527.601767 338.22 495.861767 355.27 453.811767 355.27 411.761767 355.27 387.151767 338.21 395.681767 298.14 404.211767 258.07 435.941767 241 478.001767 241zM459.001767 330.67C480.621767 330.67 495.701767 318.97 500.071767 298.14 504.441767 277.31 494.511767 265.6 472.881767 265.6 451.251767 265.6 436.181767 277.3 431.821767 298.14 427.461767 318.98 437.331767 330.67 458.961767 330.67L459.001767 330.67zM632.18 290.83C635.18 276.15 629.01 269.01 613.33 269.01 597.07 269.01 581.59 277.14 576.83 299.76L565.92 351.15 531 351.15 553.62 244.78 587.34 244.78 583.97 260.25 584.37 260.25C592.7 251.32 611.37 242 631.78 242 649.84 242 675.78 248.94 669.28 280.29L654.2 351.12 619.29 351.12 632.18 290.83z"/>
    <path fill="#F56400" fill-rule="nonzero" d="M831.20163 268.7L824.07163 268.7C820.430621 268.697445 816.984992 267.052773 814.693238 264.223495 812.401484 261.394217 811.508109 257.682184 812.26163 254.12L814.13163 245.29 836.13163 245.29 837.32163 239.93C843.32163 211.36 853.19163 206 885.72163 206 890.49163 206 899.22163 206.2 907.72163 206.4L904.97163 219.26C903.856301 224.412546 899.242156 228.049331 893.97163 227.93 891.21163 227.86 888.44163 227.82 885.59163 227.82 879.44163 227.82 874.67163 228.82 872.49163 238.73L871.07163 245.26 893.07163 245.26 890.13163 259.1C888.954589 264.678016 884.03248 268.66993 878.33163 268.67L866.13163 268.67 848.48163 351.6 813.59163 351.6 831.20163 268.7zM899.62 244.788584L933.34 244.788584 928.98 265.618584 927.38 265.618584C943.44 249.348584 954.95 242.008584 974.79 242.008584 978.979081 241.940701 983.16499 242.275574 987.29 243.008584L980.35 275.788584C974.340721 273.814563 968.073477 272.736327 961.75 272.588584 937.94 272.588584 926.05 284.688584 921.69 305.328584L911.97 351.158584 877 351.158584 899.62 244.788584z"/>
    <polygon fill="#F56400" fill-rule="nonzero" points="994.62 245 1029.54 245 1006.92 351.34 972 351.34"/>
    <path fill="#F56400" fill-rule="nonzero" d="M1127.91645 284.25C1126.72645 270.16 1117.00645 265.6 1102.91645 265.6 1081.28645 265.6 1066.20645 277.3 1061.84645 298.14 1057.48645 318.98 1067.39645 330.67 1089.02645 330.67 1104.49645 330.67 1118.02645 322.34 1122.55645 309.05L1158.66645 309.05C1144.37645 346.74 1115.60645 355.27 1080.88645 355.27 1040.81645 355.27 1017.20645 338.21 1025.73645 298.14 1034.26645 258.07 1066.00645 241 1108.06645 241 1135.06645 241 1164.81645 249.13 1164.06645 284.25L1127.91645 284.25zM552.868482 210.81C549.157606 210.798651 545.764694 208.712984 544.079056 205.407027 542.393419 202.10107 542.698154 198.130051 544.868482 195.12L632.578482 73.38C638.809455 64.7671156 648.788032 59.6588572 659.418482 59.64L672.988482 59.64 569.988482 202.64C566.278328 207.781804 560.329077 210.834514 553.988482 210.85L552.868482 210.81zM596.928482 210.81C603.269077 210.794514 609.218328 207.741804 612.928482 202.6L690.678482 94.76 690.678482 196.76C690.678482 209.76 700.758482 211.76 703.898482 210.76 851.758482 166.72 835.758482 0 676.248482 0 556.758482 0 453.758482 120.72 525.928482 204L629.988482 59.64 627.418482 59.64C616.788032 59.6588572 606.809455 64.7671156 600.578482 73.38L522.328482 182C483.758482 118.72 556.758482 16.56 660.188482 16.56 775.768482 16.56 802.768482 112.72 717.358482 164.56L717.358482 59.56 702.418482 59.56C691.788032 59.5788572 681.809455 64.6871156 675.578482 73.3L587.838482 195.12C585.668154 198.130051 585.363419 202.10107 587.049056 205.407027 588.734694 208.712984 592.127606 210.798651 595.838482 210.81L596.928482 210.81z"/>
  </g>
</svg>
