<?xml version="1.0" encoding="utf-8"?>
<!-- Generator: Adobe Illustrator 22.1.0, SVG Export Plug-In . SVG Version: 6.00 Build 0)  -->
<svg version="1.1" id="Layer_1" xmlns="http://www.w3.org/2000/svg" xmlns:xlink="http://www.w3.org/1999/xlink" x="0px" y="0px"
	 viewBox="0 0 120 120" style="enable-background:new 0 0 120 120;" xml:space="preserve">
<style type="text/css">
	.st0{fill:#DAF6FF;}
	.st1{fill:#FFFFFF;}
	.st2{fill:#E9FAFF;}
	.st3{fill:#9CE8FF;}
	.st4{fill:#86E2FF;}
	.st5{fill:#CEF3FF;}
	.st6{fill:#B1EDFF;}
	.st7{fill:#E8F9FF;}
	.st8{fill:#B4EDFF;}
	.st9{fill:#0AC5FF;}
	.st10{fill:#686868;}
	.st11{fill:#F56400;}
	.st12{fill:#F1FCFF;}
	.st13{fill:#E3F8FF;}
	.st14{fill:#FBC59F;}
</style>
<g>
	<path class="st0" d="M65.4,108.7H54.6c1.8,0.2,3.6,0.3,5.4,0.3C61.8,109,63.6,108.9,65.4,108.7 M91.9,97.2h-0.7l0.2,0.4
		C91.6,97.5,91.7,97.3,91.9,97.2 M86,70.2l-9.7,0.2l4.8,8.6L86,70.2 M108,69.7L92.7,70l8.8,16C104.6,81.1,106.9,75.6,108,69.7
		 M38,69h-4.7l2.4,4.3L38,69 M11.8,69c0.8,4.2,2.1,8.3,3.9,12l6.6-12L11.8,69C11.8,69,11.8,69,11.8,69 M107.5,48H63.9l2.8,5.1
		c0.4,0,0.7-0.1,1.1-0.1c0.1,0,0.2,0,0.3,0c5.3,0,9.9,3.4,11.4,8.1c1.5-1.1,3.4-1.7,5.4-1.7c0.1,0,0.1,0,0.2,0
		c4.3,0,7.9,2.6,9.2,6.3c1.2-3.1,4.2-5.3,7.8-5.4c0.1,0,0.1,0,0.2,0c2.6,0,4.9,1.1,6.5,2.9c0.1-1.1,0.1-2.1,0.1-3.2
		C109,55.9,108.5,51.8,107.5,48 M60,11c-24.8,0-45.3,18.4-48.6,42.3c2.3-3.2,6.1-5.3,10.4-5.3c2.7,0,5.1,0.8,7.2,2.2l0.2,0.1
		c0.1,0.1,0.3,0.2,0.4,0.3c1.4,1.1,2.6,2.5,3.5,4.2l0,0c2-1.7,4.5-2.8,7.4-2.8c2.1,0,4.1,0.6,5.8,1.6l3.1-5.7H46c0.7-1.2,2-2,3.4-2
		l0.1,0c0.3-1.7,1.5-3,3.1-3.5l4.1-7.5l0.7,1.3c2-3.2,5.6-5.3,9.7-5.3c5.2,0,9.6,3.4,11,8.1c1.5-1,3.3-1.6,5.2-1.6
		c4.1,0,7.7,2.7,8.9,6.3c1.2-3,4.1-5,7.6-5c2,0,3.8,0.7,5.2,1.9C97.6,23.2,80.2,11,60,11"/>
	<path class="st1" d="M105,40.7c1,2.3,1.8,4.8,2.5,7.3h0.4c0.1-0.4,0.1-0.7,0.1-1.1C108,44.4,106.9,42.2,105,40.7"/>
	<path class="st2" d="M52.6,42.5C51,43,49.8,44.4,49.5,46l-0.1,0c-1.5,0-2.8,0.8-3.4,2h3.6L52.6,42.5 M67.2,31
		c-4.1,0-7.7,2.1-9.7,5.3L63.9,48h43.6c-0.6-2.5-1.5-5-2.5-7.3c-1.4-1.2-3.2-1.9-5.2-1.9c-3.4,0-6.4,2.1-7.6,5
		c-1.2-3.7-4.7-6.3-8.9-6.3c-1.9,0-3.7,0.6-5.2,1.6C76.8,34.4,72.4,31,67.2,31"/>
	<path class="st3" d="M15.7,81L7,96.9h15.5l1.8-3.3C20.9,89.9,17.9,85.7,15.7,81"/>
	<path class="st4" d="M33.2,69h-1.3h-9.7l-6.6,12c2.2,4.7,5.1,8.9,8.6,12.6l11.2-20.3L33.2,69"/>
	<path class="st5" d="M101.6,86c-2.6,4.2-5.9,8-9.7,11.2h15.9L101.6,86"/>
	<path class="st6" d="M92.7,70L86,70.2L81.1,79l10.1,18.2h0.7c3.8-3.2,7-7,9.7-11.2L92.7,70"/>
	<path class="st1" d="M11.4,53.3C9.9,55.5,9,58.1,9,60.9c0,3,1.1,5.8,2.8,8.1c-0.5-2.9-0.8-5.9-0.8-9C11,57.7,11.2,55.5,11.4,53.3"
		/>
	<path class="st7" d="M21.9,48c-4.3,0-8.1,2.1-10.4,5.3C11.2,55.5,11,57.7,11,60c0,3.1,0.3,6.1,0.8,9c0,0,0,0,0,0h10.4l5.5-10
		l5.5,10H38l8.5-15.3c-1.7-1-3.7-1.6-5.8-1.6c-2.8,0-5.4,1.1-7.4,2.8l0,0c-0.9-1.6-2.1-3-3.5-4.2c-0.1-0.1-0.3-0.2-0.4-0.3l-0.2-0.1
		C27,48.8,24.6,48,21.9,48"/>
	<polyline class="st8" points="27.8,59 22.3,69 31.9,69 33.2,69 27.8,59 	"/>
	<path class="st9" d="M56.1,10.9v17c11.9-5.2,12,5.2,24.6,0v-17C68.1,16,68,5.7,56.1,10.9"/>
	<polygon class="st10" points="56.1,9.5 55.3,9.5 55.3,8 58.4,8 58.4,9.5 57.6,9.5 57.6,38.5 56.1,38.5 	"/>
	<polyline class="st11" points="56.8,35 16,108.7 97.5,108.7 56.8,35 	"/>
	<path class="st1" d="M71.4,15.2c-1.1-0.2-2.1,0.4-2.5,1.4l-0.1,0c-0.1-1.1-0.8-2-1.9-2.2c-1.3-0.2-2.5,0.6-2.7,1.9
		c-0.5,2.9,3.4,7.4,3.4,7.4s5.2-2.9,5.7-5.8C73.6,16.6,72.7,15.4,71.4,15.2"/>
	<path class="st1" d="M108.9,63.2c-0.1,2.2-0.4,4.4-0.9,6.5l2.9-0.1c0-0.4,0.1-0.8,0.1-1.2C111,66.5,110.2,64.6,108.9,63.2"/>
	<path class="st12" d="M68.1,53c-0.1,0-0.2,0-0.3,0c-0.4,0-0.7,0-1.1,0.1l9.6,17.3l9.7-0.2l3.4-6.2l3.3,6l15.3-0.3
		c0.4-2.1,0.7-4.3,0.9-6.5c-1.6-1.7-3.9-2.9-6.5-2.9c-0.1,0-0.1,0-0.2,0c-3.6,0.1-6.6,2.3-7.8,5.4c-1.3-3.7-5-6.3-9.2-6.3
		c-0.1,0-0.1,0-0.2,0c-2,0-3.9,0.7-5.4,1.7C78,56.4,73.4,53,68.1,53"/>
	<polyline class="st13" points="89.4,64 86,70.2 92.7,70 89.4,64 	"/>
	<path class="st14" d="M66.7,53.1c-6.1,0.7-10.8,5.7-10.7,11.8c0,0.1,0,0.2,0,0.3c-0.5-0.2-1-0.3-1.6-0.3c0,0-0.1,0-0.1,0
		c-2.4,0.1-4.4,1.8-4.8,4l-0.1,0c-1.5,0-2.9,0.9-3.5,2.1l30.3-0.6L66.7,53.1"/>
</g>
</svg>
