<?xml version="1.0" encoding="utf-8"?>
<!-- Generator: Adobe Illustrator 22.1.0, SVG Export Plug-In . SVG Version: 6.00 Build 0)  -->
<svg version="1.1" id="Layer_1" xmlns="http://www.w3.org/2000/svg" xmlns:xlink="http://www.w3.org/1999/xlink" x="0px" y="0px"
	 viewBox="0 0 120 120" style="enable-background:new 0 0 120 120;" xml:space="preserve">
<style type="text/css">
	.st0{fill:#D9F6FF;}
	.st1{filter:url(#Adobe_OpacityMaskFilter);}
	.st2{fill:#FFFFFF;}
	.st3{mask:url(#support-b_1_);fill:#FFD19B;}
	.st4{filter:url(#Adobe_OpacityMaskFilter_1_);}
	.st5{mask:url(#support-b_2_);fill:#F8B37E;}
	.st6{filter:url(#Adobe_OpacityMaskFilter_2_);}
	.st7{mask:url(#support-b_3_);fill:#0AC5FF;}
	.st8{filter:url(#Adobe_OpacityMaskFilter_3_);}
	.st9{mask:url(#support-b_4_);fill:#E4E5E5;}
	.st10{filter:url(#Adobe_OpacityMaskFilter_4_);}
	.st11{opacity:0.671;mask:url(#support-b_5_);fill:#FFFFFF;enable-background:new    ;}
	.st12{fill:#FFD29B;}
	.st13{filter:url(#Adobe_OpacityMaskFilter_5_);}
	.st14{mask:url(#support-b_9_);fill:#FFECC4;}
	.st15{filter:url(#Adobe_OpacityMaskFilter_6_);}
	.st16{mask:url(#support-b_10_);fill:#FFD29B;}
	.st17{filter:url(#Adobe_OpacityMaskFilter_7_);}
	.st18{mask:url(#support-b_11_);fill:#FFECC4;}
	.st19{filter:url(#Adobe_OpacityMaskFilter_8_);}
	.st20{mask:url(#support-b_12_);fill:#E4E5E5;}
	.st21{filter:url(#Adobe_OpacityMaskFilter_9_);}
	.st22{mask:url(#support-b_13_);fill:#F56400;}
	.st23{filter:url(#Adobe_OpacityMaskFilter_10_);}
	.st24{mask:url(#support-b_14_);fill:#0AC5FF;}
	.st25{fill:#F56400;}
	.st26{filter:url(#Adobe_OpacityMaskFilter_11_);}
	.st27{mask:url(#support-b_7_);fill:#FFECC4;}
</style>
<g>
	<path class="st0" d="M60,11c-27.1,0-49,21.9-49,49c0,27.1,21.9,49,49,49c27.1,0,49-21.9,49-49C109,32.9,87.1,11,60,11"/>
</g>
<defs>
	<filter id="Adobe_OpacityMaskFilter" filterUnits="userSpaceOnUse" x="69.8" y="42.3" width="18.7" height="11.9">
		<feColorMatrix  type="matrix" values="1 0 0 0 0  0 1 0 0 0  0 0 1 0 0  0 0 0 1 0"/>
	</filter>
</defs>
<mask maskUnits="userSpaceOnUse" x="69.8" y="42.3" width="18.7" height="11.9" id="support-b_1_">
	<g class="st1">
		<path id="support-a_1_" class="st2" d="M113,60c0,29.3-23.7,53-53,53C30.7,113,7,89.3,7,60S30.7,7,60,7C89.3,7,113,30.7,113,60"/>
	</g>
</mask>
<path class="st3" d="M69.8,48.8c0.2-0.2,9.3-4.2,13.9-6.3c1.4-0.6,3.1-0.1,3.9,1.3l0.5,0.9c0.9,1.5,0.3,3.5-1.3,4.3l-10.2,5.2
	L69.8,48.8z"/>
<defs>
	<filter id="Adobe_OpacityMaskFilter_1_" filterUnits="userSpaceOnUse" x="36.7" y="52.6" width="43.4" height="32.1">
		<feColorMatrix  type="matrix" values="1 0 0 0 0  0 1 0 0 0  0 0 1 0 0  0 0 0 1 0"/>
	</filter>
</defs>
<mask maskUnits="userSpaceOnUse" x="36.7" y="52.6" width="43.4" height="32.1" id="support-b_2_">
	<g class="st4">
		<path id="support-a_2_" class="st2" d="M113,60c0,29.3-23.7,53-53,53C30.7,113,7,89.3,7,60S30.7,7,60,7C89.3,7,113,30.7,113,60"/>
	</g>
</mask>
<path class="st5" d="M80.2,74.9L72.7,84l-11.9,0.6l-16-0.4l-5.5-6.7c0,0-2.6-14.8-2.5-14.8c0.2,0,8.1-10.2,8.1-10.2l24.3,18.5
	L80.2,74.9z"/>
<defs>
	<filter id="Adobe_OpacityMaskFilter_2_" filterUnits="userSpaceOnUse" x="39.8" y="11.5" width="49" height="71.1">
		<feColorMatrix  type="matrix" values="1 0 0 0 0  0 1 0 0 0  0 0 1 0 0  0 0 0 1 0"/>
	</filter>
</defs>
<mask maskUnits="userSpaceOnUse" x="39.8" y="11.5" width="49" height="71.1" id="support-b_3_">
	<g class="st6">
		<path id="support-a_3_" class="st2" d="M113,60c0,29.3-23.7,53-53,53C30.7,113,7,89.3,7,60S30.7,7,60,7C89.3,7,113,30.7,113,60"/>
	</g>
</mask>
<path class="st7" d="M59.9,11.6L85.7,18c2.2,0.5,3.5,2.7,2.9,4.9L74.6,80c-0.4,1.8-2.2,2.9-4,2.4l-30.8-7.6L55,14.6
	C55.6,12.4,57.8,11.1,59.9,11.6"/>
<defs>
	<filter id="Adobe_OpacityMaskFilter_3_" filterUnits="userSpaceOnUse" x="69.4" y="18.5" width="7.4" height="3.6">
		<feColorMatrix  type="matrix" values="1 0 0 0 0  0 1 0 0 0  0 0 1 0 0  0 0 0 1 0"/>
	</filter>
</defs>
<mask maskUnits="userSpaceOnUse" x="69.4" y="18.5" width="7.4" height="3.6" id="support-b_4_">
	<g class="st8">
		<path id="support-a_4_" class="st2" d="M113,60c0,29.3-23.7,53-53,53C30.7,113,7,89.3,7,60S30.7,7,60,7C89.3,7,113,30.7,113,60"/>
	</g>
</mask>
<path class="st9" d="M75.4,22.1l-5.1-1.3c-0.6-0.2-1-0.8-0.8-1.4c0.2-0.6,0.8-1,1.4-0.8l5.1,1.3c0.6,0.2,1,0.8,0.8,1.4
	C76.7,21.9,76,22.3,75.4,22.1"/>
<defs>
	<filter id="Adobe_OpacityMaskFilter_4_" filterUnits="userSpaceOnUse" x="44.7" y="21" width="40.6" height="52.1">
		<feColorMatrix  type="matrix" values="1 0 0 0 0  0 1 0 0 0  0 0 1 0 0  0 0 0 1 0"/>
	</filter>
</defs>
<mask maskUnits="userSpaceOnUse" x="44.7" y="21" width="40.6" height="52.1" id="support-b_5_">
	<g class="st10">
		<path id="support-a_5_" class="st2" d="M113,60c0,29.3-23.7,53-53,53C30.7,113,7,89.3,7,60S30.7,7,60,7C89.3,7,113,30.7,113,60"/>
	</g>
</mask>
<polygon class="st11" points="55.6,21 85.3,28.4 74.6,73.1 44.7,65.9 "/>
<g>
	<path class="st12" d="M78.6,69.6l-3.9-0.1c-1.5,0-2.6,1.1-2.6,2.4v1.4c0,1.3,1.2,2.4,2.6,2.4l3.9,0.1c1.5,0,2.6-1.1,2.6-2.4v-1.4
		C81.2,70.6,80,69.6,78.6,69.6z"/>
	<path class="st12" d="M81.3,55.7H78c-1.5,0-2.7,1.2-2.7,2.7v1.6c0,1.3,0.9,2.4,2.1,2.6h-1.7c-1.6,0-2.9,1.3-2.9,2.9v1.1
		c0,1.6,1.3,2.9,2.9,2.9h4.5c1.6,0,2.9-1.3,2.9-2.9v-1.1c0-1.4-1-2.6-2.4-2.9h0.5c1.5,0,2.7-1.2,2.7-2.7v-1.6
		C84,56.9,82.8,55.7,81.3,55.7z"/>
</g>
<defs>
	<filter id="Adobe_OpacityMaskFilter_5_" filterUnits="userSpaceOnUse" x="73.5" y="63.7" width="5.2" height="10.9">
		<feColorMatrix  type="matrix" values="1 0 0 0 0  0 1 0 0 0  0 0 1 0 0  0 0 0 1 0"/>
	</filter>
</defs>
<mask maskUnits="userSpaceOnUse" x="73.5" y="63.7" width="5.2" height="10.9" id="support-b_9_">
	<g class="st13">
		<path id="support-a_9_" class="st2" d="M113,60c0,29.3-23.7,53-53,53C30.7,113,7,89.3,7,60S30.7,7,60,7C89.3,7,113,30.7,113,60"/>
	</g>
</mask>
<path class="st14" d="M75.3,68.4h0.9c1.4,0,2.5-0.9,2.5-2.1v-0.5c0-1.2-1.1-2.1-2.5-2.1h-0.9c0,0-1.2,0.4-1.2,2.2
	C74.2,67.6,75.3,68.4,75.3,68.4 M74.4,74.6h0.7c1.1,0,1.9-0.8,1.9-1.7v-0.5c0-1-0.9-1.7-1.9-1.7h-0.7c0,0-0.9,0.3-0.9,1.8
	C73.5,73.9,74.4,74.6,74.4,74.6"/>
<defs>
	<filter id="Adobe_OpacityMaskFilter_6_" filterUnits="userSpaceOnUse" x="31.4" y="48.8" width="41.7" height="48.3">
		<feColorMatrix  type="matrix" values="1 0 0 0 0  0 1 0 0 0  0 0 1 0 0  0 0 0 1 0"/>
	</filter>
</defs>
<mask maskUnits="userSpaceOnUse" x="31.4" y="48.8" width="41.7" height="48.3" id="support-b_10_">
	<g class="st15">
		<path id="support-a_10_" class="st2" d="M113,60c0,29.3-23.7,53-53,53C30.7,113,7,89.3,7,60S30.7,7,60,7C89.3,7,113,30.7,113,60"
			/>
	</g>
</mask>
<path class="st16" d="M31.4,83.1l1.4-1.8L31.5,60l15.1-11.1c0,0,6.4,6.4-6.2,16.6c0,0,5.9,6.3,6.1,16c0,0,3.1-1.8,7-0.7
	c3.8,1.1,10.1,2.1,12.2,0.4c2.1-1.7,8.6-1.8,7.3,2.6c0,0-9.1,13.2-19.8,13.5C42.5,97.5,31.4,83.1,31.4,83.1"/>
<defs>
	<filter id="Adobe_OpacityMaskFilter_7_" filterUnits="userSpaceOnUse" x="40.5" y="49.2" width="6" height="5.3">
		<feColorMatrix  type="matrix" values="1 0 0 0 0  0 1 0 0 0  0 0 1 0 0  0 0 0 1 0"/>
	</filter>
</defs>
<mask maskUnits="userSpaceOnUse" x="40.5" y="49.2" width="6" height="5.3" id="support-b_11_">
	<g class="st17">
		<path id="support-a_11_" class="st2" d="M113,60c0,29.3-23.7,53-53,53C30.7,113,7,89.3,7,60S30.7,7,60,7C89.3,7,113,30.7,113,60"
			/>
	</g>
</mask>
<path class="st18" d="M46.4,49.2c0,0,1.1,2.1-2.4,4.8c-0.5,0.4-1.1,0.5-1.7,0.5c-0.6-0.1-1.3-0.3-1.8-0.9L46.4,49.2z"/>
<defs>
	<filter id="Adobe_OpacityMaskFilter_8_" filterUnits="userSpaceOnUse" x="66.2" y="17.5" width="2.3" height="2.3">
		<feColorMatrix  type="matrix" values="1 0 0 0 0  0 1 0 0 0  0 0 1 0 0  0 0 0 1 0"/>
	</filter>
</defs>
<mask maskUnits="userSpaceOnUse" x="66.2" y="17.5" width="2.3" height="2.3" id="support-b_12_">
	<g class="st19">
		<path id="support-a_12_" class="st2" d="M113,60c0,29.3-23.7,53-53,53C30.7,113,7,89.3,7,60S30.7,7,60,7C89.3,7,113,30.7,113,60"
			/>
	</g>
</mask>
<path class="st20" d="M68.5,18.7c0,0.6-0.5,1.1-1.1,1.1c-0.6,0-1.1-0.5-1.1-1.1s0.5-1.1,1.1-1.1C67.9,17.5,68.5,18,68.5,18.7"/>
<defs>
	<filter id="Adobe_OpacityMaskFilter_9_" filterUnits="userSpaceOnUse" x="53.2" y="32.1" width="26" height="30.5">
		<feColorMatrix  type="matrix" values="1 0 0 0 0  0 1 0 0 0  0 0 1 0 0  0 0 0 1 0"/>
	</filter>
</defs>
<mask maskUnits="userSpaceOnUse" x="53.2" y="32.1" width="26" height="30.5" id="support-b_13_">
	<g class="st21">
		<path id="support-a_13_" class="st2" d="M113,60c0,29.3-23.7,53-53,53C30.7,113,7,89.3,7,60S30.7,7,60,7C89.3,7,113,30.7,113,60"
			/>
	</g>
</mask>
<path class="st22" d="M79.1,46.1c-0.1-0.4-0.6-0.6-0.9-0.5c-2.2,0.9-3.2-1.5-3.7-3.6c-0.4-1.9,0.5-3.5-1.1-4.9
	c-0.7-0.6-2.8-1.7-4-1.5c-0.7,0.1-1.4,0-1.9-0.4c-0.2-0.1-0.3-0.3-0.4-0.4c-0.4-0.5-0.3-1.3-0.6-1.7c-0.9-1-1.8-1-3.3-1
	c-2.6,0-3.8-0.4-5.7,1.4c-0.8,0.7-1.2,1.1-2.2,1.8c-1.7,1.3-0.6,1.7-0.9,2.9c-0.3,1.2-1.2,1.6-1,2.8c0.1,0.7,1.8,2.8,2.4,3.2
	c1.6,1,3.6,0.2,5,1.3c1.8,1.4,0.7,0.7,0.9,2.9c0.1,1,0.8,1.8,0.6,2.9c-0.3,1.3-1.3,1.7-1.2,3.2c0.1,1.2,0.7,6.4,1.9,7.4
	c2.2,1.8,5-1,6.3-2.3c0.4-0.4,0.9-0.2,1.3-0.9c0.3-0.5-0.3-1.2-0.1-1.5c0.4-0.6,1.6-0.4,2.1-1.1c0.5-0.6,0.3-1.3,0.4-2
	c0.3-1.9,0-2.2,2-3.5C76.2,49.7,79.8,48.6,79.1,46.1"/>
<defs>
	<filter id="Adobe_OpacityMaskFilter_10_" filterUnits="userSpaceOnUse" x="28.9" y="82.1" width="26.7" height="20.5">
		<feColorMatrix  type="matrix" values="1 0 0 0 0  0 1 0 0 0  0 0 1 0 0  0 0 0 1 0"/>
	</filter>
</defs>
<mask maskUnits="userSpaceOnUse" x="28.9" y="82.1" width="26.7" height="20.5" id="support-b_14_">
	<g class="st23">
		<path id="support-a_14_" class="st2" d="M113,60c0,29.3-23.7,53-53,53C30.7,113,7,89.3,7,60S30.7,7,60,7C89.3,7,113,30.7,113,60"
			/>
	</g>
</mask>
<polygon class="st24" points="28.9,84.8 30.6,82.1 55.6,98.8 53.2,102.5 "/>
<path class="st25" d="M19.8,94.5c7.4,8.7,17.6,14.9,29.3,17.4l6.5-9.8L27.7,82.9L19.8,94.5z"/>
<defs>
	<filter id="Adobe_OpacityMaskFilter_11_" filterUnits="userSpaceOnUse" x="76.4" y="56.8" width="3.9" height="4.7">
		<feColorMatrix  type="matrix" values="1 0 0 0 0  0 1 0 0 0  0 0 1 0 0  0 0 0 1 0"/>
	</filter>
</defs>
<mask maskUnits="userSpaceOnUse" x="76.4" y="56.8" width="3.9" height="4.7" id="support-b_7_">
	<g class="st26">
		<path id="support-a_7_" class="st2" d="M113,60c0,29.3-23.7,53-53,53C30.7,113,7,89.3,7,60S30.7,7,60,7C89.3,7,113,30.7,113,60"/>
	</g>
</mask>
<path class="st27" d="M77.4,61.6h0.8c1.2,0,2.1-0.9,2.1-2.1v-0.5c0-1.2-0.9-2.1-2.1-2.1h-0.8c0,0-1,0.4-1,2.2S77.4,61.6,77.4,61.6"
	/>
</svg>
