<svg xmlns="http://www.w3.org/2000/svg" xmlns:xlink="http://www.w3.org/1999/xlink" width="120" height="120" viewBox="0 0 120 120">
    <defs>
        <path id="a" d="M31.69 15.106l-8.818-11.11C21.582 2.37 22.876.115 25.1.115h22.363c2.224 0 3.519 2.256 2.228 3.883l-9.446 11.9c5.838 7.265 15.997 20.213 23.03 30.865 10.396 15.748.764 31.727.534 31.727 0 0 10.474 3.166 5.122 9.032H2.366c-5.351-5.866 5.122-9.032 5.122-9.032-.229 0-9.861-15.979.536-31.727C15.32 35.711 25.98 22.189 31.69 15.106z"/>
    </defs>
    <g fill="none" fill-rule="evenodd">
        <path fill="#0AC5FF" d="M109 60c0 27.062-21.938 49-49 49S11 87.062 11 60s21.938-49 49-49 49 21.938 49 49" opacity=".148"/>
        <g transform="translate(21 21)">
            <mask id="b" fill="#fff">
                <use xlink:href="#a"/>
            </mask>
            <use fill="#F56400" xlink:href="#a"/>
            <path fill="#FFF" fill-opacity=".15" d="M-40-14h76V98h-76z" mask="url(#b)"/>
        </g>
        <path fill="#0AC5FF" d="M53.067 39.067H65.72A5.067 5.067 0 0 0 60.652 34H48a5.067 5.067 0 0 0 5.067 5.067z"/>
        <path fill="#FFF" d="M61.29 75.244c0-.967-.274-1.744-.798-2.322-.54-.579-1.447-1.11-2.722-1.593-1.276-.491-2.379-.975-3.31-1.458-.923-.484-1.72-1.03-2.386-1.656a6.59 6.59 0 0 1-1.549-2.204c-.367-.84-.555-1.846-.555-3.011 0-2.005.634-3.654 1.901-4.937 1.267-1.284 2.957-2.037 5.054-2.251V52h2.816v3.867c2.073.294 3.7 1.173 4.874 2.631 1.173 1.459 1.76 3.345 1.76 5.659H61.29c0-1.427-.297-2.496-.876-3.202-.58-.705-1.354-1.062-2.332-1.062-.962 0-1.705.278-2.237.832-.524.555-.79 1.316-.79 2.29 0 .904.258 1.633.774 2.172.517.547 1.479 1.11 2.88 1.68 1.4.57 2.557 1.11 3.457 1.617.907.5 1.666 1.07 2.292 1.712a6.72 6.72 0 0 1 1.424 2.171c.328.816.493 1.76.493 2.845 0 2.021-.626 3.662-1.87 4.922-1.244 1.26-2.957 2.005-5.132 2.235v3.542h-2.8v-3.527c-2.41-.261-4.272-1.133-5.594-2.599C49.657 78.319 49 76.369 49 73.928h5.085c0 1.411.336 2.497 1.001 3.258.657.753 1.612 1.133 2.856 1.133 1.032 0 1.854-.277 2.448-.832.603-.555.9-1.3.9-2.243"/>
        <path fill="#F19F70" d="M111.84 88.937c0 10.458-8.47 18.937-18.92 18.937-10.45 0-18.92-8.479-18.92-18.937C74 78.478 82.47 70 92.92 70c10.45 0 18.92 8.478 18.92 18.937"/>
        <path fill="#FFF" fill-opacity=".1" d="M74 88.937c0 10.458 8.47 18.937 18.92 18.937V70C82.47 70 74 78.478 74 88.937"/>
        <path fill="#FFF" d="M93.023 93.832l-4.199 4.202L80 89.202 84.199 85z"/>
        <path fill="#FFF" d="M89.199 98.904L85 94.702 100.688 79l4.199 4.202z"/>
    </g>
</svg>
