<?xml version="1.0" encoding="utf-8"?>
<!-- Generator: Adobe Illustrator 22.1.0, SVG Export Plug-In . SVG Version: 6.00 Build 0)  -->
<svg version="1.1" id="Layer_1" xmlns="http://www.w3.org/2000/svg" xmlns:xlink="http://www.w3.org/1999/xlink" x="0px" y="0px"
	 viewBox="0 0 120 100" style="enable-background:new 0 0 120 100;" xml:space="preserve">
<style type="text/css">
	.st0{fill:#E6F9FF;}
	.st1{fill:#DAF6FF;}
	.st2{fill:#C5F1FF;}
	.st3{fill:#BCEFFF;}
	.st4{fill:#A9EBFF;}
	.st5{fill:#74DFFF;}
	.st6{fill:#FFFFFF;}
	.st7{fill:#CEF3FF;}
	.st8{fill:#BAEFFF;}
	.st9{fill:#74DEFF;}
	.st10{fill:#BA3D1E;}
	.st11{fill:#F56400;}
	.st12{fill:#FFCFAD;}
	.st13{fill:#E9CAAD;}
	.st14{fill:#DCC7AD;}
	.st15{fill:#CCC3AC;}
	.st16{fill:#F97214;}
	.st17{fill:#ACBCAD;}
	.st18{fill:#BFE0EB;}
	.st19{fill:#B53E21;}
	.st20{fill:#FECFA5;}
	.st21{fill:#FBA25B;}
	.st22{fill:#FCA761;}
</style>
<g>
	<path class="st0" d="M12.6,63.3L12.6,63.3c0.9,3.5,2.2,6.8,3.9,10h85.6c0.4-0.8,0.8-1.6,1.2-2.4H54.3v2.4h-13v-2.4H15.4
		C14.3,68.4,13.4,65.9,12.6,63.3 M11.8,60.1c0.1,0.3,0.1,0.6,0.2,0.9l0,0C12,60.7,11.9,60.4,11.8,60.1
		C11.9,60.1,11.8,60.1,11.8,60.1 M107.6,45.6c-0.3,0.1-0.6,0.3-0.8,0.4c0.3,0,0.6,0.1,0.9,0.1C107.6,46,107.6,45.8,107.6,45.6
		 M13.8,33.8c-0.2,0.4-0.3,0.8-0.4,1.3l0,0C13.5,34.7,13.7,34.3,13.8,33.8 M64.5,27.1c0.6-3.5,2.9-6.4,6.2-7.8
		c1.2-0.4,2.2-0.6,3.3-0.6c3.8,0,6.7,2.8,8.1,5.4c0,0,2.8-2.4,6.6-2.4c1.2,0,2.6,0.3,3.9,1c5.5,2.8,5.2,7.6,5.2,7.6H59.2
		c-0.1-1.3,0.5-2.6,1.6-3.4c0.5-0.3,1-0.4,1.5-0.4C63.5,26.4,64.5,27.1,64.5,27.1 M59.4,2C39,2,21.7,14.5,14.4,32.2
		c6.3,0.9,12.6,2.2,18.8,3.8c2.1,0.6,4,1,5.6,1.2v0h17.8v1.6c0.8,0.3,1.7,0.7,2.7,1.1c1,0.5,2,0.9,2.9,1.3
		c16.1-3.6,29.6-6.6,33.1-7.3c2.6-0.5,4.6-0.7,6.1-0.7c1.4,0,2.5,0.2,3.2,0.4l0,0l0,0c-0.1,0.1-0.2,0.3-0.4,0.4
		c-0.5,0.4-1,0.8-1.6,1.1c-1.2,0.7-2.4,1.3-3.7,1.8c-0.4,0.1-0.6,0.5-0.7,0.9c-0.1,0.4,0.1,0.8,0.4,1.1c0.2,0.2,0.5,0.3,0.7,0.3
		c0.1,0,0.3,0,0.4-0.1c1.4-0.5,2.8-1.1,4.1-1.8c0.6-0.3,1.2-0.7,1.7-1.1C99.6,16.4,81.1,2,59.4,2"/>
	<path class="st1" d="M107.7,46.1c0.1,1.3,0.2,2.5,0.2,3.8l0,0c0,0.1,0,0.3,0,0.4c0,1.4-0.1,2.8-0.2,4.2c-0.5,5.8-2,11.3-4.3,16.3
		h0.1c3-6.4,4.5-13.4,4.5-20.4C108,49,107.9,47.6,107.7,46.1C107.7,46.1,107.7,46.1,107.7,46.1 M14.4,32.2c-0.2,0.5-0.4,1.1-0.6,1.6
		C14,33.3,14.2,32.7,14.4,32.2C14.4,32.2,14.4,32.2,14.4,32.2"/>
	<path class="st2" d="M22.5,60.9c-0.9,0.4-1.9,0.8-2.9,1l-7,1.5c0.7,2.6,1.6,5.1,2.8,7.5h25.8v-3.4l-2.9,0.5c0,0,0,0,0,0
		c0,0,0,0,0,0c0,0,0,0,0,0c-0.2,0-0.3-0.1-0.3-0.2c-0.1-0.2,0-0.3,0.1-0.4l1.4-1l1.8-1.3v-3.1c-2.4,0.4-4.8,0.6-7.1,0.6
		c-2.5,0-5-0.2-7.5-0.7L22.5,60.9 M11.9,60.1c0.1,0.3,0.1,0.6,0.2,0.8l1.1-0.8c-0.1,0-0.3,0-0.4,0C12.5,60.2,12.2,60.1,11.9,60.1
		 M107.7,54.6c-0.1,0.9-0.2,1.9-0.3,2.8c-2.7,0.5-5.4,0.8-8.1,0.8c-0.3,0-0.6,0-0.9,0c-3.2-0.1-6.3-0.3-9.4-0.3
		c-4.8,0-9.6,0.5-14.7,2.3c-3,1.1-6.4,1.5-9.8,1.5c-1.5,0-2.9-0.1-4.4-0.2l-2.9,2c-0.9,0.6-1.8,1.1-2.8,1.5v5.9h49.1
		C105.7,65.9,107.2,60.4,107.7,54.6 M106.8,46c-2.3,1-4.7,1.9-6.6,2.5c1.8,0.1,3.9,0.5,6.7,1.2l1,0.3c0-1.3-0.1-2.6-0.2-3.8
		C107.4,46.1,107.1,46,106.8,46 M56.7,38.9v1.5h-1.2L55.2,41c2.3,0,4.4,0.1,6.5,0.4c0.2,0,0.4-0.1,0.6-0.1c-0.9-0.4-1.9-0.8-2.9-1.3
		C58.4,39.5,57.5,39.2,56.7,38.9 M14.4,32.2c-0.2,0.5-0.4,1.1-0.6,1.6c-0.2,0.4-0.3,0.8-0.4,1.3l7.9,5.2c0.7-0.6,1.5-1,2.3-1.4
		c1.1-0.4,2.1-0.6,3-0.6c3.2,0,5.7,2.1,7.1,4.3c0.6,0,1.2-0.1,1.7-0.1c1.5-0.9,3.2-1.3,5-1.4l0.3,0.8l0,0l-0.6-1.5h-1.3v-3.1
		c-1.6-0.3-3.4-0.7-5.6-1.2C27.1,34.4,20.8,33.2,14.4,32.2"/>
	<path class="st1" d="M11.6,58.8c0.1,0.4,0.2,0.9,0.2,1.3c0,0,0,0,0,0C11.7,59.7,11.7,59.3,11.6,58.8L11.6,58.8 M10.9,50.7
		c0,0.7,0,1.4,0.1,2.1c0,0,0,0,0,0C10.9,52.1,10.9,51.4,10.9,50.7L10.9,50.7"/>
	<path class="st2" d="M11.6,58.8c0.1,0.4,0.2,0.9,0.2,1.3c0,0,0,0,0,0C11.8,59.7,11.7,59.3,11.6,58.8L11.6,58.8 M10.9,50.8
		c0,0.7,0,1.4,0.1,2.1c0,0,0,0,0,0C10.9,52.1,10.9,51.5,10.9,50.8L10.9,50.8"/>
	<path class="st3" d="M107.8,50c0,0.2,0,0.3,0,0.5c0,1.4-0.1,2.8-0.2,4.1c0.1-1.4,0.2-2.8,0.2-4.2C107.9,50.3,107.9,50.1,107.8,50
		L107.8,50"/>
	<path class="st4" d="M11.6,58.8c0.1,0.4,0.2,0.9,0.2,1.3c0.3,0,0.6,0,0.9,0c0.1,0,0.3,0,0.4,0l1.1-0.8L11.6,58.8 M10.9,50.8
		c0,0.7,0,1.3,0.1,2c0.3-0.1,0.5-0.1,0.8-0.2L10.9,50.8 M100.2,48.5c-2.2,0.7-3.8,1-3.8,1l-3.2,0.7l0.1,0.6c0.8,0,1.5,0.6,1.6,1.4
		c0.1,0.5,0,0.9-0.2,1.3c-0.2,0.4-0.6,0.7-1.1,0.8c-0.1,0-0.3,0-0.4,0c-0.8,0-1.5-0.6-1.7-1.4c-0.2-0.8,0.2-1.5,0.8-1.9l-0.1-0.6
		l-19.3,4.4l0.9,0.5c0.3-0.3,0.7-0.5,1.2-0.5c0.1,0,0.2,0,0.3,0c0.7,0.1,1.3,0.7,1.4,1.4c0.2,0.9-0.4,1.9-1.3,2.1
		c-0.1,0-0.3,0-0.4,0c-0.6,0-1.1-0.3-1.4-0.7c-0.3-0.4-0.4-0.9-0.3-1.4l-1.6-0.9c-0.1-0.1-0.2-0.1-0.3-0.1l-0.1,0l0.1,0.5
		c0.1,0,0.2,0,0.3,0c0.7,0.1,1.2,0.7,1.4,1.4c0.2,0.9-0.4,1.9-1.3,2.1c-0.1,0-0.2,0-0.4,0c-0.6,0-1.1-0.3-1.4-0.8
		c-0.4-0.6-0.4-1.3,0-1.9c0.1-0.2,0.3-0.4,0.6-0.5l-0.1-0.5l0,0c-0.1,0.1-0.2,0.2-0.2,0.2L69.3,57c0.2,0.2,0.3,0.5,0.4,0.8
		c0.2,0.9-0.4,1.9-1.3,2.1c-0.1,0-0.2,0-0.4,0c-0.8,0-1.5-0.6-1.7-1.4c-0.2-0.9,0.4-1.9,1.3-2.1c0.1,0,0.3,0,0.4,0
		c0.2,0,0.3,0,0.5,0.1l0.5-0.8l-0.9,0.2L60,61.5c1.5,0.1,2.9,0.2,4.4,0.2c3.5,0,6.9-0.4,9.8-1.5c5.1-1.9,9.9-2.3,14.7-2.3
		c3.1,0,6.3,0.2,9.4,0.3c0.3,0,0.6,0,0.9,0c2.7,0,5.5-0.3,8.1-0.8c0.1-0.9,0.2-1.9,0.3-2.8c0.1-1.4,0.2-2.7,0.2-4.1
		c0-0.2,0-0.3,0-0.5l-1-0.3C104.1,48.9,102,48.6,100.2,48.5 M35.4,42.5c-0.6,0.1-1.2,0.1-1.7,0.1c0.2,0.2,0.3,0.5,0.4,0.7
		C34.5,43,35,42.7,35.4,42.5 M40.7,41.9L40.7,41.9l0.5,1.5h0V46l0,0v-2.6h0L40.7,41.9 M55.2,41l-0.7,2c2.5-0.5,4.9-1.1,7.2-1.6
		C59.6,41.1,57.5,41,55.2,41"/>
	<path class="st5" d="M57,25.6v-1.3h-6V19c0.4-0.2,0.7-0.8,0.5-1.2c-0.1-0.5-0.6-0.8-1.1-0.8s-0.9,0.3-1.1,0.8
		c-0.1,0.5,0.1,1,0.5,1.2v0.4h-2.4v-4.1c0.3-0.2,0.6-0.5,0.6-0.9c0-0.4-0.2-0.8-0.6-1s-0.8-0.2-1.1,0c-0.3,0.2-0.6,0.6-0.6,1
		c0,0.4,0.2,0.8,0.6,0.9v9h-7.9v1.3h-2v2H59v-2L57,25.6z M47.6,20.6h2.3v3.7h-2.4L47.6,20.6z"/>
	<polygon class="st6" points="37.6,28.1 39.7,36.7 44.6,36.7 42.4,28.1 	"/>
	<polygon class="st6" points="43.2,28.1 45.4,36.7 50.2,36.7 52.3,28.1 	"/>
	<polygon class="st6" points="53.1,28.1 51,36.7 55.9,36.7 58,28.1 	"/>
	<path class="st6" d="M82,24.1c-1.8-3.4-5.8-6.9-11.3-4.8c-3.3,1.3-5.6,4.3-6.2,7.8c0,0-2-1.3-3.7-0.3c-1.1,0.8-1.6,2.1-1.6,3.4
		h38.6c0,0,0.3-4.8-5.2-7.6C87,19.8,82,24.1,82,24.1 M41.2,43.4l-0.8-2.3c-2.3,0-4.5,0.8-6.3,2.3c-1.6-3.1-5.4-6.4-10.6-4.5
		c-3.1,1.3-5.2,4-5.8,7.2c0,0-1.9-1.2-3.5-0.2c-1,0.7-1.5,1.9-1.5,3.1h28.4L41.2,43.4L41.2,43.4"/>
	<path class="st7" d="M102.2,73.3L102.2,73.3C94,88.6,77.9,99,59.4,99c-18.5,0-34.6-10.4-42.8-25.7h0C25,89.1,41.4,99,59.4,99
		c0,0,0,0,0,0C77.3,99,93.7,89.1,102.2,73.3"/>
	<path class="st8" d="M59,83.8c-11.3,0-20.4-1-20.4-2.2s9.2-2.2,20.4-2.2c11.3,0,20.4,1,20.4,2.2S70.3,83.8,59,83.8 M102.2,73.3
		H16.6C24.7,88.6,40.8,99,59.4,99C77.9,99,94,88.6,102.2,73.3"/>
	<polyline class="st5" points="41.2,43.4 41.3,43.4 41.3,73.3 54.3,73.3 54.3,43.4 54.3,43.4 55.4,40.4 56.7,40.4 56.7,37.2 
		38.9,37.2 38.9,40.4 40.1,40.4 41.2,43.4 	"/>
	<path class="st9" d="M59,79.4c-11.3,0-20.4,1-20.4,2.2s9.2,2.2,20.4,2.2c11.3,0,20.4-1,20.4-2.2S70.3,79.4,59,79.4"/>
	<path class="st10" d="M68.4,58.4l-0.8-0.5l1.8-2.8c0.2-0.3,0.5-0.6,0.9-0.8l-0.7-3l1-0.2l0.7,3c0.4,0,0.7,0.1,1.1,0.3l2.8,1.7
		l-0.5,0.9l-2.8-1.7c-0.1-0.1-0.2-0.1-0.3-0.1l0.4,2l-1,0.2l-0.4-2c-0.1,0.1-0.2,0.2-0.2,0.3L68.4,58.4 M92.7,52.5l-1.3-6l1-0.2
		l1.3,6L92.7,52.5"/>
	<path d="M69.7,57.8c-0.2-0.9-1.1-1.5-2.1-1.3c-0.9,0.2-1.5,1.1-1.3,2.1c0.2,0.9,1.1,1.5,2.1,1.3C69.3,59.7,69.9,58.7,69.7,57.8"/>
	<path class="st10" d="M68.8,58l0.1,0c-0.1-0.4-0.4-0.7-0.8-0.8l0,0l-0.2,0c-0.3,0-0.6,0.2-0.8,0.4C67,57.8,67,58,67,58.2
		c0,0.2,0.1,0.4,0.2,0.6l0,0c0.2,0.3,0.5,0.4,0.8,0.4l0.2,0l0-0.1l0,0.1c0.5-0.1,0.8-0.5,0.8-1l0-0.2L68.8,58l0.1,0L68.8,58l-0.1,0
		l0,0.1c0,0.3-0.2,0.6-0.6,0.7l0,0l0,0l-0.2,0c-0.2,0-0.5-0.1-0.6-0.3l0,0c-0.1-0.1-0.1-0.3-0.1-0.4c0-0.1,0-0.3,0.1-0.4
		c0.1-0.2,0.4-0.3,0.6-0.3l0.2,0l0,0c0.3,0.1,0.5,0.3,0.6,0.6l0,0l0,0L68.8,58"/>
	<path d="M73.2,57c-0.1-0.7-0.7-1.2-1.4-1.4c-0.7-0.1-1.4,0.2-1.8,0.8c-0.4,0.6-0.4,1.4,0,1.9c0.4,0.6,1.1,0.9,1.8,0.7
		C72.8,58.9,73.4,57.9,73.2,57"/>
	<path class="st10" d="M72.3,57.2l0.1,0c-0.1-0.4-0.4-0.7-0.8-0.8l0,0l-0.2,0c-0.3,0-0.6,0.2-0.8,0.4l0,0c-0.1,0.2-0.2,0.4-0.2,0.6
		c0,0.2,0.1,0.4,0.2,0.6l0,0c0.2,0.3,0.5,0.4,0.8,0.4l0.2,0l0-0.1l0,0.1c0.5-0.1,0.8-0.5,0.8-1l0-0.2L72.3,57.2l0.1,0L72.3,57.2
		l-0.1,0l0,0.1c0,0.3-0.2,0.7-0.6,0.7l0,0l0,0l-0.2,0c-0.2,0-0.5-0.1-0.6-0.3l0,0c-0.1-0.1-0.1-0.3-0.1-0.4c0-0.1,0-0.3,0.1-0.4l0,0
		c0.1-0.2,0.4-0.3,0.6-0.3l0.2,0l0,0c0.3,0.1,0.5,0.3,0.6,0.6l0,0l0,0L72.3,57.2z"/>
	<path d="M76.7,56.3c-0.2-0.7-0.7-1.2-1.4-1.4c-0.7-0.1-1.4,0.2-1.8,0.8c-0.4,0.6-0.4,1.4,0,1.9c0.4,0.6,1.1,0.9,1.8,0.7
		C76.3,58.1,76.9,57.2,76.7,56.3"/>
	<path class="st10" d="M75.8,56.4l0.1,0c-0.1-0.4-0.4-0.7-0.8-0.8l-0.2,0c-0.3,0-0.6,0.2-0.8,0.4l0,0C74,56.2,74,56.4,74,56.6
		c0,0.2,0.1,0.4,0.2,0.6l0,0c0.2,0.3,0.5,0.4,0.8,0.4l0.2,0l0,0c0.5-0.1,0.8-0.5,0.8-1l0-0.2L75.8,56.4l-0.1,0l0,0.1
		c0,0.3-0.2,0.7-0.6,0.7l0,0l-0.2,0c-0.2,0-0.5-0.1-0.6-0.3l0,0c-0.1-0.1-0.1-0.3-0.1-0.4c0-0.1,0-0.3,0.1-0.4l0,0
		c0.1-0.2,0.4-0.3,0.6-0.3l0.2,0c0.3,0.1,0.5,0.3,0.6,0.6L75.8,56.4z"/>
	<path d="M95,52.2c-0.2-0.9-1.1-1.5-2.1-1.3C92,51.1,91.4,52,91.6,53c0.2,0.9,1.1,1.5,2.1,1.3c0.5-0.1,0.8-0.4,1.1-0.8
		C95,53.1,95.1,52.7,95,52.2"/>
	<path class="st10" d="M94.1,52.4l0.1,0c-0.1-0.5-0.5-0.8-1-0.8l-0.2,0l0,0.1l0-0.1c-0.4,0.1-0.7,0.4-0.8,0.8l0,0l0,0.2
		c0,0.3,0.2,0.6,0.4,0.8c0.2,0.1,0.4,0.2,0.5,0.2c0.2,0,0.4-0.1,0.6-0.2c0.3-0.2,0.4-0.5,0.4-0.8l0-0.2L94.1,52.4l0.1,0L94.1,52.4
		l-0.1,0l0,0.2c0,0.2-0.1,0.5-0.3,0.6c-0.1,0.1-0.3,0.1-0.4,0.1c-0.1,0-0.3,0-0.4-0.1c-0.2-0.1-0.3-0.4-0.3-0.6l0-0.2l0,0
		c0.1-0.3,0.3-0.5,0.6-0.6l0,0l0,0l0.1,0c0.3,0,0.6,0.2,0.7,0.6l0,0v0L94.1,52.4z"/>
	<path class="st11" d="M33.9,48.6L12.4,34.5c-0.4-0.3-0.9-0.4-1.5-0.3l-4.7,0.6c-0.7,0.1-1.2,0.5-1.6,1.1c-0.3,0.6-0.3,1.3-0.1,1.9
		l7.2,15l1.5,5.4L33.9,48.6"/>
	<path class="st12" d="M5.1,38.7l5.8,12c0,0,0,0,0-0.1L5.1,38.7L5.1,38.7"/>
	<path class="st13" d="M10.9,50.7C10.9,50.7,10.9,50.7,10.9,50.7l0,0.1C10.9,50.7,10.9,50.7,10.9,50.7L10.9,50.7"/>
	<path class="st14" d="M10.9,50.7C10.9,50.7,10.9,50.7,10.9,50.7l0,0.1C10.9,50.8,10.9,50.8,10.9,50.7L10.9,50.7"/>
	<path class="st15" d="M10.9,50.7C10.9,50.8,10.9,50.8,10.9,50.7l0.9,1.9c0,0,0,0,0,0L10.9,50.7"/>
	<path class="st16" d="M5.1,38.7l5.7,11.9l0,0l0,0l0.9,1.9c3.8-0.9,8.2-1.8,12.9-2.9L5.1,38.7"/>
	<path class="st11" d="M114.7,37.8c-0.4-2.5-3.3-3.1-5.5-3.1c-0.6,0-1.2-0.1-1.8-0.2c-0.2,0.2-0.3,0.4-0.5,0.6
		c-0.3,0.3-0.6,0.6-0.9,0.9c-0.6,0.5-1.3,0.9-2,1.3c-1.3,0.7-2.7,1.3-4.1,1.8c-0.4,0.1-0.8,0.1-1.1-0.2c-0.3-0.3-0.5-0.7-0.4-1.1
		c0.1-0.4,0.3-0.7,0.7-0.9c1.3-0.5,2.5-1.1,3.7-1.8c0.6-0.3,1.1-0.7,1.6-1.1c0.2-0.1,0.3-0.3,0.4-0.4c-1.6-0.5-4.4-0.7-9.3,0.3
		c-7.7,1.6-67.2,15-89.9,20.1C4.6,54.2,4,55,4,55.9c0,0.9,0.7,1.6,1.5,1.8l21.1,4c5.3,1,10.7,0.9,16-0.2L63.3,57l33.2-7.5
		C96.5,49.5,115.8,45,114.7,37.8"/>
	<path class="st12" d="M112.2,35.2c0.6,0.2,1.2,0.5,1.6,0.9C113.4,35.7,112.9,35.3,112.2,35.2"/>
	<path class="st16" d="M112.2,35.2c-1.9,6.2-18.1,9.9-18.1,9.9l-16.3,3.7c0,0,0,0,0,0c0,0.2-0.1,0.4-0.3,0.6l-9.5,6.6l28.4-6.4
		c0,0,18.3-4.3,18.3-11.1c0-0.2,0-0.4,0-0.6l0,0c-0.1-0.6-0.4-1.2-0.8-1.7C113.4,35.7,112.9,35.4,112.2,35.2
		C112.2,35.2,112.2,35.2,112.2,35.2"/>
	<path class="st14" d="M22.5,60.9C22.5,60.9,22.5,60.9,22.5,60.9l4.1,0.8c2.5,0.5,5,0.7,7.5,0.7c2.4,0,4.8-0.2,7.1-0.6v0
		c-2.4,0.4-4.8,0.6-7.1,0.6c-2.5,0-5-0.2-7.5-0.7L22.5,60.9"/>
	<path class="st17" d="M47.2,60.5l-4.6,1c-0.5,0.1-0.9,0.2-1.4,0.3v0c0.5-0.1,0.9-0.2,1.4-0.3L47.2,60.5L47.2,60.5"/>
	<path class="st16" d="M56.7,53.5L40.4,57c-2.8,0.6-5.7,0.9-8.5,0.9c-1.5,0-2.9-0.1-4.4-0.2l-3.2,2.2c-0.6,0.4-1.2,0.7-1.8,1
		l4.1,0.8c2.5,0.5,5,0.7,7.5,0.7c2.4,0,4.8-0.2,7.1-0.6c0.5-0.1,0.9-0.2,1.4-0.3l4.6-1L56.7,53.5"/>
	<path class="st12" d="M4,55.9C4,55.9,4,55.9,4,55.9c0,0.9,0.7,1.7,1.5,1.8l6.1,1.1c0,0,0,0,0,0l-6.1-1.1C4.6,57.5,4,56.8,4,55.9
		C4,55.9,4,55.9,4,55.9"/>
	<path class="st13" d="M11.6,58.8C11.6,58.8,11.6,58.8,11.6,58.8L11.6,58.8C11.6,58.8,11.6,58.8,11.6,58.8L11.6,58.8"/>
	<path class="st14" d="M11.6,58.8C11.6,58.8,11.6,58.8,11.6,58.8L11.6,58.8C11.6,58.8,11.6,58.8,11.6,58.8L11.6,58.8"/>
	<polyline class="st15" points="11.6,58.8 11.6,58.8 14.3,59.3 14.3,59.3 11.6,58.8 	"/>
	<path class="st16" d="M10.8,54.7c-2.4,0.6-4.7,1.1-6.6,1.5H4c-0.1-0.5,0-0.9,0.2-1.3c-0.2,0.3-0.3,0.6-0.3,1c0,0,0,0,0,0
		c0,0.9,0.7,1.6,1.5,1.8l6.1,1.1l0,0l0,0l2.7,0.5l1.8-1.3l5.5-1.3L10.8,54.7"/>
	<path class="st10" d="M40.7,53l-0.2-1c0-0.1,0-0.3,0.1-0.4c0.1-0.1,0.2-0.2,0.3-0.2l1-0.2c0.3-0.1,0.6,0.1,0.6,0.4l0.2,1
		c0,0.1,0,0.3-0.1,0.4c-0.1,0.1-0.2,0.2-0.3,0.2l-1,0.2c-0.1,0-0.3,0-0.4-0.1C40.8,53.3,40.8,53.1,40.7,53z M43.7,52.3l-0.2-1
		c-0.1-0.3,0.1-0.6,0.4-0.6l1-0.2c0.3-0.1,0.6,0.1,0.6,0.4l0.2,1c0.1,0.3-0.1,0.6-0.4,0.6l-1,0.2C44.1,52.7,43.8,52.5,43.7,52.3
		L43.7,52.3z M46.7,51.5l-0.2-1c-0.1-0.3,0.1-0.6,0.4-0.6l1-0.2c0.1,0,0.3,0,0.4,0.1s0.2,0.2,0.2,0.3l0.2,1c0.1,0.3-0.1,0.6-0.4,0.6
		l-1,0.2C47.1,52,46.8,51.8,46.7,51.5L46.7,51.5z M49.7,50.8l-0.2-1c0-0.1,0-0.3,0.1-0.4s0.2-0.2,0.3-0.2l1-0.2c0.1,0,0.3,0,0.4,0.1
		s0.2,0.2,0.2,0.3l0.2,1c0,0.1,0,0.3-0.1,0.4s-0.2,0.2-0.3,0.2l-1,0.2c-0.3,0-0.5-0.2-0.5-0.4L49.7,50.8z M52.7,50.1l-0.2-1
		c-0.1-0.3,0.1-0.6,0.4-0.6l1-0.2c0.3-0.1,0.6,0.1,0.6,0.4l0.2,1c0.1,0.3-0.1,0.6-0.4,0.6l-1,0.2c-0.2,0-0.4-0.2-0.5-0.4L52.7,50.1z
		 M55.7,49.4l-0.2-1c0-0.1,0-0.3,0.1-0.4c0.1-0.1,0.2-0.2,0.3-0.2l1-0.2c0.3-0.1,0.6,0.1,0.6,0.4l0.2,1c0.1,0.3-0.1,0.6-0.4,0.6
		l-1,0.2c-0.2,0-0.4-0.2-0.4-0.5L55.7,49.4z M58.7,48.6l-0.2-1c0-0.2,0-0.4,0.1-0.5c0.1-0.1,0.3-0.2,0.5-0.2l1-0.2
		c0.3-0.1,0.6,0.1,0.6,0.4l0.2,1c0.1,0.3-0.1,0.6-0.4,0.6l-1,0.2c-0.3,0-0.5-0.2-0.6-0.4L58.7,48.6z M61.7,47.9l-0.2-1
		c-0.1-0.3,0.1-0.6,0.4-0.6l1-0.2c0.1,0,0.3,0,0.4,0.1c0.1,0.1,0.2,0.2,0.2,0.3l0.2,1c0.1,0.3-0.1,0.6-0.4,0.6l-1,0.2
		c-0.2-0.1-0.3-0.2-0.4-0.5L61.7,47.9z M64.7,47.2l-0.2-1c-0.1-0.3,0.1-0.6,0.4-0.6l1-0.2c0.1,0,0.3,0,0.4,0.1
		c0.1,0.1,0.2,0.2,0.2,0.3l0.2,1c0,0.1,0,0.3-0.1,0.4c-0.1,0.1-0.2,0.2-0.3,0.2l-1,0.2c-0.2-0.1-0.3-0.2-0.4-0.5L64.7,47.2z
		 M67.7,46.5l-0.2-1c0-0.1,0-0.3,0.1-0.4c0.1-0.1,0.2-0.2,0.3-0.2l1-0.2c0.3-0.1,0.6,0.1,0.6,0.4l0.2,1c0.1,0.3-0.1,0.6-0.4,0.6
		l-1,0.2c-0.2-0.1-0.3-0.2-0.3-0.4L67.7,46.5z M70.7,45.8l-0.2-1c0-0.1,0-0.3,0.1-0.4c0.1-0.1,0.2-0.2,0.3-0.2l1-0.2
		c0.3-0.1,0.6,0.1,0.7,0.4l0.2,1c0.1,0.3-0.1,0.6-0.4,0.6l-1,0.2c-0.2-0.1-0.3-0.3-0.3-0.4L70.7,45.8z M73.7,45l-0.2-1
		c-0.1-0.3,0.1-0.6,0.4-0.6l1-0.2c0.3-0.1,0.6,0.1,0.6,0.4l0.2,1c0.1,0.3-0.1,0.6-0.4,0.6l-1,0.2c-0.1-0.1-0.2-0.3-0.2-0.4L73.7,45z
		 M76.7,44.3l-0.2-1c-0.1-0.3,0.1-0.6,0.4-0.6l1-0.2c0.1,0,0.3,0,0.4,0.1c0.1,0.1,0.2,0.2,0.2,0.3l0.2,1c0.1,0.3-0.1,0.6-0.4,0.6
		l-1,0.2c-0.1-0.1-0.2-0.3-0.2-0.5L76.7,44.3z M79.7,43.6l-0.2-1c-0.1-0.3,0.1-0.6,0.4-0.6l1-0.2c0.1,0,0.3,0,0.4,0.1
		c0.1,0.1,0.2,0.2,0.2,0.3l0.2,1c0.1,0.3-0.1,0.6-0.4,0.6l-1,0.2c-0.1-0.1-0.2-0.3-0.2-0.5L79.7,43.6z M82.7,42.9l-0.2-1
		c0-0.1,0-0.3,0.1-0.4c0.1-0.1,0.2-0.2,0.3-0.2l1-0.2c0.3-0.1,0.6,0.1,0.6,0.4l0.2,1c0.1,0.3-0.1,0.6-0.4,0.6l-1,0.2
		c-0.1-0.1-0.1-0.3-0.1-0.4L82.7,42.9z M85.7,42.1l-0.2-1c-0.1-0.3,0.1-0.6,0.4-0.6l1-0.2c0.1,0,0.3,0,0.4,0.1
		c0.1,0.1,0.2,0.2,0.2,0.3l0.2,1c0.1,0.3-0.1,0.6-0.4,0.6l-1,0.2c-0.1-0.1-0.1-0.3-0.1-0.4L85.7,42.1z M88.7,41.4l-0.2-1
		c-0.1-0.3,0.1-0.6,0.4-0.6l1-0.2c0.3-0.1,0.6,0.1,0.6,0.4l0.2,1c0.1,0.3-0.1,0.6-0.4,0.6l-1,0.2c-0.1-0.1-0.1-0.3,0-0.4L88.7,41.4z
		"/>
	<path class="st10" d="M36.9,52.1l0.7-0.2c0.5-0.1,1.1,0.2,1.2,0.7l0.8,3.3c0.1,0.5-0.2,1.1-0.7,1.2l-0.7,0.2
		c-0.5,0.1-1.1-0.2-1.2-0.7l-0.8-3.3C36.1,52.7,36.4,52.2,36.9,52.1z"/>
	<path class="st10" d="M92.6,38.8l0.6-0.2c0.5-0.1,1.1,0.2,1.2,0.7l0.8,3.3c0.1,0.5-0.2,1.1-0.8,1.2L93.9,44
		c-0.5,0.1-1.1-0.2-1.2-0.8L91.9,40C91.8,39.4,92.1,38.9,92.6,38.8z"/>
	<path class="st10" d="M31,54.4L16.1,58l-7.8,5.7c-0.1,0.1-0.1,0.2-0.1,0.3c0,0.1,0.2,0.2,0.3,0.2l11.1-2.4c1.7-0.4,3.3-1,4.7-2
		l7-4.8c0.2-0.1,0.3-0.3,0.2-0.5C31.4,54.4,31.2,54.3,31,54.4 M77,48l-19.2,4.7L38.1,67.2c-0.1,0.1-0.2,0.3-0.1,0.4
		c0.1,0.2,0.2,0.2,0.4,0.2l12.8-2c2.1-0.3,4.1-1.1,5.9-2.4l20.5-14.2c0.2-0.2,0.3-0.6,0.2-0.9C77.6,48.2,77.3,48,77,48"/>
	<path class="st18" d="M39.5,66.2l-1.4,1c-0.1,0.1-0.2,0.3-0.1,0.4c0.1,0.1,0.2,0.2,0.3,0.2c0,0,0,0,0,0c-0.1,0-0.3-0.1-0.3-0.2
		c-0.1-0.2,0-0.3,0.1-0.4L39.5,66.2"/>
	<path class="st19" d="M77.1,48C77,48,77,48,77.1,48L77.1,48l-2.6,0.6L55,62c-1.8,1.2-3.8,2-5.9,2.3L40,65.8l-0.5,0.4l-1.4,1
		c-0.1,0.1-0.2,0.3-0.1,0.4c0.1,0.1,0.2,0.2,0.3,0.2c0,0,0,0,0,0l12.8-2c2.1-0.3,4.1-1.1,5.9-2.4l20.5-14.2c0.2-0.2,0.3-0.4,0.3-0.6
		c0,0,0,0,0,0c0-0.1,0-0.2-0.1-0.3C77.6,48.2,77.4,48,77.1,48"/>
	<path class="st20" d="M10.9,52.8c-2,0.4-3.8,0.9-5.5,1.2c-0.3,0.1-0.6,0.2-0.8,0.4c0.2-0.2,0.5-0.4,0.8-0.4
		C7.1,53.7,8.9,53.3,10.9,52.8L10.9,52.8"/>
	<path class="st21" d="M101.5,33.2c-1.5,0-3.5,0.2-6.1,0.7c-4,0.8-21.6,4.8-40.9,9.1c-4.4,1-8.8,2-13.2,3
		c-5.7,1.3-11.4,2.6-16.6,3.7c-4.7,1.1-9.1,2-12.9,2.9c-0.3,0.1-0.6,0.1-0.9,0.2c-2,0.4-3.8,0.9-5.5,1.2c-0.3,0.1-0.6,0.2-0.8,0.4
		c-0.1,0.1-0.2,0.2-0.3,0.4C4.6,54.4,5,54.2,5.5,54l0.9-0.2l4.4,0.8C36.7,48.8,87,37.5,94.1,36c1.9-0.5,3.8-0.7,5.8-0.7
		c0.8,0,1.6,0,2.4,0.1c0.2-0.1,0.4-0.2,0.5-0.3c0.6-0.3,1.1-0.7,1.6-1.1c0.2-0.1,0.3-0.3,0.4-0.4C104,33.4,102.9,33.2,101.5,33.2"/>
	<path class="st22" d="M6.4,53.8L5.5,54c-0.5,0.1-0.9,0.4-1.2,0.8C4.1,55.2,4,55.7,4,56.2h0.1c2-0.4,4.2-0.9,6.6-1.5L6.4,53.8"/>
</g>
</svg>
