<?xml version="1.0" encoding="utf-8"?>
<!-- Generator: Adobe Illustrator 22.1.0, SVG Export Plug-In . SVG Version: 6.00 Build 0)  -->
<svg version="1.1" id="Layer_1" xmlns="http://www.w3.org/2000/svg" xmlns:xlink="http://www.w3.org/1999/xlink" x="0px" y="0px"
	 viewBox="0 0 120 100" style="enable-background:new 0 0 120 100;" xml:space="preserve">
<style type="text/css">
	.st0{fill:#E6F9FF;}
	.st1{fill:#CEF3FF;}
	.st2{fill:#BAEFFF;}
	.st3{fill:#DAF6FF;}
	.st4{fill:#C5F1FF;}
	.st5{fill:#BCEFFF;}
	.st6{fill:#A9EBFF;}
	.st7{fill:#A1E9FF;}
	.st8{fill:#91E5FF;}
	.st9{fill:#FAFEFF;}
	.st10{fill:#BA3D1E;}
	.st11{fill:#9DE8FF;}
	.st12{fill:#7FE1FF;}
	.st13{fill:#74DEFF;}
	.st14{fill:#913627;}
	.st15{fill:#F56400;}
	.st16{fill:#A5331C;}
	.st17{fill:#FF8831;}
</style>
<g>
	<path class="st0" d="M13.3,64.7c0.9,2.9,2,5.6,3.4,8.2c-0.3-0.7-0.7-1.3-1-2h88l0,0h-88C14.7,68.9,13.9,66.8,13.3,64.7 M52.1,14.5
		c0.5-2.8,2.4-5.2,5-6.3c0.9-0.4,1.8-0.5,2.6-0.5c3.1,0,5.4,2.2,6.5,4.4c0,0,2.3-2,5.4-2c1,0,2.1,0.2,3.2,0.8C79.3,13.1,79,17,79,17
		H47.8c0-1.1,0.4-2.1,1.3-2.7c0.4-0.2,0.9-0.3,1.3-0.3C51,14,51.6,14.2,52.1,14.5 M59.7,2C43.4,2,29,10,20.2,22.3
		c3.1-0.8,6-1.2,8.6-1.2c2.8,0,5.2,0.4,7,1c4.1,1.4,10.6,8.1,20.1,8.1c0.3,0,0.6,0,0.9,0c10-0.4,17.3-10,29.3-10
		c4.1,0.1,8.2,0.4,12.3,1.1C89.6,9.6,75.5,2,59.7,2"/>
	<path class="st1" d="M100.4,76.9C100.4,76.9,100.4,76.9,100.4,76.9C91.7,90.2,76.7,99,59.7,99c-17,0-32-8.8-40.6-22c0,0,0,0,0,0
		C27.9,90.6,43.1,99,59.7,99C76.3,99,91.5,90.6,100.4,76.9 M16.7,72.9c0.4,0.8,0.9,1.7,1.4,2.4c0,0,0,0,0,0
		C17.6,74.6,17.1,73.8,16.7,72.9 M103.7,70.9L103.7,70.9c-0.8,1.5-1.6,3.1-2.4,4.5c0,0,0,0,0,0C102.2,74,103,72.5,103.7,70.9"/>
	<path class="st2" d="M100.3,76.9c-7.3,0.6-22.9,1-41,1c-17.5,0-32.7-0.4-40.3-1c8.7,13.3,23.6,22,40.6,22
		C76.7,99,91.7,90.2,100.3,76.9 M103.7,70.9h-88c0.3,0.7,0.6,1.3,1,2c0.4,0.8,0.9,1.6,1.4,2.4c7.2-0.6,23-1,41.3-1
		c18.9,0,35.1,0.5,41.9,1.1C102.1,74,102.9,72.5,103.7,70.9"/>
	<path class="st3" d="M20.2,22.3C20.2,22.3,20.2,22.3,20.2,22.3c-8.9,12.4-11.3,28.1-6.9,42.4c-1-3.3-1.7-6.8-2-10.3
		c-0.1-1.4-0.2-2.7-0.2-4.1C11.2,39.9,14.6,30.2,20.2,22.3 M98.5,21.4c5.3,7,8.7,15.5,9.5,24.8c0,0,0,0,0,0
		C107.2,37.2,103.9,28.6,98.5,21.4C98.5,21.4,98.5,21.4,98.5,21.4"/>
	<path class="st4" d="M11.3,54.4c0.3,3.6,0.9,7,2,10.3c0.6,2.1,1.4,4.2,2.4,6.2h88l0,0H15.7l0,0h-0.1c-1.6-3.4-2.8-7-3.5-10.8
		c0,0,0,0,0,0c0,0,0,0,0,0c0,0,0,0,0,0C11.8,58.2,11.5,56.3,11.3,54.4 M86.2,20.3c-12.1,0-19.3,9.6-29.3,10c-0.3,0-0.6,0-0.9,0
		c-9.5,0-16-6.8-20.1-8.1c-1.8-0.6-4.3-1-7-1c-2.6,0-5.5,0.3-8.6,1.2c-5.6,7.9-9,17.5-9,28c0-3.5,0.4-6.9,1.1-10.3c0,0,0,0,0,0
		c0.6-2.6,1.4-5.2,2.4-7.7c6.3,0.9,12.6,2.2,18.8,3.7c5.8,1.5,9.4,1.8,12.1,1.8c1,0,1.9,0,2.7-0.1c0.8,0,1.6-0.1,2.4-0.1
		c2.3,0,4.7,0.4,8.9,2.3c1.3,0.6,2.5,1.1,3.7,1.6l0,0c4.5,0.8,9,1.9,13.3,3.5l0,0c3.1,0.2,6.2,0.4,9.2,0.4c2.1,0,4.2-0.1,6.3-0.2
		c1.1,0,2.2-0.1,3.3-0.1c4.2,0,8.3,0.3,12.4,1c-0.8-9.3-4.2-17.8-9.5-24.8C94.4,20.7,90.3,20.4,86.2,20.3"/>
	<path class="st3" d="M108,46.2c0.1,1.3,0.2,2.5,0.2,3.8l0,0c0,0.1,0,0.3,0,0.4c0,0,0,0.1,0,0.1c0,2.3-0.2,4.7-0.5,7c0,0,0,0,0,0
		c-0.7,4.7-2,9.2-4,13.5l0,0h0c3-6.4,4.5-13.4,4.5-20.4C108.3,49,108.2,47.6,108,46.2C108,46.2,108,46.2,108,46.2"/>
	<path class="st5" d="M108.2,50.4C108.2,50.4,108.2,50.4,108.2,50.4c0,1.4-0.1,2.7-0.2,4c-0.1,1-0.2,2.1-0.3,3.1c0,0,0,0,0,0
		c0.3-2.3,0.5-4.6,0.5-7C108.2,50.4,108.2,50.4,108.2,50.4 M108,46.2c0.1,1.2,0.2,2.5,0.2,3.8l0,0C108.2,48.7,108.1,47.4,108,46.2
		C108,46.2,108,46.2,108,46.2"/>
	<path class="st6" d="M108,54.3c-0.1,1-0.2,2-0.3,3.1c-2.7,0.5-5.4,0.8-8.1,0.8c-0.3,0-0.6,0-0.9,0c-3.2-0.1-6.3-0.3-9.5-0.3
		c-4.8,0-9.6,0.5-14.7,2.3c-3,1.1-6.4,1.5-9.8,1.5c-6.3,0-12.9-1.3-18-2.3c-4.9-0.9-10.7-2.1-16.5-2.1c-3.5,0-7,0.4-10.4,1.7
		c-2.2,0.8-4.4,1.2-6.7,1.2c-0.3,0-0.6,0-0.9,0c0,0,0,0,0,0c0.3,0,0.6,0,0.9,0c2.3,0,4.5-0.4,6.7-1.2c3.3-1.2,6.8-1.7,10.3-1.7
		c5.8,0,11.6,1.2,16.5,2.1c5.1,0.9,11.7,2.3,18,2.3c3.5,0,6.8-0.4,9.8-1.5c5.1-1.9,9.9-2.3,14.7-2.3c3.2,0,6.3,0.2,9.5,0.3
		c0.3,0,0.6,0,0.9,0c2.7,0,5.4-0.3,8.1-0.8C107.8,56.4,107.9,55.4,108,54.3 M76.7,45.1c0.8,0.3,1.6,0.6,2.5,0.9
		c6.4,2.3,10.2,2.8,13.1,2.8c1.2,0,2.2-0.1,3.2-0.2c1-0.1,2.1-0.2,3.2-0.2c2.2,0,4.7,0.3,8.4,1.3l1,0.3c0-1.3-0.1-2.5-0.2-3.8
		c-4.1-0.7-8.3-1-12.4-1c-1.1,0-2.2,0-3.3,0.1c-2.1,0.1-4.2,0.2-6.3,0.2C82.9,45.4,79.8,45.3,76.7,45.1 M14.7,32.3
		c-1,2.5-1.8,5.1-2.4,7.7c5.7,1.8,11.7,2.8,17.7,2.8c2.1,0,4.2-0.1,6.4-0.3C44.3,41.5,50.1,41,55,41c3,0,5.7,0.2,8.4,0.6
		c-1.2-0.5-2.4-1-3.7-1.6c-4.3-1.9-6.7-2.3-8.9-2.3c-0.8,0-1.5,0-2.4,0.1c-0.8,0-1.7,0.1-2.7,0.1c-2.7,0-6.3-0.3-12.1-1.8
		C27.4,34.4,21.1,33.2,14.7,32.3"/>
	<path class="st6" d="M12.2,60.2c0.7,3.7,1.9,7.3,3.5,10.8h0.1C14.1,67.5,12.9,63.9,12.2,60.2C12.2,60.2,12.2,60.2,12.2,60.2"/>
	<path class="st5" d="M107.7,57.5C107.7,57.5,107.7,57.5,107.7,57.5c-0.7,4.7-2,9.2-4,13.5C105.7,66.7,107,62.1,107.7,57.5"/>
	<path class="st7" d="M107.7,57.5C107.7,57.5,107.7,57.5,107.7,57.5c-0.7,4.8-2.1,9.3-4,13.5h0l0,0C105.7,66.6,107,62.1,107.7,57.5"
		/>
	<path class="st8" d="M30.1,57.4c-3.5,0-7,0.4-10.3,1.7c-2.2,0.8-4.4,1.2-6.7,1.2c-0.3,0-0.6,0-0.9,0c0.8,3.7,1.9,7.3,3.6,10.8h87.9
		c2-4.2,3.3-8.7,4-13.5c-2.7,0.5-5.4,0.8-8.1,0.8c-0.3,0-0.6,0-0.9,0c-3.2-0.1-6.3-0.3-9.5-0.3c-4.8,0-9.6,0.5-14.7,2.3
		c-3,1.1-6.3,1.5-9.8,1.5c-6.3,0-13-1.3-18-2.3C41.8,58.6,36,57.4,30.1,57.4"/>
	<path class="st5" d="M11.2,50.3c0,1.4,0,2.7,0.2,4.1c-0.1-1.3-0.2-2.6-0.2-3.9C11.2,50.4,11.2,50.4,11.2,50.3"/>
	<path class="st6" d="M12.3,40c-0.8,3.4-1.1,6.9-1.1,10.3c0,0.1,0,0.1,0,0.2c0,1.3,0.1,2.6,0.2,3.9c0.2,1.9,0.4,3.9,0.8,5.8
		c0,0,0,0,0,0C10.8,53.5,10.9,46.6,12.3,40C12.3,40,12.3,40,12.3,40"/>
	<path class="st5" d="M108.2,50c0,0.1,0,0.3,0,0.4C108.2,50.2,108.2,50.1,108.2,50L108.2,50"/>
	<path class="st7" d="M108.2,50c0,0.2,0,0.3,0,0.5c0,1.3-0.1,2.6-0.2,3.9c0.1-1.3,0.2-2.6,0.2-3.9c0,0,0,0,0,0
		C108.2,50.2,108.2,50.1,108.2,50L108.2,50"/>
	<path class="st8" d="M12.3,40c-1.5,6.6-1.5,13.5-0.2,20.1c0.3,0,0.6,0,0.9,0c2.3,0,4.5-0.4,6.7-1.2c3.3-1.2,6.9-1.7,10.4-1.7
		c5.8,0,11.6,1.2,16.5,2.1c5.1,0.9,11.7,2.3,18,2.3c3.5,0,6.9-0.4,9.8-1.5c5.1-1.9,9.9-2.3,14.7-2.3c3.1,0,6.3,0.2,9.5,0.3
		c0.3,0,0.6,0,0.9,0c2.7,0,5.5-0.3,8.1-0.8c0.1-1,0.3-2,0.3-3.1c0.1-1.3,0.2-2.6,0.2-3.9c0-0.2,0-0.3,0-0.5l-1-0.3
		c-3.7-1-6.2-1.3-8.4-1.3c-1.2,0-2.2,0.1-3.2,0.2c-1,0.1-2.1,0.2-3.2,0.2c-3,0-6.7-0.5-13.1-2.8c-0.9-0.3-1.7-0.6-2.5-0.9l0,0
		c-4.3-1.5-8.8-2.7-13.3-3.5l0,0C60.7,41.2,58,41,55,41c-5,0-10.7,0.5-18.6,1.4c-2.1,0.2-4.2,0.3-6.4,0.3
		C24.1,42.8,18.1,41.8,12.3,40"/>
	<path class="st9" d="M59.8,7.7c-0.8,0-1.7,0.2-2.6,0.5c-2.6,1.1-4.5,3.5-5,6.3C51.6,14.2,51,14,50.4,14c-0.4,0-0.9,0.1-1.3,0.3
		c-0.9,0.6-1.3,1.6-1.3,2.7H79c0,0,0.3-3.9-4.2-6.1c-1.1-0.6-2.2-0.8-3.2-0.8c-3.1,0-5.4,2-5.4,2C65.1,9.9,62.9,7.7,59.8,7.7"/>
	<path class="st10" d="M17.7,53.8h-4.2c-1.9,0-3.5-1.6-3.5-3.5V37.7c0-0.9,0.4-1.8,1-2.5c0.7-0.7,1.6-1,2.5-1h4.2V53.8z"/>
	
		<rect x="84.7" y="54.8" transform="matrix(0.4023 -0.9155 0.9155 0.4023 -5.2646 116.0545)" class="st10" width="3" height="14.6"/>
	<path class="st11" d="M101.3,75.4c-0.3,0.5-0.6,1-0.9,1.5c2.8-0.2,4.4-0.5,4.4-0.8C104.8,75.9,103.5,75.7,101.3,75.4 M18,75.4
		c-2.7,0.2-4.2,0.5-4.2,0.7c0,0.3,1.9,0.6,5.1,0.8C18.7,76.4,18.4,75.9,18,75.4"/>
	<path class="st12" d="M101.3,75.4c-0.3,0.5-0.6,1-0.9,1.5c0,0,0,0,0.1,0C100.7,76.4,101,75.9,101.3,75.4
		C101.3,75.4,101.3,75.4,101.3,75.4 M18,75.4C18,75.4,18,75.4,18,75.4c0.3,0.5,0.6,1.1,1,1.6c0,0,0,0,0,0
		C18.7,76.4,18.4,75.9,18,75.4"/>
	<path class="st13" d="M59.3,74.3c-18.3,0-34.1,0.4-41.3,1c0.3,0.5,0.6,1.1,1,1.6c7.6,0.6,22.8,1,40.3,1c18.1,0,33.7-0.4,41-1
		c0.3-0.5,0.6-1,0.9-1.5C94.4,74.8,78.2,74.3,59.3,74.3"/>
	<circle class="st14" cx="34.8" cy="65.7" r="7.4"/>
	<path d="M23.2,66.1c0.1,0.1,0.2,0.3,0.2,0.4c0,0.2-0.1,0.3-0.2,0.5c0,0.3,0.1,0.5,0.1,0.8c0,0.3,0.3,0.2,0.3,0.4
		c0,0.2,0,0.3-0.1,0.5c0.1,0.3,0.2,0.5,0.2,0.8c0.2,0.1,0.3,0.2,0.4,0.3c0,0.2,0,0.3,0,0.5c0.1,0.2,0.2,0.5,0.4,0.7
		c0.2,0.1,0.4,0.2,0.4,0.3c0,0.2,0,0.3,0,0.5c0.1,0.2,0.3,0.5,0.5,0.7c0.2,0,0.3,0.1,0.4,0.2C26,72.8,26,73,26,73.2
		c0.2,0.2,0.4,0.4,0.6,0.6c0.2,0,0.3,0,0.5,0.1c0.1,0.1,0.2,0.3,0.2,0.5c0.2,0.2,0.4,0.4,0.7,0.5c0.2,0,0.3,0,0.5,0.1
		c0.1,0.1,0.2,0.3,0.2,0.4c0.2,0.1,0.5,0.3,0.7,0.4c0.2,0,0.3,0,0.5,0c0.1,0.1,0.2,0.2,0.3,0.4c0.3,0.1,0.5,0.2,0.8,0.3
		c0.2-0.1,0.3-0.1,0.5-0.1c0.1,0,0.2,0.2,0.4,0.3c0.3,0.1,0.5,0.1,0.8,0.2c0.1-0.1,0.3-0.1,0.5-0.2c0.2,0.1,0.3,0.2,0.4,0.3
		c0.3,0,0.5,0,0.8,0c0.1-0.1,0.3-0.2,0.4-0.2c0.2,0,0.3,0.1,0.4,0.2c0.3,0,0.6,0,0.8,0c0.1-0.1,0.2-0.2,0.4-0.3
		c0.2,0,0.3,0.1,0.5,0.2c0.3,0,0.5-0.1,0.8-0.2c0.1-0.2,0.2-0.3,0.3-0.3c0.2,0,0.3,0,0.5,0.1c0.3-0.1,0.5-0.2,0.8-0.3
		c0.1-0.2,0.2-0.3,0.3-0.4c0.2,0,0.3,0,0.5,0c0.2-0.1,0.5-0.3,0.7-0.4c0-0.2,0.1-0.3,0.2-0.4c0.2-0.1,0.3-0.1,0.5-0.1
		c0.2-0.2,0.4-0.3,0.7-0.5c0-0.2,0.1-0.3,0.2-0.5c0.1-0.1,0.3-0.1,0.5-0.1c0.2-0.2,0.4-0.4,0.5-0.6c0-0.2,0-0.3,0.1-0.5
		c0.1-0.1,0.3-0.2,0.5-0.2c0.2-0.2,0.3-0.5,0.5-0.7c-0.1-0.2-0.1-0.3,0-0.5c0.1-0.2,0.3-0.3,0.5-0.3c0.1-0.2,0.2-0.5,0.4-0.8
		c-0.1-0.2-0.1-0.3,0-0.5c0.1-0.1,0.2-0.3,0.4-0.3c0.1-0.3,0.2-0.5,0.2-0.8c-0.1-0.1-0.1-0.3-0.1-0.5c0.1-0.2,0.2-0.3,0.3-0.4
		c0.1-0.3,0.1-0.5,0.1-0.8c-0.1-0.1-0.2-0.3-0.2-0.4c0-0.2,0.1-0.3,0.2-0.4c0-0.1,0-0.3,0-0.4c0-0.1,0-0.3,0-0.4
		C46.1,65.1,46,65,46,64.8c0-0.2,0.1-0.3,0.2-0.5c0-0.3-0.1-0.5-0.1-0.8c-0.2-0.1-0.3-0.2-0.3-0.4c0-0.2,0-0.3,0.1-0.5
		c-0.1-0.3-0.1-0.5-0.2-0.8c-0.2-0.1-0.3-0.2-0.4-0.3c0-0.2,0-0.3,0-0.5c-0.1-0.2-0.2-0.5-0.4-0.7c-0.2,0-0.3-0.1-0.4-0.3
		c-0.1-0.2-0.1-0.3,0-0.5c-0.1-0.2-0.3-0.5-0.5-0.7c-0.2,0-0.3-0.1-0.4-0.2c-0.1-0.1-0.1-0.3-0.1-0.5c-0.2-0.2-0.4-0.4-0.6-0.6
		c-0.2,0-0.3,0-0.5-0.1c-0.1-0.1-0.2-0.3-0.2-0.5c-0.2-0.2-0.4-0.3-0.7-0.5c-0.2,0-0.3,0-0.5-0.1c-0.1-0.1-0.2-0.3-0.2-0.4
		c-0.2-0.2-0.5-0.3-0.7-0.4c-0.2,0-0.3,0-0.5,0c-0.1-0.1-0.2-0.2-0.3-0.4c-0.3-0.1-0.5-0.2-0.8-0.3c-0.2,0.1-0.3,0.1-0.5,0.1
		c-0.1,0-0.2-0.2-0.4-0.3c-0.3-0.1-0.5-0.1-0.8-0.2c-0.1,0.1-0.3,0.2-0.5,0.2c-0.2-0.1-0.3-0.2-0.4-0.3c-0.3,0-0.6,0-0.8-0.1
		c-0.1,0.1-0.3,0.2-0.5,0.2c-0.2,0-0.3-0.1-0.4-0.2c-0.3,0-0.6,0-0.8,0.1c-0.1,0.1-0.2,0.2-0.4,0.3c-0.2,0-0.3-0.1-0.5-0.2
		c-0.3,0-0.5,0.1-0.8,0.2c-0.1,0.2-0.2,0.3-0.3,0.3c-0.2,0-0.3,0-0.5-0.1c-0.3,0.1-0.5,0.2-0.8,0.3c-0.1,0.2-0.2,0.3-0.3,0.4
		c-0.2,0-0.3,0-0.5,0c-0.2,0.1-0.5,0.3-0.7,0.4c0,0.2-0.1,0.3-0.2,0.4c-0.2,0.1-0.3,0.1-0.5,0.1c-0.2,0.2-0.4,0.3-0.7,0.5
		c0,0.2-0.1,0.3-0.2,0.5c-0.1,0.1-0.3,0.1-0.5,0.1c-0.2,0.2-0.4,0.4-0.5,0.6c0,0.2,0,0.3-0.1,0.5c-0.1,0.1-0.3,0.2-0.4,0.2
		c-0.2,0.2-0.3,0.5-0.5,0.7c0,0.2,0,0.3,0,0.5c-0.1,0.1-0.2,0.2-0.4,0.3c-0.1,0.2-0.2,0.5-0.4,0.7c0.1,0.2,0.1,0.3,0,0.5
		c0,0.1-0.2,0.2-0.4,0.3c-0.1,0.3-0.2,0.5-0.2,0.8c0.1,0.1,0.1,0.3,0.1,0.5c0,0.2-0.2,0.3-0.3,0.4c-0.1,0.1-0.1,0.5-0.1,0.8
		c0.1,0.1,0.2,0.3,0.2,0.5c0,0.2-0.1,0.3-0.2,0.4c0,0.1,0,0.3,0,0.4C23.3,65.8,23.2,65.9,23.2,66.1z M28.3,65.7
		c0-3.6,2.9-6.4,6.4-6.4s6.4,2.9,6.4,6.4c0,3.6-2.9,6.4-6.4,6.4c-1.7,0-3.3-0.7-4.5-1.9C29,69,28.3,67.4,28.3,65.7z"/>
	<path class="st15" d="M34.6,60.4c3.1,0,5.6,2.5,5.6,5.6s-2.5,5.7-5.6,5.7c-3.1,0-5.6-2.5-5.6-5.7S31.5,60.4,34.6,60.4z"/>
	<path class="st16" d="M34.8,68c0.6,0,1,0.5,1,1s-0.5,1-1,1s-1-0.5-1-1S34.2,68,34.8,68z"/>
	<path class="st16" d="M30.4,65.5c0.1-0.6,0.6-0.9,1.2-0.8c0.6,0.1,0.9,0.6,0.8,1.2c-0.1,0.6-0.6,0.9-1.2,0.8
		C30.7,66.6,30.3,66,30.4,65.5z"/>
	<path class="st16" d="M37.1,65.5c0.1-0.6,0.6-0.9,1.2-0.8c0.6,0.1,0.9,0.6,0.8,1.2c-0.1,0.6-0.6,0.9-1.2,0.8
		C37.3,66.6,37,66,37.1,65.5z"/>
	<path d="M34.8,66.9c-0.7,0-1.3-0.6-1.3-1.3s0.6-1.3,1.3-1.3S36,65,36,65.7S35.5,66.9,34.8,66.9z M34.8,64.9c-0.4,0-0.8,0.3-0.8,0.8
		s0.3,0.8,0.8,0.8s0.8-0.3,0.8-0.8S35.2,64.9,34.8,64.9z"/>
	<path class="st14" d="M97.8,58c4.2,0,7.6,3.4,7.6,7.7c0,4.2-3.4,7.6-7.6,7.6c-4.2,0-7.7-3.4-7.7-7.6C90.2,61.4,93.6,58,97.8,58z"/>
	<path d="M66.6,41L66.6,41c-0.5-0.2-0.7-0.7-0.5-1.1l1.2-3c0.2-0.5,0.7-0.7,1.1-0.5c0.5,0.2,0.7,0.7,0.5,1.1l-1.2,3
		C67.6,41,67.1,41.2,66.6,41z"/>
	<polygon points="16.3,58.2 14.3,58.2 14.3,54.7 16.3,54.7 16.3,55.4 28.8,55.4 28.8,57.4 16.3,57.4 	"/>
	<path d="M105.9,53.9l-3.1,3.7H83.6l9.6-7.4C93.2,50.3,105.6,50.4,105.9,53.9z M46.8,53.9v3.7H24.5v-7.4
		C24.5,50.3,46.5,50.4,46.8,53.9z"/>
	<path class="st15" d="M104.2,51.5l0.7,0.2c0.6,0.1,1.3,0,1.8-0.5c0.5-0.4,0.7-1.1,0.6-1.8l-0.7-4.4c-0.1-0.6-0.4-1.1-0.9-1.4
		c-0.5-0.3-1.1-0.4-1.7-0.2l-2.5,0.9c-0.6,0.2-1,0.7-1.2,1.3c-0.2,0.6-0.1,1.3,0.3,1.8l2.4,3.3C103.3,51.2,103.7,51.4,104.2,51.5z"
		/>
	<path class="st15" d="M17.1,28.9v27.6c0,1.7,1.3,3,3,3h4.1l3.3-3.6c0.9-1,2.2-1.5,3.5-1.5h8.4c1.8,0,3.5,1.1,4.3,2.7l1.7,3.6
		c0.8,1.7,2.5,2.8,4.4,2.8H80c1.3,0,2.6-0.5,3.5-1.5l7.9-8.2c0.9-0.9,2.2-1.5,3.5-1.4l6.8,0.2c1,0,1.9,0.5,2.5,1.3l0.5,0.6
		c0.3,0.4,0.9,0.6,1.4,0.4c0.5-0.2,0.9-0.7,0.9-1.2l-0.1-4.8c-0.1-3.8-3-6.9-6.8-7.3l-21-2.4c-1.5-0.2-2.8-1.2-3.4-2.6l-3.9-10
		c-0.9-2.2-3-3.7-5.4-3.7H22.9c-1.5,0-3,0.6-4.1,1.7C17.7,25.8,17.1,27.3,17.1,28.9z M49.2,30.8c0-0.7,0.5-1.2,1.2-1.2h16.3
		c0.3,0,0.6,0.2,0.7,0.5l3.1,8.8c0.1,0.2,0,0.5-0.1,0.6c-0.1,0.2-0.3,0.3-0.6,0.3H50.4c-0.7,0-1.2-0.5-1.2-1.2V30.8z M24.3,30.3
		c0-0.4,0.3-0.7,0.7-0.7h14.7c0.4,0,0.7,0.3,0.7,0.7V39c0,0.2-0.1,0.4-0.2,0.5c-0.1,0.1-0.3,0.2-0.5,0.2H25c-0.4,0-0.7-0.3-0.7-0.7
		L24.3,30.3z M19.3,30.3c0-0.4,0.3-0.7,0.7-0.7h1.1c0.4,0,0.7,0.3,0.7,0.7V39c0,0.2-0.1,0.4-0.2,0.5c-0.1,0.1-0.3,0.2-0.5,0.2H20
		c-0.2,0-0.4-0.1-0.5-0.2c-0.1-0.1-0.2-0.3-0.2-0.5L19.3,30.3z"/>
	<rect x="64.9" y="29.2" class="st15" width="1" height="11.6"/>
	<path d="M86.3,66.1c0.1,0.1,0.2,0.3,0.3,0.4c0,0.2-0.1,0.3-0.2,0.5c0,0.3,0.1,0.5,0.1,0.8c0.1,0.1,0.2,0.2,0.3,0.4
		c0,0.2,0,0.3-0.1,0.5c0.1,0.3,0.1,0.5,0.2,0.8c0.2,0.1,0.3,0.2,0.4,0.3c0.1,0.2,0.1,0.3,0,0.5c0.1,0.2,0.2,0.5,0.4,0.7
		c0.2,0.1,0.3,0.2,0.4,0.3c0.1,0.2,0.1,0.3,0,0.5c0.2,0.2,0.3,0.5,0.5,0.7c0.2,0,0.3,0.1,0.4,0.2c0.1,0.2,0.1,0.3,0.1,0.5
		c0.2,0.2,0.4,0.4,0.5,0.6c0.2,0,0.3,0,0.5,0.1c0.1,0.1,0.2,0.3,0.2,0.5c0.2,0.2,0.4,0.3,0.7,0.5c0.2,0,0.3,0,0.5,0.1
		c0.1,0.1,0.2,0.3,0.2,0.4c0.2,0.1,0.5,0.3,0.7,0.4c0.2,0,0.3,0,0.5,0c0.1,0.1,0.2,0.2,0.3,0.4c0.2,0.1,0.5,0.2,0.8,0.3
		c0.2-0.1,0.3-0.1,0.5-0.1c0.1,0,0.2,0.2,0.4,0.3c0.3,0.1,0.5,0.1,0.8,0.2c0.1-0.1,0.3-0.1,0.5-0.2c0.2,0.1,0.3,0.2,0.4,0.3
		c0.3,0,0.5,0,0.8,0c0.1-0.1,0.3-0.2,0.4-0.2c0.2,0,0.3,0.1,0.4,0.2c0.3,0,0.5,0,0.8,0c0.1-0.1,0.2-0.2,0.4-0.3
		c0.2,0,0.3,0.1,0.5,0.2c0.3,0,0.5-0.1,0.8-0.2c0.1-0.1,0.2-0.3,0.4-0.3c0.2,0,0.3,0,0.5,0.1c0.3-0.1,0.5-0.2,0.8-0.3
		c0.1-0.2,0.2-0.3,0.3-0.4c0.2,0,0.3,0,0.5,0c0.2-0.1,0.5-0.3,0.7-0.4c0-0.2,0.1-0.3,0.2-0.4c0.1-0.1,0.3-0.1,0.5-0.1
		c0.2-0.2,0.5-0.3,0.7-0.5c0-0.2,0.1-0.3,0.2-0.5c0.1-0.1,0.3-0.1,0.5-0.1c0.2-0.2,0.4-0.4,0.6-0.6c0-0.2,0-0.3,0.1-0.5
		c0.1-0.1,0.3-0.2,0.5-0.2l0.5-0.7c0-0.2,0-0.3,0-0.5c0.1-0.1,0.2-0.3,0.4-0.3c0.1-0.2,0.2-0.5,0.4-0.8c-0.1-0.2-0.1-0.3-0.1-0.5
		c0.1-0.1,0.2-0.3,0.4-0.3c0.1-0.3,0.2-0.5,0.2-0.8c-0.1-0.1-0.1-0.3-0.1-0.5c0-0.1,0.2-0.3,0.3-0.4c0-0.3,0.1-0.5,0.1-0.8
		c-0.1-0.1-0.2-0.3-0.2-0.5c0-0.2,0.1-0.3,0.2-0.4c0-0.1,0-0.3,0-0.4s0-0.3,0-0.4c-0.1-0.1-0.2-0.3-0.2-0.4c0-0.2,0.1-0.3,0.2-0.5
		c0-0.3-0.1-0.6-0.1-0.8s-0.3-0.2-0.3-0.4c0-0.2,0-0.3,0.1-0.5c-0.1-0.3-0.2-0.5-0.2-0.8c-0.2-0.1-0.3-0.2-0.4-0.3
		c0-0.2,0-0.3,0.1-0.5c-0.1-0.2-0.2-0.5-0.4-0.7c-0.2,0-0.3-0.1-0.4-0.3c0-0.2,0-0.3,0-0.5c-0.2-0.2-0.3-0.5-0.5-0.7
		c-0.2,0-0.3-0.1-0.5-0.2c-0.1-0.1-0.1-0.3-0.1-0.5c-0.2-0.2-0.4-0.4-0.5-0.6c-0.2,0-0.3,0-0.5-0.1c-0.1-0.1-0.2-0.3-0.2-0.5
		c-0.2-0.2-0.4-0.3-0.7-0.5c-0.2,0-0.3,0-0.5-0.1c-0.1-0.1-0.2-0.3-0.2-0.4c-0.2-0.2-0.5-0.3-0.7-0.4c-0.2,0-0.3,0-0.5,0
		c-0.1-0.1-0.2-0.2-0.3-0.4c-0.2-0.1-0.5-0.2-0.8-0.3c-0.1,0.1-0.3,0.1-0.5,0.1c-0.1,0-0.2-0.2-0.4-0.3c-0.3-0.1-0.5-0.1-0.8-0.2
		c-0.1,0.1-0.3,0.2-0.5,0.2c-0.2-0.1-0.3-0.2-0.4-0.3c-0.3,0-0.6,0-0.8,0c-0.1,0.1-0.3,0.2-0.4,0.2c-0.2,0-0.3-0.1-0.4-0.2
		c-0.3,0-0.6,0-0.8,0c-0.1,0.1-0.3,0.2-0.4,0.3c-0.2,0-0.3-0.1-0.5-0.2c-0.3,0-0.5,0.1-0.8,0.2c-0.1,0.1-0.2,0.3-0.4,0.3
		c-0.2,0-0.3,0-0.5-0.1c-0.3,0.1-0.5,0.2-0.8,0.3c-0.1,0.2-0.2,0.3-0.3,0.4c-0.2,0-0.3,0-0.5,0c-0.2,0.1-0.5,0.3-0.7,0.4
		c0,0.2-0.1,0.3-0.2,0.4c-0.2,0.1-0.3,0.1-0.5,0.1c-0.2,0.2-0.4,0.3-0.7,0.5c0,0.2-0.1,0.3-0.2,0.5c-0.1,0.1-0.3,0.1-0.5,0.1
		c-0.2,0.2-0.4,0.4-0.5,0.6c0,0.2,0,0.4-0.1,0.5c-0.1,0.1-0.3,0.2-0.5,0.2c-0.2,0.2-0.3,0.5-0.5,0.7c0,0.2,0,0.3,0,0.5
		c-0.1,0.1-0.3,0.2-0.4,0.3c-0.1,0.2-0.2,0.5-0.4,0.7c0.1,0.2,0.1,0.3,0,0.5c0,0.1-0.2,0.2-0.4,0.3c-0.1,0.3-0.2,0.5-0.2,0.8
		c0.1,0.1,0.1,0.3,0.1,0.5c-0.1,0.2-0.2,0.3-0.3,0.4c0,0.3-0.1,0.5-0.1,0.8c0.1,0.1,0.2,0.3,0.2,0.5c0,0.2-0.1,0.3-0.3,0.4
		c0,0.1,0,0.3,0,0.4C86.3,65.8,86.3,65.9,86.3,66.1z M91.4,65.7c0-3.6,2.9-6.4,6.4-6.4c3.6,0,6.4,2.9,6.4,6.4c0,3.6-2.9,6.4-6.4,6.4
		c-1.7,0-3.3-0.7-4.5-1.9C92.1,69,91.4,67.4,91.4,65.7z"/>
	<path class="st15" d="M97.7,60.4c3.1,0,5.6,2.5,5.6,5.6s-2.5,5.7-5.6,5.7c-3.1,0-5.7-2.5-5.7-5.7S94.6,60.4,97.7,60.4z"/>
	<path class="st16" d="M97.8,61.3c0.6,0,1,0.5,1,1s-0.5,1-1,1s-1-0.5-1-1S97.3,61.3,97.8,61.3z"/>
	<path class="st16" d="M97.8,68c0.6,0,1,0.5,1,1s-0.5,1-1,1s-1-0.5-1-1S97.3,68,97.8,68z"/>
	<path class="st16" d="M93.5,65.5c0.1-0.6,0.6-0.9,1.2-0.8s0.9,0.6,0.8,1.2c-0.1,0.6-0.6,0.9-1.2,0.8C93.8,66.6,93.4,66,93.5,65.5z"
		/>
	<path class="st16" d="M100.1,65.5c0.1-0.6,0.6-0.9,1.2-0.8c0.6,0.1,0.9,0.6,0.8,1.2c-0.1,0.6-0.6,0.9-1.2,0.8
		C100.4,66.6,100,66,100.1,65.5z"/>
	<path class="st16" d="M34.8,61.3c0.6,0,1,0.5,1,1s-0.5,1-1,1s-1-0.5-1-1S34.2,61.3,34.8,61.3z"/>
	<path d="M97.8,66.9c-0.7,0-1.3-0.6-1.3-1.3s0.6-1.3,1.3-1.3s1.3,0.6,1.3,1.3S98.5,66.9,97.8,66.9z M97.8,64.9
		c-0.4,0-0.8,0.3-0.8,0.8s0.3,0.8,0.8,0.8s0.8-0.3,0.8-0.8S98.2,64.9,97.8,64.9z"/>
	<path class="st17" d="M22.9,23.1h43.5c1.8,0,3.6,0.9,4.6,2.4H18.2C19.3,23.9,21,23.1,22.9,23.1z"/>
	<path class="st10" d="M45.4,52.4h-25c-0.1,0-0.2-0.1-0.2-0.2v-3.4c0-0.1,0.1-0.2,0.2-0.2s0.2,0.1,0.2,0.2v3.2h24.8
		c0.1,0,0.2,0.1,0.2,0.2C45.7,52.3,45.6,52.4,45.4,52.4z"/>
	<path d="M71.9,61.2L71.9,61.2H50.8h0c-1.2,0-2.4-0.5-3.2-1.3c-0.9-0.9-1.3-2-1.3-3.2V28.5c0-0.5,0.2-1,0.5-1.3
		c0.4-0.4,0.8-0.6,1.3-0.6h20c0.5,0,1,0.3,1.1,0.8l3.9,11c0.2,0.6,0.3,1.2,0.3,1.9v19.4c0,0.4-0.1,0.8-0.4,1.1
		C72.7,61.1,72.3,61.2,71.9,61.2z M50.8,60.8h21.1c0.3,0,0.5-0.1,0.7-0.3c0.2-0.2,0.3-0.4,0.3-0.7V40.3c0-0.6-0.1-1.2-0.3-1.7
		l-3.9-11c-0.1-0.3-0.4-0.5-0.7-0.5h-20c-0.4,0-0.7,0.1-1,0.4c-0.3,0.3-0.4,0.6-0.4,1v28.1c0,1.1,0.4,2.1,1.2,2.9
		C48.6,60.3,49.7,60.8,50.8,60.8L50.8,60.8z"/>
	<path d="M42.4,53.5H19.5c-0.1,0-0.2-0.1-0.2-0.2V42.6c0-0.2,0.1-0.4,0.2-0.6c0.2-0.2,0.4-0.2,0.6-0.2h56.6l26.7,3.1
		c0.1,0,0.2,0.1,0.2,0.3c0,0.1-0.1,0.2-0.3,0.2l-26.7-3.1l-56.5,0c-0.1,0-0.2,0-0.2,0.1l-0.1,0.2V53h22.7c0.1,0,0.2,0.1,0.2,0.2
		S42.6,53.5,42.4,53.5z"/>
	<path d="M53.4,45.2h-4.2c-0.2,0-0.4-0.2-0.4-0.4s0.2-0.4,0.4-0.4h4.2c0.2,0,0.4,0.2,0.4,0.4S53.6,45.2,53.4,45.2z"/>
	<path d="M106.2,55c-0.1,0-0.2-0.1-0.2-0.2l-3.5-11.9c0-0.1,0-0.3,0.2-0.3s0.3,0,0.3,0.2l3.5,11.9C106.5,54.8,106.4,54.9,106.2,55
		L106.2,55z"/>
	<path d="M79.1,44.2v0.2c0.5,0,0.9,0.4,0.9,0.9c0,0.5-0.4,0.9-0.9,0.9c-0.5,0-0.9-0.4-0.9-0.9c0-0.5,0.4-0.9,0.9-0.9V44.2V44
		c-0.8,0-1.4,0.6-1.4,1.4c0,0.8,0.6,1.4,1.4,1.4c0.8,0,1.4-0.6,1.4-1.4c0-0.8-0.6-1.4-1.4-1.4V44.2z"/>
	<path class="st10" d="M51.1,60.2c-2.2,0-3.9-1.8-3.9-3.9c0-0.1,0.1-0.2,0.2-0.2c0.1,0,0.2,0.1,0.2,0.2c0,1.9,1.5,3.4,3.4,3.4
		c0.1,0,0.2,0.1,0.2,0.2l-0.1,0.2L51.1,60.2z"/>
	<rect x="71.7" y="44.5" class="st10" width="2.8" height="2"/>
	<rect x="71.7" y="55.1" class="st10" width="2.8" height="2"/>
</g>
</svg>
