<?xml version="1.0" encoding="utf-8"?>
<!-- Generator: Adobe Illustrator 22.1.0, SVG Export Plug-In . SVG Version: 6.00 Build 0)  -->
<svg version="1.1" id="Layer_1" xmlns="http://www.w3.org/2000/svg" xmlns:xlink="http://www.w3.org/1999/xlink" x="0px" y="0px"
	 viewBox="0 0 120 100" style="enable-background:new 0 0 120 100;" xml:space="preserve">
<style type="text/css">
	.st0{fill:#E6F9FF;}
	.st1{fill:#FFFFFF;}
	.st2{fill:#EEFBFF;}
	.st3{fill:#F3FCFF;}
	.st4{fill:#BAEFFF;}
	.st5{fill:#A9EBFF;}
	.st6{fill:#CEF3FF;}
	.st7{fill:#74DFFF;}
	.st8{fill:#A5EAFF;}
	.st9{fill:#89E3FF;}
	.st10{fill:#94E6FF;}
	.st11{fill:#85E3FF;}
	.st12{fill:#7FE1FF;}
	.st13{fill:#78E0FF;}
	.st14{fill:#9DE8FF;}
	.st15{fill:#8EE4FF;}
	.st16{fill:#74DEFF;}
	.st17{fill:#FDBC80;}
	.st18{fill:#F99040;}
	.st19{fill:#F56400;}
	.st20{fill:#FF8831;}
	.st21{fill:#BA3D1E;}
	.st22{fill:#DC5A00;}
	.st23{fill:#9E341A;}
	.st24{fill:#D05500;}
	.st25{fill:#BB4D00;}
	.st26{fill:#A5331C;}
	.st27{fill:#A03C25;}
	.st28{fill:#CA5710;}
</style>
<g>
	<path class="st0" d="M32.8,91c6.2,4.1,13.3,6.8,21,7.7C46.3,97.8,39.1,95.1,32.8,91 M93.1,85.5c-7.8,7.5-18,12.2-29,13.3
		C75.3,97.7,85.4,92.9,93.1,85.5 M96.5,81.9C96.5,81.9,96.5,81.9,96.5,81.9c-0.4,0.5-0.9,1-1.3,1.5C95.6,82.9,96.1,82.4,96.5,81.9
		 M99.1,78.5c-0.5,0.7-1,1.3-1.5,2c0,0,0,0,0,0C98.2,79.8,98.7,79.1,99.1,78.5L99.1,78.5 M11.6,58c0.8,5.3,2.5,10.4,5,15v0
		c-0.4-0.8-0.8-1.7-1.2-2.5h1.2v-4.7c-1.6-1.3-3-2.7-4.3-4.4C12,60.3,11.8,59.1,11.6,58 M83.1,43.4V31.6h17.7v11.8H83.1 M59.5,2
		C41.2,2,25.3,12.1,17,27.1c4.2-3.2,9.4-4.9,14.6-4.9c0,0,0.1,0,0.1,0c9.8,0,18.5,5.9,22.4,14.6V19.3H74v30.2h1.6v0.9h15.7
		c3,0,5.6,1.9,6.6,4.6v-2c0-0.6,0.2-1.2,0.7-1.7c0.4-0.4,1-0.7,1.7-0.7c0,0,0,0,0,0c0.6,0,1.2,0.3,1.7,0.7c0.4,0.4,0.7,1.1,0.7,1.7
		v17.6h1.1l0,0c-0.3,0.8-0.7,1.5-1.1,2.3v0c3.5-6.7,5.4-14.3,5.4-22.3C108,23.7,86.3,2,59.5,2"/>
	<path class="st1" d="M17,27.1C17,27.1,17,27.1,17,27.1C11.8,36.6,10,47.4,11.6,58c-0.4-2.5-0.6-5-0.6-7.5C11,42,13.2,34,17,27.1"/>
	<path class="st2" d="M38.6,61.2c-1.2,0.6-2.5,1-3.9,1.3c-0.6,0.5-1.3,0.9-2,1.1h7.4v-1C39.5,62.2,39,61.7,38.6,61.2 M21.4,58.9v5.7
		c0.7-0.6,1.6-1,2.6-1h4.3c-1.3-0.4-2.4-1.2-3.1-2.3C23.8,60.7,22.5,59.9,21.4,58.9 M31.7,22.2c-5.3,0-10.4,1.7-14.6,4.9
		C13.2,34,11,42,11,50.5c0,2.6,0.2,5.1,0.6,7.5c0.2,1.1,0.4,2.3,0.7,3.4c1.3,1.7,2.7,3.1,4.3,4.4V52c-0.6-1.7-0.9-3.5-0.9-5.3
		c0-8.9,7.2-16.1,16.1-16.1c8.9,0,16.1,7.2,16.1,16.1c0,1.3-0.2,2.5-0.4,3.7h5.1v-0.9h1.6V36.8C50.3,28.1,41.6,22.2,31.7,22.2
		C31.7,22.2,31.7,22.2,31.7,22.2"/>
	<path class="st3" d="M37.2,57.7c-0.1,1.9-1.1,3.6-2.5,4.7c1.4-0.3,2.7-0.7,3.9-1.3C37.8,60.2,37.3,59,37.2,57.7 M30.1,37.6h4.5
		c0,0,0,0,0,0c0.2,0,0.4,0.1,0.4,0.3l3.1,7.9c0.2,0.5,0.1,0.6-0.4,0.6H26.9c-0.5,0-0.6-0.2-0.4-0.6c1.1-2.6,2.1-5.3,3.2-7.9
		C29.7,37.7,29.9,37.6,30.1,37.6C30.1,37.6,30.1,37.6,30.1,37.6 M31.8,30.6c-8.9,0-16.1,7.2-16.1,16.1c0,1.9,0.3,3.7,0.9,5.3v-7.8
		c0-0.9,0.5-1.6,1.2-2.1c0.4-0.2,0.8-0.3,1.2-0.3c0.4,0,0.8,0.1,1.2,0.3c0.7,0.4,1.2,1.2,1.2,2.1v14.7c1.1,1,2.4,1.8,3.8,2.4
		c-0.9-1.1-1.4-2.6-1.4-4.1c0-3.5,2.6-6.4,6-6.7c0.3-0.5,0.7-0.9,1.2-1.1c0.1-0.1,0.2-0.1,0.2-0.3c0-0.3,0-0.6-0.1-0.9
		c-0.1-0.4,0-0.5,0.4-0.5h0.3v-1.2H33v1.2h0.3c0.4,0,0.5,0.2,0.4,0.5c-0.1,0.3-0.1,0.6-0.1,0.9c0,0.1,0.1,0.2,0.2,0.3
		c1,0.5,1.7,1.7,1.5,2.8c0,0.1,0,0.2,0,0.3c1,1.1,1.7,2.5,1.9,4.1c0.1-3.7,2.4-5.9,6.1-6c0.1,0,0.3,0,0.4,0c0.4,0,1,0,1.7,0
		c0.5-0.1,1.1-0.2,1.7-0.2h0.3c0.3-1.2,0.4-2.5,0.4-3.7C47.8,37.8,40.6,30.6,31.8,30.6"/>
	<path class="st4" d="M38.3,45.8l-3.1-7.9c-0.1-0.2-0.3-0.4-0.5-0.3h-4.5c-0.2,0-0.4,0.1-0.5,0.3c-1,2.7-2.1,5.3-3.2,7.9
		c-0.2,0.5-0.1,0.6,0.4,0.6h10.9C38.3,46.5,38.5,46.3,38.3,45.8 M36,58.6c0-0.3-0.3-0.5-0.5-0.5h-0.1c-0.5,0-0.5,0-0.6-0.5
		c-0.1-0.4,0-0.9,0.1-1.3c0.1-0.4,0-0.7-0.5-0.7h-0.2c0.1-0.1,0.1-0.2,0.2-0.3c0.5-1,0.8-2.1,0.9-3.2c0.1-1.2-0.5-2.3-1.5-2.8
		c-0.1-0.1-0.2-0.1-0.2-0.3c0-0.3,0-0.6,0.1-0.9c0.1-0.4,0-0.5-0.4-0.5H33v-1.2h-1.2v1.2h-0.3c-0.4,0-0.5,0.2-0.4,0.5
		c0.1,0.3,0.1,0.6,0.1,0.9c0,0.1-0.1,0.2-0.2,0.3c-1,0.5-1.7,1.7-1.5,2.8c0.1,1.1,0.4,2.2,0.9,3.2l0.2,0.3h-0.2
		c-0.4,0-0.6,0.3-0.5,0.7c0.1,0.4,0.2,0.8,0.1,1.3c-0.1,0.5-0.1,0.5-0.6,0.5h-0.1c-0.3,0-0.5,0.2-0.5,0.5c-0.1,0.3,0,0.5,0.4,0.7
		h6.5C36,59.2,36.1,58.9,36,58.6"/>
	<polyline class="st4" points="100.7,31.6 83.1,31.6 83.1,43.4 100.7,43.4 100.7,31.6 	"/>
	<polygon class="st5" points="95.6,31.9 91.9,29 88.2,31.9 88.1,31.7 91.9,28.7 95.7,31.7 	"/>
	<rect x="83.7" y="32.3" class="st1" width="16.3" height="10.4"/>
	<path class="st6" d="M53.9,98.7c1.9,0.2,3.7,0.3,5.7,0.3c1.5,0,3.1-0.1,4.6-0.2c-1.5,0.1-3,0.2-4.6,0.2
		C57.6,99,55.7,98.9,53.9,98.7 M95.2,83.4c-0.7,0.7-1.4,1.4-2.1,2.1C93.8,84.8,94.5,84.1,95.2,83.4 M22.6,81.9
		c3,3.5,6.4,6.6,10.2,9.1C29,88.4,25.6,85.4,22.6,81.9C22.6,81.9,22.6,81.9,22.6,81.9 M20,78.5L20,78.5c0.5,0.6,0.9,1.3,1.4,1.9
		c0,0,0,0,0,0C20.9,79.8,20.4,79.2,20,78.5"/>
	<path class="st4" d="M96.5,81.9C90,82.5,75.9,83,59.5,83c-16.3,0-30.4-0.4-36.9-1.1c3,3.5,6.4,6.5,10.2,9.1
		c6.2,4.1,13.4,6.8,21,7.7c1.9,0.2,3.7,0.3,5.7,0.3c1.5,0,3.1-0.1,4.6-0.2c11-1,21.2-5.8,29-13.3c0.7-0.7,1.4-1.4,2.1-2.1
		C95.6,82.9,96.1,82.4,96.5,81.9 M97.9,75.7H21.3L20,78.5c0.5,0.6,0.9,1.3,1.4,1.9c5.8-0.7,20.7-1.2,38.1-1.2
		c17.5,0,32.4,0.5,38.2,1.2c0.5-0.6,1-1.3,1.5-2L97.9,75.7 M16.6,70.5h-1.2c0.4,0.9,0.8,1.7,1.2,2.5V70.5 M103.7,70.5h-1.1v2.3
		C103,72,103.4,71.3,103.7,70.5"/>
	<polyline class="st5" points="74,49.5 74,19.3 54.1,19.3 54.1,49.5 52.5,49.5 52.5,50.8 75.6,50.8 75.6,49.5 74,49.5 	"/>
	<polyline class="st1" points="55.4,35.1 72.7,35.1 72.7,49.1 55.4,49.1 55.4,35.1 	"/>
	<polyline class="st1" points="55.4,20.6 72.7,20.6 72.7,33.8 55.4,33.8 55.4,20.6 	"/>
	<rect x="85.2" y="33.8" class="st4" width="13.3" height="7.5"/>
	<path class="st7" d="M88.1,38.4l-1.9,2.9h5.1l-1.6-2.9c-0.2-0.3-0.5-0.4-0.8-0.4C88.6,37.9,88.3,38.1,88.1,38.4z M96.4,38.4
		l-0.3-0.5c-0.2-0.4-0.6-0.6-1-0.6s-0.8,0.2-1,0.6l-2.2,3.5h2.6L96.4,38.4z"/>
	<path class="st8" d="M97.2,37.1l-0.8,1.3l-1.9,2.9h4v-4.8C98,36.4,97.5,36.6,97.2,37.1z"/>
	<polyline class="st9" points="72.6,33.8 55.5,33.8 55.5,34 72.6,34 72.6,33.8 	"/>
	<path class="st6" d="M69,44.7c0,0,0,0.1,0,0.1C69,44.8,69,44.8,69,44.7C69,44.8,69,44.7,69,44.7 M55.5,43v6h17.1v-5.8
		c-0.6,0.3-1.3,0.6-2,0.8c-0.1,0.3-0.3,0.6-0.5,0.8C70.1,45.2,70,45.6,70,46l-0.6-0.3c0,0-0.1,0-0.1,0.1l0-0.1l0,0
		c0-0.1,0-0.2,0.1-0.2l0-0.1h0c0,0.1,0,0.1,0,0.1l-0.2-0.1h-0.1c0,0,0-0.1,0-0.1L69,45.2c0,0,0,0,0,0.1l-0.5,0.2l0,0.3
		c-0.2-0.2-0.4-0.6-0.5-1c-1.3,0.3-2.7,0.4-4.1,0.4c-0.2,0-0.4,0-0.7,0C60.5,45,57.9,44.3,55.5,43"/>
	<path class="st6" d="M55.5,27.9v5.9h17.1v-5.7c-2.7,1.3-5.7,2-8.7,2c-0.2,0-0.4,0-0.7,0C60.5,29.9,57.9,29.2,55.5,27.9"/>
	<path class="st8" d="M68.9,37.7c0.4,1.3,0.5,2.6,0.3,3.9c-0.1,0.3-0.1,0.6-0.1,1c0,0.6,0,1.2,0,2c0,0,0,0,0,0c0.3-1.3,0.6-2.2,1-3
		C70.1,39.7,68.9,37.7,68.9,37.7"/>
	<path class="st10" d="M69.4,45.4C69.4,45.4,69.4,45.4,69.4,45.4L69.4,45.4L69.4,45.4 M69.1,45.3C69.1,45.3,69.1,45.4,69.1,45.3
		l0.1,0.1L69.1,45.3 M69.1,44.5C69.1,44.5,69,44.5,69.1,44.5c0,0.1,0,0.2-0.1,0.2c0,0,0,0,0,0C69,44.7,69.1,44.6,69.1,44.5"/>
	<path class="st8" d="M68.1,39.5c0.3,0.7,0.4,2.4,0.4,3.8c0.1,0.2,0.1,0.3,0.1,0.3l-0.1,1c0.2,0,0.3-0.1,0.5-0.1c0-0.7,0-1.3,0-2
		C68.9,40.3,68.1,39.5,68.1,39.5"/>
	<path class="st10" d="M69,44.5c-0.2,0-0.3,0.1-0.5,0.1l-0.1,0.8l0.5-0.2c0,0,0,0,0-0.1l0,0c0-0.1,0-0.3,0.1-0.4c0,0,0-0.1,0-0.1
		C69,44.7,69,44.6,69,44.5"/>
	<path class="st8" d="M71.3,40.4c0,0.8-0.2,1.5-0.7,2.1c-0.1,0.1-0.1,0.2-0.2,0.3c0.2-0.2,0.5-0.5,0.7-0.6
		C71.3,41.6,71.4,41,71.3,40.4"/>
	<path class="st10" d="M69.4,45.5c0,0.1,0,0.2-0.1,0.2l0,0L69.4,45.5 M70.2,44.8c-0.2,0.4-0.5,0.7-0.8,0.9L70,46
		C70,45.6,70.1,45.2,70.2,44.8"/>
	<path class="st11" d="M69,42.5c-0.1,0.7-0.1,1.3,0,2c0,0,0,0,0,0C69.1,43.8,69.1,43.1,69,42.5"/>
	<path class="st12" d="M69,44.5C69,44.5,69,44.5,69,44.5c0,0.1,0,0.1,0,0.2C69,44.7,69,44.6,69,44.5"/>
	<path class="st8" d="M71.5,39.7c0,0-0.8,0.4-1.5,1.9c0,0.2,0,0.4-0.1,0.6c-0.2,0.7-0.3,1.5-0.4,2.2c0,0,0,0,0.1,0l0.2-0.7
		c0,0,0.1-0.1,0.2-0.3C70.4,41.9,71,40.3,71.5,39.7"/>
	<path class="st10" d="M69.4,45.4h-0.2l0.2,0.1C69.4,45.5,69.4,45.5,69.4,45.4 M69,44.8C69,44.8,69,44.8,69,44.8
		c0,0.2,0,0.3-0.1,0.5l0.1,0.1C69,45.1,69,44.9,69,44.8 M69.6,44.3C69.6,44.4,69.6,44.4,69.6,44.3c-0.1,0.2-0.1,0.3-0.1,0.5
		L69.6,44.3"/>
	<path class="st11" d="M70,41.6c-0.4,0.7-0.7,1.7-1,3c0.2,0,0.3-0.1,0.5-0.1c0.1-0.7,0.2-1.5,0.4-2.2C70,42,70,41.8,70,41.6"/>
	<path class="st12" d="M69.6,44.4c-0.2,0-0.3,0.1-0.5,0.1c0,0.1,0,0.2,0,0.3c0,0.2,0,0.4,0.1,0.5l0.1,0.1h0.2c0,0,0,0,0,0l0.1-0.5
		C69.5,44.7,69.5,44.5,69.6,44.4"/>
	<path class="st12" d="M69,44.8c0,0.1,0,0.3-0.1,0.4l0,0C69,45.1,69,45,69,44.8"/>
	<path class="st8" d="M67.5,41.8c0,0,0.1,1.7,0.5,3c0.2,0,0.3-0.1,0.5-0.1c0-0.4,0-0.9,0-1.4C68.3,42.8,67.8,41.9,67.5,41.8"/>
	<path class="st10" d="M68.5,44.7c-0.2,0-0.3,0.1-0.5,0.1c0.1,0.4,0.3,0.7,0.5,1l0-0.3l0,0C68.5,45.5,68.5,45.1,68.5,44.7"/>
	<path class="st11" d="M68.5,43.3c0,0.5,0,1,0,1.4c0,0,0,0,0.1,0l0.1-1C68.6,43.6,68.6,43.5,68.5,43.3"/>
	<path class="st12" d="M68.5,44.6C68.5,44.6,68.5,44.7,68.5,44.6c-0.1,0.5-0.1,0.8-0.1,0.8l0,0L68.5,44.6"/>
	<path class="st8" d="M71.4,42.1c-0.1,0-0.2,0-0.2,0.1c-0.1,0.4-0.2,0.8-0.4,1.2c-0.1,0.2-0.3,0.5-0.4,0.7c0.1,0,0.1,0,0.2-0.1
		C71.1,43.1,71.4,42.1,71.4,42.1"/>
	<path class="st10" d="M70.6,44c-0.1,0-0.1,0.1-0.2,0.1c-0.1,0.2-0.2,0.5-0.3,0.7C70.3,44.6,70.5,44.3,70.6,44"/>
	<path class="st8" d="M70.5,42.8c-0.2,0.2-0.3,0.4-0.5,0.5c-0.1,0.4-0.2,0.7-0.3,1c0,0,0.1,0,0.1,0C70,43.8,70.2,43.3,70.5,42.8"/>
	<path class="st10" d="M69.3,45.7L69.3,45.7C69.3,45.8,69.4,45.8,69.3,45.7L69.3,45.7 M69.4,45.4L69.4,45.4L69.4,45.4
		C69.4,45.4,69.4,45.4,69.4,45.4 M69.8,44.3C69.8,44.3,69.7,44.3,69.8,44.3c-0.2,0.3-0.2,0.6-0.3,0.8c0,0,0,0,0,0.1
		C69.6,44.8,69.7,44.6,69.8,44.3"/>
	<path class="st12" d="M69.5,45.1c0,0.1-0.1,0.3-0.1,0.3l0,0h0C69.4,45.3,69.5,45.2,69.5,45.1C69.5,45.1,69.5,45.1,69.5,45.1"/>
	<path class="st11" d="M71.2,42.2c-0.2,0.1-0.5,0.3-0.7,0.6c-0.3,0.5-0.5,1-0.7,1.5c0.2-0.1,0.4-0.1,0.6-0.2
		c0.1-0.2,0.2-0.5,0.4-0.7C71,43,71.1,42.6,71.2,42.2"/>
	<path class="st12" d="M70.4,44.1c-0.2,0.1-0.4,0.1-0.6,0.2c-0.1,0.3-0.2,0.5-0.3,0.8c0,0.1,0,0.2,0,0.3h-0.1c0,0,0,0,0,0.1
		l-0.1,0.3l0.1,0c0.3-0.2,0.5-0.5,0.8-0.9C70.2,44.6,70.3,44.3,70.4,44.1"/>
	<path class="st13" d="M69.5,45.1c0,0.1-0.1,0.2-0.1,0.3h0.1C69.5,45.3,69.5,45.2,69.5,45.1"/>
	<path class="st11" d="M70,43.3c-0.1,0.2-0.2,0.3-0.2,0.3l-0.2,0.7c0,0,0.1,0,0.1,0C69.8,44,69.9,43.7,70,43.3"/>
	<path class="st12" d="M69.7,44.3C69.7,44.3,69.6,44.3,69.7,44.3l-0.2,0.5c0,0.1,0,0.1,0,0.2C69.5,44.9,69.6,44.6,69.7,44.3"/>
	<path class="st13" d="M69.5,44.9l-0.1,0.5c0-0.1,0.1-0.2,0.1-0.3C69.5,45,69.5,44.9,69.5,44.9"/>
	<path class="st4" d="M70.4,49.4h-2.6c-0.9-1.3-1.3-2.8-1.2-4.4h5C71.8,46.6,71.3,48.1,70.4,49.4z"/>
	<path class="st7" d="M66.8,47.2c0.3,0.8,0.6,1.5,1,2.1h2.6c0.4-0.7,0.8-1.4,1-2.1L66.8,47.2z"/>
	<path class="st14" d="M97.7,80.4c-0.4,0.5-0.8,1-1.2,1.5c2.4-0.2,3.7-0.5,3.7-0.8C100.2,80.9,99.3,80.6,97.7,80.4 M21.4,80.4
		c-1.7,0.2-2.6,0.4-2.6,0.7c0,0.3,1.4,0.6,3.8,0.8C22.2,81.4,21.8,80.9,21.4,80.4"/>
	<path class="st15" d="M97.7,80.4c-0.4,0.5-0.8,1-1.2,1.5c0,0,0,0,0,0C96.9,81.4,97.3,80.9,97.7,80.4C97.7,80.4,97.7,80.4,97.7,80.4
		"/>
	<path class="st12" d="M21.4,80.4C21.4,80.4,21.4,80.4,21.4,80.4c0.4,0.5,0.8,1,1.2,1.5c0,0,0,0,0,0C22.2,81.4,21.8,80.9,21.4,80.4"
		/>
	<path class="st16" d="M59.5,79.2c-17.4,0-32.3,0.5-38.1,1.2c0.4,0.5,0.8,1,1.2,1.5c6.5,0.6,20.6,1.1,36.9,1.1
		c16.4,0,30.5-0.5,37-1.1c0.4-0.5,0.8-1,1.2-1.5C91.9,79.7,77,79.2,59.5,79.2"/>
	<path class="st17" d="M30.5,50.5c-3.7,0-6.7,3-6.7,6.7c0,3.7,3,6.7,6.7,6.7c3.7,0,6.7-3,6.7-6.7C37.2,53.5,34.2,50.5,30.5,50.5"/>
	<path class="st18" d="M30.5,50.5c-2.8,0-5.4,1.8-6.3,4.5c1.2-2.1,3.4-3.5,5.9-3.5c3.7,0,6.7,3,6.7,6.7c0,0.7-0.1,1.5-0.4,2.2
		c0.5-0.9,0.8-1.9,0.8-2.9c0-0.2,0-0.4,0-0.7c0-0.1,0-0.1,0-0.2c-0.2-3.1-2.5-5.6-5.6-6.1C31.2,50.5,30.8,50.5,30.5,50.5"/>
	<path class="st19" d="M37.3,65.1c-5,0.3-10-0.4-14.8-1.9c-0.6-0.2-0.9-0.8-0.9-1.4L22,59c0.1-0.6,0.6-1.1,1.2-1.1
		c5-0.2,10,0.4,14.8,2c0.6,0.2,0.9,0.8,0.9,1.4L38.5,64C38.4,64.6,37.9,65,37.3,65.1z"/>
	<path d="M100.2,50.5c-0.6,0-1.2,0.2-1.7,0.7c-0.4,0.4-0.7,1.1-0.7,1.7v18v0.2H21.4v-0.2V44.2c0-0.9-0.5-1.6-1.2-2.1
		c-0.7-0.4-1.6-0.4-2.4,0c-0.7,0.4-1.2,1.2-1.2,2.1v36.7h2.3l2.4-5.2h76.6l2.4,5.2h2.4V52.9c0-0.6-0.2-1.2-0.7-1.7
		C101.5,50.8,100.9,50.5,100.2,50.5"/>
	<path class="st20" d="M96.2,53c-1.2-0.7-2.7-0.5-3.6,0.5l-1.5,1.7c-0.9,1-2.3,1.5-3.6,1.2l-26.1-5.2c-0.3,0-0.6-0.1-0.9-0.1
		c-3.4-0.2-14.8-0.6-17.3-0.6c-3.8,0.1-6.1,2.5-6.1,6.3c-0.1,2.6,1.4,5,3.8,6.1h52.1c1.3,0,2.5-0.9,2.7-2.2l1.5-4.6
		C97.7,55,97.2,53.7,96.2,53"/>
	<path class="st21" d="M95.8,63.6H23.9c-2.1,0-3.7,1.7-3.7,3.7v5.8c0,0.8,0.7,1.5,1.5,1.5H98c0.8,0,1.5-0.7,1.5-1.5v-5.8
		C99.5,65.2,97.8,63.6,95.8,63.6"/>
	<path class="st19" d="M47.1,50.4h44.2c3.9,0,7,3.1,7,7v14.1c0,0.6-0.4,1-1,1H41.1c-0.6,0-1-0.4-1-1V57.4
		C40.1,53.5,43.2,50.4,47.1,50.4"/>
	<path class="st22" d="M93.1,53l-2.2-1.5c-0.1-0.1-0.1-0.2-0.1-0.3c0.1-0.1,0.1-0.1,0.2-0.1c0,0,0.1,0,0.1,0l2.3,1.5
		c0.1,0.1,0.1,0.2,0.1,0.3L93.3,53H93.1 M91,50.8c-0.1,0-0.1,0-0.2,0H47.5c-0.1,0-0.1,0-0.2,0c-3.6,0-6.6,2.9-6.7,6.5v1.6
		c0.7-3.1,3.4-5.3,6.6-5.3c0,0,0.1,0,0.1,0h43.4c0.1,0,0.1,0,0.2,0c0,0,0,0,0,0l-0.1-0.1c-0.1,0-0.1-0.1-0.1-0.2
		c0-0.1,0.1-0.2,0.1-0.2l0.3,0l0.9,0.6c0.3,0.1,0.7,0.1,1,0.3l-2.2-1.4c-0.1-0.1-0.2-0.2-0.1-0.3l0.2-0.1l0.2,0l2.3,1.5l0.1,0.2
		l0,0.2L93.3,54h-0.1c2.5,0.9,4.3,3.3,4.4,6.1l0.1-2.8C97.6,53.7,94.6,50.8,91,50.8"/>
	<path class="st23" d="M92,72.5h-0.9l2.1,1.4h0.1l0.2-0.1c0.1-0.1,0-0.3-0.1-0.3L92,72.5 M93.5,72.5h-0.9l0.6,0.4h0.1l0.2-0.1
		L93.5,72.5L93.5,72.5"/>
	<path class="st24" d="M90.9,72c-0.1,0-0.1,0.1-0.1,0.2c0,0.1,0,0.2,0.1,0.2l0.2,0.1H92L91.2,72L90.9,72 M91,70.9
		c-0.1,0-0.2,0-0.2,0.1c-0.1,0.1,0,0.3,0.1,0.3l1.7,1.1h0.9l0-0.1L91.2,71C91.1,71,91.1,70.9,91,70.9 M90.9,70
		c-0.1,0-0.1,0.1-0.1,0.2c0,0.1,0,0.2,0.1,0.2l2.2,1.5h0.1l0.2-0.1c0.1-0.1,0-0.3-0.1-0.3L91.2,70L90.9,70 M91,69l-0.2,0.1
		c-0.1,0.1,0,0.3,0.1,0.3l2.2,1.5h0.1l0.2-0.1l0-0.2l-0.1-0.2L91.2,69L91,69 M91,68c-0.1,0-0.2,0-0.2,0.1c-0.1,0.1,0,0.3,0.1,0.3
		l2.2,1.5h0.1l0.2-0.1c0.1-0.1,0-0.3-0.1-0.3L91.2,68C91.1,68,91.1,68,91,68 M90.9,67c-0.1,0-0.1,0.1-0.1,0.2c0,0.1,0,0.2,0.1,0.2
		l2.2,1.5h0.1l0.2-0.1c0.1-0.1,0-0.3-0.1-0.4L91.2,67L90.9,67 M91,66c-0.1,0-0.2,0-0.2,0.1c-0.1,0.1,0,0.3,0.1,0.3l2.2,1.5h0.1
		l0.2-0.1l0-0.2l-0.1-0.2L91.2,66C91.1,66,91.1,66,91,66 M90.9,65c-0.1,0-0.1,0.1-0.1,0.2c0,0.1,0,0.2,0.1,0.2l2.2,1.5h0.1l0.2-0.1
		c0.1-0.1,0-0.3-0.1-0.4l-2.3-1.5L90.9,65 M91,64.1c-0.1,0-0.2,0-0.2,0.1c-0.1,0.1,0,0.3,0.1,0.3l2.2,1.5h0.1l0.2-0.1l0-0.2
		l-0.1-0.2l-2.3-1.5C91.1,64.1,91.1,64.1,91,64.1 M90.9,63.1c-0.1,0-0.1,0.1-0.1,0.2c0,0.1,0,0.2,0.1,0.2l2.2,1.5h0.1l0.2-0.1
		c0.1-0.1,0-0.3-0.1-0.3l-2.3-1.5L90.9,63.1 M91,62.1l-0.2,0.1c-0.1,0.1,0,0.3,0.1,0.3l2.2,1.5h0.1l0.2-0.1l0-0.2l-0.1-0.2l-2.3-1.5
		L91,62.1 M91,61.1c-0.1,0-0.2,0-0.2,0.1c-0.1,0.1,0,0.3,0.1,0.3l2.2,1.5h0.1l0.2-0.1l0-0.2l-0.1-0.2l-2.3-1.5
		C91.1,61.1,91.1,61.1,91,61.1 M90.9,60.1c-0.1,0-0.1,0.1-0.1,0.2c0,0.1,0,0.2,0.1,0.2l2.2,1.5h0.1l0.2-0.1c0.1-0.1,0-0.3-0.1-0.3
		l-2.3-1.5L90.9,60.1 M91,59.1c-0.1,0-0.2,0-0.2,0.1c-0.1,0.1,0,0.3,0.1,0.3l2.2,1.5h0.1l0.2-0.1l0-0.2l-0.1-0.2l-2.3-1.5
		C91.1,59.1,91.1,59.1,91,59.1 M91,58.1c-0.1,0-0.2,0-0.2,0.1c-0.1,0.1,0,0.3,0.1,0.3l2.2,1.5h0.1l0.2-0.1c0.1-0.1,0-0.3-0.1-0.3
		l-2.3-1.5C91.1,58.1,91.1,58.1,91,58.1 M91,57.1l-0.2,0.1c-0.1,0.1,0,0.3,0.1,0.3l2.2,1.5h0.1l0.2-0.1l0-0.2l-0.1-0.2l-2.3-1.5
		L91,57.1 M91,56.1c-0.1,0-0.2,0-0.2,0.1c-0.1,0.1,0,0.3,0.1,0.3l2.2,1.5h0.1l0.2-0.1l0-0.2l-0.1-0.2l-2.3-1.5
		C91.1,56.1,91.1,56.1,91,56.1 M90.9,55.1c-0.1,0-0.1,0.1-0.1,0.2c0,0.1,0,0.2,0.1,0.2l2.2,1.5h0.1l0.2-0.1c0.1-0.1,0-0.3-0.1-0.3
		l-2.3-1.5L90.9,55.1 M91,54c-0.1,0-0.2,0-0.2,0.1c-0.1,0.1,0,0.3,0.1,0.3l2.2,1.5h0.1l0.2-0.1l0-0.2l-0.1-0.2l-2.3-1.5
		C91.1,54.1,91.1,54,91,54 M93,53.9L93,53.9l0.2,0.1C93.2,54,93.1,54,93,53.9 M91,53.6l2.2,1.4h0.1l0.2-0.1c0.1-0.1,0-0.3-0.1-0.3
		L92,53.7C91.7,53.6,91.3,53.6,91,53.6"/>
	<path class="st25" d="M90.9,53.1c-0.1,0-0.1,0.1-0.1,0.2c0,0.1,0,0.2,0.1,0.2l0.1,0.1c0.4,0,0.7,0,1.1,0.1l-0.9-0.6L90.9,53.1
		 M91,52.1l-0.2,0.1c-0.1,0.1,0,0.3,0.1,0.3l2.2,1.4c0.1,0,0.1,0,0.2,0.1h0.1l0.2-0.1l0-0.2l-0.1-0.2l-2.3-1.5L91,52.1 M91,51.1
		c-0.1,0-0.2,0-0.2,0.1c-0.1,0.1,0,0.3,0.1,0.3l2.2,1.5h0.1l0.2-0.1c0.1-0.1,0-0.3-0.1-0.3l-2.3-1.5C91.1,51.1,91.1,51.1,91,51.1"/>
	<path class="st26" d="M77.8,50.2H92c0.1,0,0.3,0.1,0.4,0.2c0.1,0.1,0.2,0.2,0.2,0.4v21.5c0,0.3-0.1,0.6-0.3,0.8
		c-0.2,0.2-0.5,0.3-0.8,0.3H78.5c-0.3,0-0.6-0.1-0.8-0.3c-0.2-0.2-0.3-0.5-0.3-0.8V50.8c0-0.1,0.1-0.3,0.2-0.4S77.7,50.2,77.8,50.2z
		"/>
	<path class="st27" d="M41.1,72.5L41.1,72.5C41.1,72.5,41.1,72.5,41.1,72.5C41.1,72.5,41.1,72.5,41.1,72.5 M97.3,72.5L97.3,72.5
		C97.3,72.5,97.3,72.5,97.3,72.5C97.3,72.5,97.3,72.5,97.3,72.5 M98.3,71.8c-0.1,0.3-0.3,0.6-0.7,0.7c-0.1,0-0.2,0.1-0.3,0.1h0.1
		C97.8,72.5,98.2,72.2,98.3,71.8 M40.1,71.5v0.1c0,0.5,0.4,0.9,0.9,0.9h0.1c-0.3,0-0.5-0.1-0.7-0.3C40.2,72,40.1,71.8,40.1,71.5
		 M40.1,71.5C40.1,71.5,40.1,71.5,40.1,71.5L40.1,71.5"/>
	<path class="st28" d="M98.3,71.5c0,0.3-0.1,0.5-0.3,0.7c-0.1,0.1-0.2,0.2-0.4,0.2c0.3-0.1,0.6-0.4,0.7-0.7c0,0,0-0.1,0-0.1V71.5
		 M98.3,71.5L98.3,71.5C98.3,71.5,98.3,71.5,98.3,71.5"/>
</g>
</svg>
