<?xml version="1.0" encoding="utf-8"?>
<!-- Generator: Adobe Illustrator 22.1.0, SVG Export Plug-In . SVG Version: 6.00 Build 0)  -->
<svg version="1.1" id="Layer_1" xmlns="http://www.w3.org/2000/svg" xmlns:xlink="http://www.w3.org/1999/xlink" x="0px" y="0px"
	 viewBox="0 0 120 100" style="enable-background:new 0 0 120 100;" xml:space="preserve">
<style type="text/css">
	.st0{fill:#E6F9FF;}
	.st1{fill:#F3FCFF;}
	.st2{fill:#DAF6FF;}
	.st3{fill:#FFFFFF;}
	.st4{fill:#F7FDFF;}
	.st5{fill:#EAFAFF;}
	.st6{fill:#DFF7FF;}
	.st7{fill:#F8FEFF;}
	.st8{fill:#ECFBFF;}
	.st9{fill:#BBEFFF;}
	.st10{fill:#D3F4FF;}
	.st11{fill:#C8F2FF;}
	.st12{fill:#C2F0FF;}
	.st13{fill:#AFECFF;}
	.st14{fill:#F56400;}
	.st15{fill:#FDBC80;}
	.st16{fill:#74DFFF;}
	.st17{fill:#BA3D1E;}
	.st18{fill:#F3BD92;}
	.st19{fill:#EEBC92;}
	.st20{fill:#FA771A;}
	.st21{fill:#A0614F;}
	.st22{fill:#F46C0F;}
	.st23{fill:#D4E5E0;}
	.st24{fill:#F67F2A;}
	.st25{fill:#FAFEFF;}
</style>
<g>
	<path class="st0" d="M86.3,90.9c-6.3,4.2-13.5,6.9-21.2,7.8C72.9,97.8,80.1,95,86.3,90.9 M26.1,85.6c7.7,7.3,17.7,12.1,28.8,13.1
		C44,97.7,33.9,93,26.1,85.6 M15.7,71.3c2.1,4.3,4.7,8.3,7.9,11.8C20.5,79.7,17.8,75.7,15.7,71.3C15.7,71.4,15.7,71.3,15.7,71.3
		 M103.4,71.2C103.3,71.2,103.3,71.2,103.4,71.2c-0.8,1.6-1.6,3.1-2.5,4.6C101.8,74.3,102.6,72.8,103.4,71.2 M59.5,2
		C43.2,2,28.8,10,20,22.3c3.1-0.8,6-1.2,8.7-1.2c2.8,0,5.2,0.4,7,1c3.5,1.2,8.8,6.3,16.1,7.8c1-0.6,2.1-1,3.3-1c0.2,0,0.5,0,0.7,0
		c1.1,0.1,2.2,0.5,3.1,1.1c4.5-0.8,8.5-3.3,12.9-5.6H53.3c-0.1-1.3,0.5-2.6,1.6-3.4c0.5-0.3,1-0.4,1.5-0.4c1.2,0,2.2,0.7,2.2,0.7
		c0.6-3.5,2.9-6.4,6.2-7.8c1.2-0.4,2.2-0.6,3.3-0.6c3.8,0,6.7,2.8,8.1,5.4c0,0,2.8-2.4,6.6-2.4c1.2,0,2.6,0.3,3.9,1
		c2.1,1.1,3.3,2.4,4.1,3.6c2.5,0.2,5,0.5,7.5,0.9C89.4,9.6,75.4,2,59.5,2"/>
	<path class="st1" d="M20,22.3C20,22.3,20,22.3,20,22.3c-9,12.6-11.4,28.5-6.7,43c0,0,0,0,0,0c-1.5-4.7-2.3-9.6-2.3-14.8
		C11,40,14.3,30.3,20,22.3 M98.3,21.4c5.3,7,8.7,15.5,9.5,24.8c0,0,0,0,0,0c0.1,1.4,0.2,2.8,0.2,4.3l0,0
		C108,40,104.6,29.8,98.3,21.4C98.3,21.4,98.3,21.4,98.3,21.4"/>
	<path class="st2" d="M28.7,21.2c-2.6,0-5.5,0.3-8.7,1.2c-5.7,7.9-9,17.7-9,28.2c0,5.2,0.8,10.1,2.3,14.8c0,0,0,0,0-0.1
		c-0.5-1.5-0.9-3.1-1.2-4.7c-0.8-4-1.2-8-1-12.1c0.1-2.8,0.5-5.7,1.1-8.4c0,0,0,0,0,0c0.6-2.6,1.4-5.2,2.4-7.7
		c6.3,0.9,12.6,2.2,18.9,3.7c5.8,1.5,9.4,1.8,12.1,1.8c1,0,1.9,0,2.7-0.1c0.4,0,0.8,0,1.1-0.1c-0.3-2,0.2-4.4,1-6c0,0,0,0,0,0
		c0.2-0.4,0.4-0.8,0.7-1.1c0.1-0.1,0.2-0.2,0.3-0.3l0,0c0.2-0.1,0.4-0.3,0.5-0.4c-7.4-1.5-12.6-6.6-16.1-7.8
		C33.9,21.6,31.5,21.2,28.7,21.2 M90.8,20.5c1.3,2.1,1.1,4,1.1,4H71.8c-4.3,2.3-8.4,4.8-12.9,5.6c0.6,0.4,1.2,0.9,1.7,1.6
		c0.2,0.3,0.4,0.6,0.5,1c1,2.4-0.4,5.4-1.7,7.3c0,0,0.1,0,0.1,0c1.3,0.6,2.5,1.1,3.7,1.6l0,0l0,0c4.5,0.8,9,1.9,13.3,3.5
		c3.1,0.2,6.2,0.4,9.2,0.4c2.1,0,4.2-0.1,6.3-0.2c1.1,0,2.1-0.1,3.2-0.1c4.2,0,8.4,0.3,12.5,1c-0.8-9.3-4.2-17.8-9.5-24.8
		C95.8,21,93.3,20.7,90.8,20.5"/>
	<path class="st3" d="M108,50.5L108,50.5c0,2.3-0.2,4.7-0.5,7c0,0,0,0,0,0c-0.4,2.7-1,5.4-1.9,8c0,0,0,0,0,0.1
		C107.2,60.7,108,55.6,108,50.5"/>
	<path class="st4" d="M107.8,46.2c0.1,1.2,0.2,2.5,0.2,3.8l0,0c0,0.1,0,0.3,0,0.4c0,1.3-0.1,2.6-0.2,3.9c-0.1,1-0.2,2.1-0.3,3.1
		c0,0,0,0,0,0c0.3-2.3,0.5-4.6,0.5-7l0,0l0,0C108,49,107.9,47.6,107.8,46.2C107.8,46.2,107.8,46.2,107.8,46.2"/>
	<path class="st5" d="M52.6,60.5L52.6,60.5c2.1,0.4,4.2,0.7,6.4,0.9h0.4C57,61.2,54.7,60.9,52.6,60.5 M89,57.9
		c-4.8,0-9.6,0.5-14.7,2.3c-1.7,0.6-3.5,1-5.3,1.2h0.4c1.7-0.2,3.4-0.6,5-1.2C79.4,58.4,84.3,57.9,89,57.9c2.5,0,5,0.1,7.6,0.3l0,0
		C94.1,58,91.6,57.9,89,57.9 M30,57.3c-2.5,0-5.1,0.2-7.6,0.8l0.1,0C24.9,57.6,27.4,57.4,30,57.3c2.8,0,5.5,0.3,8.1,0.7l0,0
		C35.5,57.6,32.7,57.3,30,57.3 M107.8,54.4c-0.1,1-0.2,2-0.3,3.1c-1.5,0.3-3,0.5-4.5,0.6c0,0,0,0,0,0c1.5-0.1,3-0.3,4.5-0.6
		C107.6,56.4,107.7,55.4,107.8,54.4 M11.1,48.4c-0.2,4,0.2,8.1,1,12.1c0-0.1-0.1-0.2-0.1-0.4c0.3,0,0.7,0,1,0c0.6,0,1.1,0,1.7-0.1
		c0,0,0,0,0,0c-0.6,0.1-1.2,0.1-1.9,0.1c-0.3,0-0.6,0-0.9,0C11.2,56.3,10.9,52.4,11.1,48.4 M63.2,41.6c4.5,0.8,9,1.9,13.3,3.5
		c0.8,0.3,1.6,0.6,2.5,0.9c6.4,2.3,10.2,2.8,13.1,2.8c1.2,0,2.2-0.1,3.2-0.2c1-0.1,2.1-0.2,3.2-0.2c2.2,0,4.7,0.3,8.4,1.3l1,0.3
		c0-1.3-0.1-2.5-0.2-3.8c-4.1-0.7-8.3-1-12.5-1c-1.1,0-2.1,0-3.2,0.1c-2.1,0.1-4.2,0.2-6.3,0.2c-3.1,0-6.2-0.1-9.2-0.4
		C72.2,43.5,67.8,42.4,63.2,41.6 M59.5,40c-0.3,0.5-0.7,0.9-1,1.2c1.6,0.1,3.2,0.3,4.7,0.5C62.1,41.1,60.8,40.6,59.5,40
		C59.5,40,59.5,40,59.5,40 M14.6,32.3c-1,2.5-1.8,5.1-2.4,7.7c5.7,1.8,11.7,2.8,17.7,2.8c2.1,0,4.3-0.1,6.4-0.3
		c6-0.7,10.8-1.1,15-1.3c-1-0.8-1.6-1.9-1.8-3.1c0-0.1,0-0.2-0.1-0.3c-0.4,0-0.7,0-1.1,0.1c-0.8,0-1.7,0.1-2.7,0.1
		c-2.7,0-6.3-0.3-12.1-1.8C27.2,34.4,20.9,33.2,14.6,32.3"/>
	<path class="st6" d="M12.1,60.5c0.3,1.6,0.7,3.2,1.2,4.7c0,0,0,0,0-0.1C12.8,63.6,12.4,62.1,12.1,60.5"/>
	<path class="st3" d="M107.5,57.5C107.5,57.5,107.5,57.5,107.5,57.5c-0.4,2.7-1,5.4-1.9,8c0,0,0,0,0,0.1
		C106.5,62.9,107.1,60.2,107.5,57.5"/>
	<path class="st7" d="M107.5,57.5C107.5,57.5,107.5,57.5,107.5,57.5c-0.4,2.7-1,5.4-1.8,7.9c0,0,0,0,0,0.1
		C106.5,62.8,107.1,60.2,107.5,57.5"/>
	<path class="st8" d="M52.5,60.6l-0.2,0.9H59C56.8,61.2,54.6,60.9,52.5,60.6 M14.7,60.1c-0.6,0-1.1,0.1-1.7,0.1c-0.3,0-0.7,0-1,0
		c0,0.1,0,0.2,0.1,0.4c0.3,1.6,0.7,3.1,1.2,4.6C13.5,63.4,13.9,61.7,14.7,60.1 M89,57.9c-4.8,0-9.6,0.5-14.7,2.3
		c-1.6,0.6-3.2,1-5,1.2h16c0,0,0.1,0,0.1,0c3.7,0,7.3-1,10.5-2.9l0.6-0.4C94.1,58,91.6,57.9,89,57.9 M107.5,57.5
		c-1.5,0.3-3,0.5-4.5,0.6c1.5,2.1,2.5,4.6,2.7,7.3C106.5,62.8,107.1,60.2,107.5,57.5 M30,57.4c-2.5,0-5.1,0.2-7.5,0.8l0.6,0.3
		c3.2,1.9,6.8,2.9,10.5,2.9c0,0,0.1,0,0.1,0h2.7l0.5-0.9l1.3-2.6C35.5,57.6,32.7,57.4,30,57.4"/>
	<path class="st9" d="M12.1,40c-0.6,2.8-1,5.6-1.1,8.4C11.2,45.6,11.5,42.8,12.1,40C12.2,40,12.2,40,12.1,40"/>
	<path class="st10" d="M108,50c0,0.2,0,0.3,0,0.5c0,1.3-0.1,2.6-0.2,3.9c0.1-1.3,0.2-2.6,0.2-3.9C108,50.3,108,50.1,108,50L108,50"
		/>
	<path class="st11" d="M12.2,40c-0.6,2.8-1,5.6-1.1,8.4c-0.2,3.9,0.2,7.8,0.9,11.7c0.3,0,0.6,0,0.9,0c0.6,0,1.2,0,1.9-0.1
		c0.6-1.1,1.3-2.1,2.1-3.1c0.5-0.5,1.1-0.7,1.7-0.7c0.4,0,0.9,0.1,1.3,0.4l2.6,1.5c2.5-0.6,5-0.8,7.6-0.8c2.8,0,5.5,0.3,8.2,0.7
		l6-11.6c1.2-2.4,3.6-4,6.3-4c0.1,0,0.3,0,0.4,0c0,0,0,0,0.1,0c0,0,0,0,0.1,0c1.8,0,3.5,0.7,4.7,2.1l6.8,9.9l10.9,1.1
		c0.5,0,0.9,0.3,1.2,0.6c0.2,0.2,0.3,0.4,0.4,0.7c0.1,0.3,0.1,0.6,0.1,0.9c0,0.7-0.3,1.3-0.8,1.8c-0.3,0.2-0.6,0.3-1,0.3
		c-0.1,0-0.1,0-0.2,0L62.8,60h-0.6c-0.2,0-0.4,0-0.7,0c-0.6,0-1.2-0.1-1.7-0.2c-1.4-0.5-2.5-1.4-3.4-2.6c-0.4-0.4-0.7-0.9-1.1-1.2
		l-1.5-1.7l0,0l0,0l-0.7,3.7l0-0.1l-0.5,2.5c2.2,0.4,4.5,0.7,6.8,0.9H69c1.9-0.2,3.7-0.6,5.3-1.2c5.1-1.9,9.9-2.3,14.7-2.3
		c2.5,0,5.1,0.1,7.6,0.2l2.5-1.5c0.4-0.2,0.8-0.3,1.3-0.3c0.6,0,1.3,0.3,1.7,0.7c0.3,0.3,0.6,0.7,0.9,1.1c1.5-0.1,3-0.3,4.5-0.6
		c0.1-1,0.3-2,0.3-3.1c0.1-1.3,0.2-2.6,0.2-3.9c0-0.2,0-0.3,0-0.5l-1-0.3c-3.7-1-6.2-1.3-8.4-1.3c-1.2,0-2.2,0.1-3.2,0.2
		c-1,0.1-2.1,0.2-3.2,0.2c-3,0-6.7-0.5-13.1-2.8c-0.9-0.3-1.7-0.6-2.5-0.9c-4.3-1.5-8.8-2.7-13.3-3.5l0,0l0,0
		c-1.6-0.2-3.1-0.4-4.7-0.5c-0.1,0.1-0.2,0.1-0.2,0.2c-0.8,0.6-1.8,0.9-2.8,0.9c-0.1,0-0.2,0-0.2,0c0,0,0,0,0,0
		c-0.9,0-1.7-0.1-2.5-0.4c-0.5-0.2-1-0.4-1.4-0.8c-4.1,0.2-8.9,0.6-15,1.3c-2.1,0.2-4.2,0.3-6.4,0.3C23.9,42.8,17.9,41.8,12.2,40"/>
	<path class="st12" d="M65.1,98.7c-1.9,0.2-3.7,0.3-5.6,0.3c-1.5,0-3.1-0.1-4.6-0.2c1.5,0.1,3,0.2,4.6,0.2
		C61.4,99,63.3,98.9,65.1,98.7 M23.6,83.1c0.8,0.9,1.6,1.7,2.5,2.5C25.2,84.8,24.4,84,23.6,83.1 M100.9,75.8
		c-3.7,6-8.7,11.2-14.6,15.1C92.1,87,97.1,81.9,100.9,75.8"/>
	<path class="st13" d="M57.8,83.7l1.4-3.7c0.7-1.7,2.3-2.8,4.1-2.8c0.4,0,0.8,0,1.1,0.2l1.3,0.3c2.1,0.6,3.5,2.7,3.2,4.9l-0.2,1
		c-0.8-0.3-1.6-0.5-2.4-0.5c-1.2,0-2.4,0.4-3.4,1c-1-0.5-2.1-0.7-3.2-0.7C59,83.5,58.4,83.5,57.8,83.7 M103.3,71.2
		c-0.6,0.6-1.2,1-2,1.4c-0.5,0.3-1.1,0.5-1.8,0.5c-0.4,0-0.8-0.1-1.2-0.2c-0.5-0.2-1-0.3-1.5-0.3c0,0,0,0-0.1,0
		c-2.7,0-2.7,1.9-5.4,1.9c-2.7,0-2.7-1.9-5.4-1.9c-2.7,0-2.7,1.9-5.4,1.9c-2.7,0-2.7-1.9-5.4-1.9s-2.7,1.9-5.4,1.9
		c-2.7,0-2.7-1.9-5.4-1.9c-2.7,0-2.7,1.9-5.4,1.9c-2.7,0-2.7-1.9-5.4-1.9c-2.7,0-2.7,1.9-5.4,1.9c-2.7,0-2.7-1.9-5.4-1.9
		c-2.7,0-2.7,1.9-5.4,1.9c-2.7,0-2.7-1.9-5.4-1.9c-2.7,0-2.7,1.9-5.4,1.9c-2.7,0-2.7-1.9-5.4-1.9c0,0,0,0-0.1,0
		c-0.5,0-0.9,0.1-1.4,0.2c-0.4,0.1-0.8,0.2-1.1,0.2c-0.6,0-1.2-0.2-1.8-0.5c-0.6-0.3-1.1-0.7-1.5-1.1c2.1,4.4,4.8,8.3,7.9,11.8
		c0.8,0.9,1.6,1.7,2.5,2.5C33.9,93,44,97.7,54.9,98.8c1.5,0.1,3,0.2,4.6,0.2c1.9,0,3.8-0.1,5.6-0.3c7.7-0.9,14.9-3.6,21.2-7.8
		c5.9-3.9,10.9-9.1,14.6-15.1C101.8,74.3,102.6,72.8,103.3,71.2"/>
	<path class="st14" d="M105.7,65.7c-0.1-3.2-1.4-6.3-3.6-8.7c-0.8-0.8-2-1-3-0.4L96,58.5c-3.2,1.9-6.9,2.9-10.6,2.9H33.6
		c-3.7,0-7.4-1-10.6-2.9l-3.2-1.9c-1-0.6-2.2-0.4-3,0.4c-2.2,2.4-3.4,5.5-3.6,8.7c0,2.8,1.5,5.4,4,6.8c0.9,0.5,2,0.7,2.9,0.3
		c0.5-0.2,0.9-0.2,1.4-0.2c2.7,0,2.7,1.9,5.4,1.9c2.7,0,2.7-1.9,5.4-1.9c2.7,0,2.7,1.9,5.4,1.9c2.7,0,2.7-1.9,5.4-1.9
		c2.7,0,2.7,1.9,5.4,1.9c2.7,0,2.7-1.9,5.4-1.9c2.7,0,2.7,1.9,5.4,1.9c2.7,0,2.7-1.9,5.4-1.9c2.7,0,2.7,1.9,5.4,1.9
		c2.7,0,2.7-1.9,5.4-1.9s2.7,1.9,5.4,1.9c2.7,0,2.7-1.9,5.4-1.9c2.7,0,2.7,1.9,5.4,1.9c2.7,0,2.7-1.9,5.4-1.9c0.5,0,1.1,0.1,1.6,0.3
		c1,0.4,2.1,0.3,3-0.2C104,71.3,105.7,68.6,105.7,65.7"/>
	<path class="st15" d="M100.4,70.8c-0.5-0.2-1.1-0.3-1.7-0.3c-2.8,0-2.8,2-5.6,2s-2.8-2-5.6-2c-2.8,0-2.8,2-5.6,2
		c-2.8,0-2.8-2-5.6-2s-2.8,2-5.6,2c-2.8,0-2.8-2-5.6-2c-2.8,0-2.8,2-5.6,2c-2.8,0-2.8-2-5.6-2s-2.8,2-5.6,2c-2.8,0-2.8-2-5.6-2
		c-2.8,0-2.8,2-5.6,2c-2.8,0-2.8-2-5.6-2s-2.8,2-5.6,2s-2.8-2-5.6-2c-0.5,0-1,0.1-1.5,0.2c-1,0.4-2.2,0.2-3.1-0.3L14.6,70
		c0.7,1,1.7,1.9,2.8,2.5c0.9,0.5,2,0.6,2.9,0.3c0.5-0.2,0.9-0.2,1.4-0.2c2.7,0,2.7,1.9,5.4,1.9s2.7-1.9,5.4-1.9s2.7,1.9,5.4,1.9
		s2.7-1.9,5.4-1.9s2.7,1.9,5.4,1.9c2.7,0,2.7-1.9,5.4-1.9c2.7,0,2.7,1.9,5.4,1.9s2.7-1.9,5.4-1.9c2.7,0,2.7,1.9,5.4,1.9
		s2.7-1.9,5.4-1.9c2.7,0,2.7,1.9,5.4,1.9c2.7,0,2.7-1.9,5.4-1.9c2.7,0,2.7,1.9,5.4,1.9s2.7-1.9,5.4-1.9c0.5,0,1.1,0.1,1.6,0.3
		c1,0.4,2.1,0.3,3-0.2c1.2-0.7,2.2-1.6,3-2.7c-0.3,0.2-0.6,0.4-0.9,0.6C102.6,71.1,101.4,71.2,100.4,70.8z"/>
	<path class="st16" d="M92.8,74.8c-0.4-0.2-0.9-0.3-1.3-0.3c-2.3,0-2.3,1.8-4.5,1.8s-2.3-1.8-4.5-1.8s-2.3,1.8-4.5,1.8
		s-2.3-1.8-4.5-1.8s-2.3,1.8-4.5,1.8s-2.3-1.8-4.5-1.8s-2.3,1.8-4.5,1.8s-2.3-1.8-4.5-1.8c-2.3,0-2.3,1.8-4.5,1.8s-2.3-1.8-4.5-1.8
		s-2.3,1.8-4.5,1.8s-2.3-1.8-4.5-1.8s-2.3,1.8-4.5,1.8s-2.3-1.8-4.5-1.8c-0.4,0-0.8,0.1-1.2,0.2c-0.8,0.3-1.7,0.2-2.5-0.3L24,74
		c0.6,0.9,1.3,1.7,2.2,2.3c0.7,0.5,1.6,0.6,2.4,0.2c0.4-0.1,0.8-0.2,1.1-0.2c2.1,0,2.1,1.7,4.3,1.7s2.2-1.7,4.3-1.7
		c2.1,0,2.1,1.7,4.3,1.7c2.2,0,2.1-1.7,4.3-1.7s2.2,1.7,4.3,1.7s2.1-1.7,4.3-1.7c2.2,0,2.1,1.7,4.3,1.7s2.2-1.7,4.3-1.7
		c2.1,0,2.1,1.7,4.3,1.7s2.2-1.7,4.3-1.7S74.9,78,77,78c2.2,0,2.1-1.7,4.3-1.7c2.2,0,2.1,1.7,4.3,1.7c2.1,0,2.2-1.7,4.3-1.7
		c0.4,0,0.9,0.1,1.3,0.3c0.8,0.3,1.7,0.3,2.4-0.2c1-0.6,1.8-1.4,2.4-2.4c-0.2,0.2-0.5,0.3-0.7,0.5C94.5,75,93.6,75.1,92.8,74.8z"/>
	<path class="st17" d="M28,61.5c0,3.7,14.1,2.8,31.5,2.8c17.4,0,31.5-1.3,31.5-2.8c0-0.2-0.3-0.4-0.8-0.6c-1.6,0.4-3.2,0.6-4.8,0.6
		H33.6c-1.6,0-3.2-0.2-4.8-0.6C28.3,61.1,28,61.3,28,61.5z"/>
	<path class="st14" d="M60.6,31.6c-1.2-1.5-2.9-2.5-4.8-2.6c-1.6-0.2-3.3,0.3-4.6,1.3c-1.3,1.2-2.5,4.8-1.9,7.6
		c0.3,1.8,1.5,3.3,3.2,3.9c0.8,0.3,1.7,0.4,2.6,0.4c1.1,0.1,2.2-0.3,3.1-0.9C60,39.8,63,34.8,60.6,31.6"/>
	<path class="st17" d="M76.5,44c-0.1-0.4-0.4-0.8-0.9-1c-0.4-0.2-0.9-0.2-1.3-0.1l-13,4.1c-0.3,0.1-0.5,0.1-0.8,0l-9.2-4l6.3,10.5
		l3.2-0.1c0.3,0,0.7-0.1,1-0.3l13.8-6.5c0.4-0.1,0.7-0.4,0.9-0.7C76.8,45.3,76.8,44.6,76.5,44z"/>
	<path class="st18" d="M55.1,29c-1.2,0-2.3,0.3-3.3,1l0,0C52.8,29.3,53.9,29,55.1,29c0.2,0,0.5,0,0.7,0c1.1,0.1,2.2,0.5,3.1,1.1
		c0,0,0,0,0,0c-0.9-0.6-2-1-3.1-1.1C55.6,29,55.3,29,55.1,29"/>
	<path class="st19" d="M51,30.6c-0.3,0.3-0.5,0.7-0.7,1.1c0,0,0,0,0,0C50.5,31.3,50.8,30.9,51,30.6 M58.9,30.1
		C58.9,30.1,58.9,30.1,58.9,30.1c0.6,0.4,1.2,1,1.7,1.6c0.2,0.3,0.4,0.6,0.5,1c-0.1-0.3-0.3-0.7-0.5-1C60.2,31,59.6,30.5,58.9,30.1
		 M51.8,29.9c-0.2,0.1-0.4,0.3-0.5,0.4l0,0l0,0C51.4,30.2,51.6,30.1,51.8,29.9L51.8,29.9"/>
	<path class="st20" d="M55.1,29c-1.2,0-2.3,0.3-3.3,1c-0.2,0.1-0.4,0.3-0.5,0.4l0,0c-0.1,0.1-0.2,0.2-0.3,0.3
		c-0.2,0.3-0.5,0.7-0.7,1.1c1-0.7,2.3-1.1,3.5-1.1c0.2,0,0.5,0,0.7,0c1.9,0.2,3.7,1.1,4.8,2.7c1.6,2.3,0.6,5.6-0.8,7.7
		c1.6-1.5,3.8-5.5,2.6-8.4c-0.1-0.3-0.3-0.7-0.5-1c-0.5-0.6-1.1-1.2-1.7-1.6c-0.9-0.6-2-1-3.1-1.1C55.6,29,55.3,29,55.1,29"/>
	<path class="st21" d="M75,57.3c0-0.5-0.1-1-0.5-1.4c-0.3-0.3-0.8-0.5-1.2-0.6l-10.9-1.1l-6.8-9.9c-1.3-1.4-3.2-2.2-5.1-2.1
		c-2.1,0-4,0.9-5.3,2.5c1.2-1,2.8-1.6,4.4-1.6c1.9-0.1,3.8,0.6,5.2,2.1l6.8,9.9l10.9,1.1c0.5,0,1,0.3,1.3,0.6
		c0.3,0.4,0.5,0.9,0.4,1.4c0,0.4-0.1,0.8-0.2,1.1c0.1-0.1,0.3-0.1,0.4-0.2C74.8,58.7,75.1,58,75,57.3z"/>
	<path class="st14" d="M74.6,56c-0.3-0.3-0.8-0.6-1.2-0.6l-10.9-1.1l-6.8-9.9c-1.3-1.4-3.2-2.2-5.2-2.1c-2.7,0-5.2,1.6-6.3,4
		l-7.8,15.2l-1.4,2.8c4.2,0.3,10,0.3,16.7,0.2l0.6-3l1.5-7.3l1.5,1.8c0.4,0.4,0.8,0.8,1.1,1.2c0.8,1.2,2,2.1,3.4,2.6
		c0.8,0.2,1.6,0.3,2.4,0.2h0.6l10.4-0.4c0.4,0,0.8-0.1,1.1-0.3c0.5-0.5,0.8-1.1,0.8-1.8C75.1,57,75,56.4,74.6,56 M62.8,84.2
		c1-0.6,2.2-1,3.4-1c0.8,0,1.7,0.2,2.4,0.5l0.2-1c0.3-2.2-1-4.3-3.2-4.9l-1.3-0.3C62.2,76.8,60,78,59.2,80l-1.4,3.7
		c0.6-0.1,1.2-0.2,1.9-0.2C60.7,83.5,61.8,83.7,62.8,84.2"/>
	<path d="M90.2,61.3l0.3,0.2c-1.5,1-12.5,2.3-30.9,2.3c-2.9,0-5.7,0-8.4,0c-2.4,0-4.7,0-6.9,0c-5.5,0-15.5,0-15.7-2.4
		c0.1-0.1,0.2-0.1,0.3-0.2c1.6,0.4,3.1,0.5,4.7,0.5h51.8C87,61.8,88.6,61.7,90.2,61.3z M90.2,60.8c-1.6,0.4-3.2,0.6-4.8,0.6H33.6
		c-1.6,0-3.2-0.2-4.8-0.6C28.3,61,28,61.2,28,61.4c0,2.5,6.6,2.9,16.2,2.9c4.5,0,9.7-0.1,15.2-0.1C76.9,64.3,91,63.1,91,61.5
		C91,61.3,90.7,61,90.2,60.8z"/>
	<path d="M75.3,44.7c-0.4-0.1-0.9,0.1-1,0.5L63.2,79.9c-0.2,0.7,0.3,1.4,1,1.6c0.7,0.2,1.5-0.2,1.7-0.9l10-35
		C76,45.2,75.8,44.8,75.3,44.7z"/>
	<path class="st22" d="M74.6,55.9c-0.3-0.3-0.8-0.5-1.2-0.6l-10.9-1.1l-6.8-9.9c-1.3-1.4-3.2-2.2-5.1-2.1c-2.7,0-5.1,1.6-6.3,4
		l-8.9,16.8c0,0,1.4,0.2,6.2,0.2c4.8,0.1,10.4,0,10.4,0l1.8-9.2l1.5,1.7c0.4,0.4,0.8,0.8,1.1,1.2c0.8,1.2,2,2.1,3.3,2.6
		c0.8,0.2,1.6,0.3,2.4,0.2h0.6l10.3-0.4c0.4,0.1,0.8-0.1,1.1-0.3c0.5-0.5,0.8-1.1,0.8-1.8C75.1,56.9,74.9,56.3,74.6,55.9"/>
	<polyline class="st23" points="53.7,54.3 53,58 53.1,58.1 53.8,54.4 53.7,54.3 	"/>
	<polyline class="st24" points="51.9,50.8 53,58 53.7,54.3 51.9,50.8 	"/>
	<path class="st25" d="M68.1,12.9c-1,0-2.1,0.2-3.3,0.6c-3.3,1.3-5.6,4.3-6.2,7.8c0,0-1-0.7-2.2-0.7c-0.5,0-1,0.1-1.5,0.4
		c-1.1,0.8-1.7,2-1.6,3.4h18.5c4.2-2.2,8.7-4.2,14.2-4.2c1.6,0,3.2,0.1,4.8,0.2c-0.8-1.3-2-2.6-4.1-3.6c-1.4-0.7-2.7-1-3.9-1
		c-3.8,0-6.6,2.4-6.6,2.4C74.8,15.7,71.9,12.9,68.1,12.9"/>
	<path class="st4" d="M86,20.3c-5.5,0-10,2-14.2,4.2h20.1c0,0,0.1-1.9-1.1-4C89.2,20.4,87.6,20.3,86,20.3"/>
</g>
</svg>
