<svg xmlns="http://www.w3.org/2000/svg" width="20" height="20" viewBox="0 0 20 20">
  <path fill="#F56400" d="M3,5.84 L3,5.88981121 C4.87824,7.66111664 8.74897736,11.3117322 9.06593736,11.6130099 C9.46073764,11.9879266 9.85048,12.0283745 10,12.0283745 C10.14952,12.0283745 10.5395424,11.9882178 10.9340626,11.6136067 C11.2392624,11.3236345 14.97952,7.76021228 17,5.83490669 L17,5.83490669 C17,5.37380046 16.6261995,5 16.1650933,5 L3.84,5 C3.37608081,5 3,5.37608081 3,5.84 Z M17,6.64474811 C14.92464,8.62199842 11.5885755,11.8002724 11.3010155,12.0731338 C10.7642555,12.5831061 10.21224,12.6382921 10,12.6382921 C9.78776,12.6382921 9.23574448,12.5831201 8.69898448,12.0725368 C8.40134448,11.7902034 4.97232,8.55629419 3,6.69607197 L3,15.16 C3,15.6239192 3.37608081,16 3.84,16 L16.16,16 C16.6239192,16 17,15.6239192 17,15.16 L17,6.64474811 Z"/>
</svg>
