<svg xmlns="http://www.w3.org/2000/svg" width="16" height="16" viewBox="0 0 16 16">
  <path fill="#F56400" d="M2.67801562,13.0982765 C2.48265333,13.097679 2.30403052,12.9878772 2.21528865,12.8138322 C2.12654678,12.6397872 2.14258985,12.4307295 2.25684863,12.2722627 L6.87441814,5.86315415 C7.20245316,5.40972133 7.72778409,5.14079261 8.28743337,5.13979986 L9.00183786,5.13979986 L3.57931296,12.6681597 C3.38398868,12.9388545 3.07078519,13.099567 2.73697899,13.1003823 L2.67801562,13.0982765 Z M4.99759277,13.0982765 C5.33139897,13.0974612 5.64460246,12.9367486 5.83992674,12.6660538 L9.93314335,6.98872291 L9.93314335,12.3586019 C9.93314335,13.0429983 10.4638138,13.14829 10.6291218,13.0956442 C18.4133406,10.7771199 17.5710066,2 9.17346341,2 C2.88280806,2 -2.53971684,8.35540977 1.2597358,12.7397581 L6.73806533,5.13979986 L6.60276544,5.13979986 C6.04311616,5.14079261 5.51778523,5.40972133 5.18975021,5.86315415 L1.07021066,11.5815489 C-0.960340657,8.25011802 2.88280806,2.87181565 8.32797069,2.87181565 C14.4127807,2.87181565 15.8342192,7.93424279 11.3377352,10.6634048 L11.3377352,5.13558819 L10.5512059,5.13558819 C9.99155662,5.13658094 9.4662257,5.40550966 9.13819067,5.85894248 L4.51904179,12.2722627 C4.40478301,12.4307295 4.38873994,12.6397872 4.4774818,12.8138322 C4.56622367,12.9878772 4.74484649,13.097679 4.94020877,13.0982765 L4.99759277,13.0982765 Z"/>
</svg>
