<svg xmlns="http://www.w3.org/2000/svg" width="20" height="20" viewBox="0 0 20 20">
  <g fill="none" fill-rule="evenodd">
    <path fill="#F56400" d="M10.0000198,0 C7.28416306,0 6.94361912,0.0115115681 5.87701279,0.0601777148 C4.81262938,0.108724776 4.0856937,0.277786048 3.44962002,0.525006897 C2.79203161,0.780524015 2.23435568,1.12245728 1.67838663,1.67838663 C1.12245728,2.23435568 0.780524015,2.79203161 0.525006897,3.44962002 C0.277786048,4.0856937 0.108724776,4.81262938 0.0601777148,5.87701279 C0.0115115681,6.94361912 0,7.28416306 0,10.0000198 C0,12.7158369 0.0115115681,13.0563809 0.0601777148,14.1229872 C0.108724776,15.1873706 0.277786048,15.9143063 0.525006897,16.55038 C0.780524015,17.2079684 1.12245728,17.7656443 1.67838663,18.3216134 C2.23435568,18.8775427 2.79203161,19.219476 3.44962002,19.4750328 C4.0856937,19.722214 4.81262938,19.8912752 5.87701279,19.9398223 C6.94361912,19.9884884 7.28416306,20 10.0000198,20 C12.7158369,20 13.0563809,19.9884884 14.1229872,19.9398223 C15.1873706,19.8912752 15.9143063,19.722214 16.55038,19.4750328 C17.2079684,19.219476 17.7656443,18.8775427 18.3216134,18.3216134 C18.8775427,17.7656443 19.219476,17.2079684 19.4750328,16.55038 C19.722214,15.9143063 19.8912752,15.1873706 19.9398223,14.1229872 C19.9884884,13.0563809 20,12.7158369 20,10.0000198 C20,7.28416306 19.9884884,6.94361912 19.9398223,5.87701279 C19.8912752,4.81262938 19.722214,4.0856937 19.4750328,3.44962002 C19.219476,2.79203161 18.8775427,2.23435568 18.3216134,1.67838663 C17.7656443,1.12245728 17.2079684,0.780524015 16.55038,0.525006897 C15.9143063,0.277786048 15.1873706,0.108724776 14.1229872,0.0601777148 C13.0563809,0.0115115681 12.7158369,0 10.0000198,0 Z M10.0000198,1.80179858 C12.6701082,1.80179858 12.9863985,1.81200021 14.0408581,1.86011063 C15.0158483,1.9045691 15.5453407,2.06747764 15.8977138,2.2044256 C16.364488,2.38583204 16.697609,2.60252738 17.0475209,2.95247906 C17.3974726,3.30239103 17.614168,3.635512 17.7955744,4.10228624 C17.9325224,4.45465931 18.0954309,4.98415175 18.1398894,5.95914187 C18.1879998,7.01360151 18.1982014,7.32989177 18.1982014,10.0000198 C18.1982014,12.6701082 18.1879998,12.9863985 18.1398894,14.0408581 C18.0954309,15.0158483 17.9325224,15.5453407 17.7955744,15.8977138 C17.614168,16.364488 17.3974726,16.697609 17.0475209,17.0475209 C16.697609,17.3974726 16.364488,17.614168 15.8977138,17.7955744 C15.5453407,17.9325224 15.0158483,18.0954309 14.0408581,18.1398894 C12.9865573,18.1879998 12.6703067,18.1982014 10.0000198,18.1982014 C7.3296933,18.1982014 7.01348243,18.1879998 5.95914187,18.1398894 C4.98415175,18.0954309 4.45465931,17.9325224 4.10228624,17.7955744 C3.635512,17.614168 3.30239103,17.3974726 2.95247906,17.0475209 C2.60256708,16.697609 2.38583204,16.364488 2.2044256,15.8977138 C2.06747764,15.5453407 1.9045691,15.0158483 1.86011063,14.0408581 C1.81200021,12.9863985 1.80179858,12.6701082 1.80179858,10.0000198 C1.80179858,7.32989177 1.81200021,7.01360151 1.86011063,5.95914187 C1.9045691,4.98415175 2.06747764,4.45465931 2.2044256,4.10228624 C2.38583204,3.635512 2.60252738,3.30239103 2.95247906,2.95247906 C3.30239103,2.60252738 3.635512,2.38583204 4.10228624,2.2044256 C4.45465931,2.06747764 4.98415175,1.9045691 5.95914187,1.86011063 C7.01360151,1.81200021 7.32989177,1.80179858 10.0000198,1.80179858 Z"/>
    <path fill="#F56400" d="M10.0000193 13.2456161C8.20748737 13.2456161 6.75438393 11.7925126 6.75438393 10.0000193 6.75438393 8.20748737 8.20748737 6.75438393 10.0000193 6.75438393 11.7925126 6.75438393 13.2456161 8.20748737 13.2456161 10.0000193 13.2456161 11.7925126 11.7925126 13.2456161 10.0000193 13.2456161zM10.0000193 5C7.23855849 5 5 7.23855849 5 10.0000193 5 12.7614415 7.23855849 15 10.0000193 15 12.7614415 15 15 12.7614415 15 10.0000193 15 7.23855849 12.7614415 5 10.0000193 5zM16 4.00001654C16 4.55230645 15.5522734 5 14.9999835 5 14.4477266 5 14 4.55230645 14 4.00001654 14 3.44772663 14.4477266 3 14.9999835 3 15.5522734 3 16 3.44772663 16 4.00001654"/>
  </g>
</svg>
