<svg xmlns="http://www.w3.org/2000/svg" width="34" height="34" viewBox="0 0 34 34">
  <g fill="none" fill-rule="evenodd">
    <circle cx="28" cy="22" r="2" fill="#FFF" opacity=".503"/>
    <circle cx="11" cy="22" r="2" fill="#FFF" opacity=".503"/>
    <path fill="#FFF" d="M6.08692,13.2839412 L6.08692,11.5255882 C6.08692,10.6838235 6.78532,10 7.64302,10 L19.29802,10 C19.94152,10 20.50942,10.3794118 20.74522,10.9661765 L21.80092,13.5947059 C21.95212,13.9688235 22.29862,14.2291176 22.70632,14.2741176 L28.34752,14.9005882 C29.36092,15.0135294 30.12412,15.8208824 30.16192,16.8223529 L30.19792,18.0664706 C30.20152,18.2129412 30.10972,18.3435294 29.96932,18.3929412 C29.82892,18.4423529 29.67322,18.3982353 29.58142,18.2817647 L29.45542,18.1211765 C29.29072,17.9129412 29.04232,17.7876471 28.77322,17.7779412 L26.95432,17.7170588 C26.60242,17.7055882 26.25232,17.8423529 26.00482,18.0938235 L23.88172,20.2485294 C23.63872,20.4955882 23.29942,20.6367647 22.94932,20.6367647 L14.83492,20.6367647 C14.33182,20.6367647 13.87012,20.3473529 13.65862,19.9 L13.20682,18.9435294 C13.00162,18.5085294 12.55252,18.2279412 12.06382,18.2279412 L9.80752,18.2279412 C9.45652,18.2279412 9.11992,18.3717647 8.88232,18.6241176 L7.98862,19.5717647 L6.88972,19.5717647 C6.44692,19.5717647 6.08692,19.2188235 6.08692,18.7855882 L6.08692,18.6857059 L5.0053,18.6857059 C4.45,18.6857059 4,18.2445294 4,17.7001176 L4,14.2704118 C4,13.726 4.45,13.2839412 5.0053,13.2839412 L6.08692,13.2839412 Z M15.01618,11.7134412 C14.83618,11.7134412 14.69128,11.8563824 14.69128,12.0319706 L14.69128,14.0657941 C14.69128,14.2413824 14.83618,14.3834412 15.01618,14.3834412 L20.20198,14.3834412 C20.33158,14.3834412 20.42248,14.2581471 20.37928,14.1381471 L19.55488,11.8369706 C19.52788,11.7628529 19.45678,11.7134412 19.37758,11.7134412 L15.01618,11.7134412 Z M12.14617,14.3837941 C12.25057,14.3837941 12.33427,14.3017353 12.33427,14.1993824 L12.33427,11.8982059 C12.33427,11.7958529 12.25057,11.7137941 12.14617,11.7137941 L8.21047,11.7137941 C8.10697,11.7137941 8.02237,11.7958529 8.02237,11.8982059 L8.02237,14.1993824 C8.02237,14.3017353 8.10697,14.3837941 8.21047,14.3837941 L12.14617,14.3837941 Z M7.15882,14.3837941 C7.26322,14.3837941 7.34692,14.3017353 7.34692,14.1993824 L7.34692,11.8982059 C7.34692,11.7958529 7.26322,11.7137941 7.15882,11.7137941 L6.87262,11.7137941 C6.76822,11.7137941 6.68452,11.7958529 6.68452,11.8982059 L6.68452,14.1993824 C6.68452,14.3017353 6.76822,14.3837941 6.87262,14.3837941 L7.15882,14.3837941 Z" opacity=".854"/>
    <path fill="#FFF" d="M10.9475,23.0541176 C10.2913886,23.0541176 9.7598,22.5329524 9.7598,21.8897059 C9.7598,21.2464594 10.2913886,20.7252941 10.9475,20.7252941 C11.6028832,20.7252941 12.1352,21.2464594 12.1352,21.8897059 C12.1352,22.5329524 11.6028832,23.0541176 10.9475,23.0541176 M10.9475,19 C9.3194,19 8,20.2935294 8,21.8897059 C8,23.4858824 9.3194,24.7802941 10.9475,24.7802941 C12.5756,24.7802941 13.895,23.4858824 13.895,21.8897059 C13.895,20.2935294 12.5756,19 10.9475,19" transform="matrix(-1 0 0 1 21.895 0)"/>
    <path fill="#FFF" d="M27.9475,23.0541176 C27.2913886,23.0541176 26.7598,22.5329524 26.7598,21.8897059 C26.7598,21.2464594 27.2913886,20.7252941 27.9475,20.7252941 C28.6028832,20.7252941 29.1352,21.2464594 29.1352,21.8897059 C29.1352,22.5329524 28.6028832,23.0541176 27.9475,23.0541176 M27.9475,19 C26.3194,19 25,20.2935294 25,21.8897059 C25,23.4858824 26.3194,24.7802941 27.9475,24.7802941 C29.5756,24.7802941 30.895,23.4858824 30.895,21.8897059 C30.895,20.2935294 29.5756,19 27.9475,19" transform="matrix(-1 0 0 1 55.895 0)"/>
  </g>
</svg>
