<svg xmlns="http://www.w3.org/2000/svg" width="34" height="34" viewBox="0 0 34 34">
  <path fill="#FFF" d="M22.1011623,24.6450926 C22.0954805,24.6450926 22.0897986,24.6450926 22.0841168,24.6450926 C19.3511623,24.5575925 16.1494579,21.9673148 13.9434917,19.8089817 C11.7346852,17.6506482 9.08553719,14.5187036 9.00030992,11.8589817 C8.9690601,10.9256483 11.3113896,9.26592603 11.3355372,9.24925936 C11.9434917,8.8353703 12.6182077,8.9825927 12.8951965,9.35759252 C13.0826965,9.61175927 14.8582645,12.242315 15.0514463,12.5409259 C15.2517306,12.8506482 15.2219008,13.3117593 14.9719008,13.7742592 C14.8341168,14.0312039 14.3767306,14.8173148 14.1622419,15.1839815 C14.3937761,15.5062037 15.0059917,16.2964814 16.2701965,17.5325927 C17.5358216,18.7687036 18.3426397,19.3687036 18.6736056,19.5950926 C19.0486056,19.3853703 19.8525826,18.9381483 20.115367,18.8034261 C20.5812761,18.5617593 21.0500259,18.5312039 21.3696281,18.7228704 C21.6963328,18.9187036 24.3795714,20.6631481 24.6267306,20.8312039 C24.8341168,20.9742592 24.9676397,21.2187036 24.9946281,21.5034261 C25.0201965,21.7909259 24.9292874,22.0950926 24.740367,22.3603705 C24.7247419,22.3825927 23.0471852,24.6450926 22.1011623,24.6450926 Z"/>
</svg>
