<svg xmlns="http://www.w3.org/2000/svg" width="34" height="34" viewBox="0 0 34 34">
  <g fill="none" fill-rule="evenodd" transform="translate(0 11)">
    <path fill="#0AC5FF" d="M32.0162506,1.03088571 C31.8057949,1.02402857 31.5979215,0.9966 31.3926304,0.955457143 C31.3422759,1.03302857 31.2910608,1.08445714 31.2351114,1.15988571 C31.1322506,1.2786 31.0237949,1.37288571 30.9144785,1.46374286 C30.6945544,1.64074286 30.4664532,1.78217143 30.2362,1.91245714 C29.7739722,2.16617143 29.2996937,2.36074286 28.8219722,2.53474286 C28.6222759,2.60717143 28.4014911,2.50431429 28.3283266,2.30545714 C28.2577443,2.11217143 28.3580228,1.89702857 28.5469595,1.81902857 C28.9893899,1.63645714 29.4223519,1.43417143 29.815719,1.19545714 C30.0093899,1.07374286 30.1957443,0.9456 30.3541241,0.805457143 C30.4036177,0.760885714 30.4440734,0.715028571 30.4871114,0.669171429 C29.9521494,0.508028571 28.9915418,0.433457143 27.2911114,0.784885714 C24.6515924,1.3296 8.25713671,5.10831429 0.494377215,6.84874286 C-0.17744557,6.9996 -0.15936962,7.95831429 0.517617722,8.08517143 L7.74627595,9.43602857 C9.56118734,9.77545714 11.4260228,9.75145714 13.2318962,9.36574286 L20.2815165,7.85931429 L27.6625291,6.08674286 C27.6625291,6.08674286 34.2580987,4.56102857 33.8944278,2.09974286 C33.7691873,1.2516 32.7767316,1.05488571 32.0162506,1.03088571 Z"/>
    <path fill="#68D8FA" d="M23.7548532,4.9725 L15.5160937,7.21178571 L10.4737646,11.3162143 C10.2099418,11.5309286 10.3579924,12.0413571 10.6713089,11.9976429 L15.6826506,11.2883571 C16.4332329,11.1820714 17.1562709,10.8726429 17.8005494,10.3810714 L24.0242709,5.63592857 C24.2992835,5.39378571 24.1013089,4.90692857 23.7548532,4.9725"/>
    <path fill="#50D2FB" d="M9.5,5.5 L2.8686962,0.181414286 C2.72236709,0.0854142857 2.54634177,0.0455571429 2.37289873,0.0691285714 L0.777050633,0.2847 C0.28856962,0.350271429 0.00667088608,0.871414286 0.220139241,1.31412857 L2.69008861,6.43855714 L2.69008861,7 L9.5,5.5 Z"/>
  </g>
</svg>
