<svg xmlns="http://www.w3.org/2000/svg" width="34" height="34" viewBox="0 0 34 34">
  <g fill="none" fill-rule="evenodd">
    <path fill="#F56400" d="M32.0162506,12.0308857 C31.8057949,12.0240286 31.5979215,11.9966 31.3926304,11.9554571 C31.3422759,12.0330286 31.2910608,12.0844571 31.2351114,12.1598857 C31.1322506,12.2786 31.0237949,12.3728857 30.9144785,12.4637429 C30.6945544,12.6407429 30.4664532,12.7821714 30.2362,12.9124571 C29.7739722,13.1661714 29.2996937,13.3607429 28.8219722,13.5347429 C28.6222759,13.6071714 28.4014911,13.5043143 28.3283266,13.3054571 C28.2577443,13.1121714 28.3580228,12.8970286 28.5469595,12.8190286 C28.9893899,12.6364571 29.4223519,12.4341714 29.815719,12.1954571 C30.0093899,12.0737429 30.1957443,11.9456 30.3541241,11.8054571 C30.4036177,11.7608857 30.4440734,11.7150286 30.4871114,11.6691714 C29.9521494,11.5080286 28.9915418,11.4334571 27.2911114,11.7848857 C24.6515924,12.3296 8.25713671,16.1083143 0.494377215,17.8487429 C-0.17744557,17.9996 -0.15936962,18.9583143 0.517617722,19.0851714 L7.74627595,20.4360286 C9.56118734,20.7754571 11.4260228,20.7514571 13.2318962,20.3657429 L20.2815165,18.8593143 L27.6625291,17.0867429 C27.6625291,17.0867429 34.2580987,15.5610286 33.8944278,13.0997429 C33.7691873,12.2516 32.7767316,12.0548857 32.0162506,12.0308857 Z"/>
    <path fill="#F8924C" d="M23.7548532 15.9725L15.5160937 18.2117857 10.4737646 22.3162143C10.2099418 22.5309286 10.3579924 23.0413571 10.6713089 22.9976429L15.6826506 22.2883571C16.4332329 22.1820714 17.1562709 21.8726429 17.8005494 21.3810714L24.0242709 16.6359286C24.2992835 16.3937857 24.1013089 15.9069286 23.7548532 15.9725M9.5 16.5L2.8686962 11.1814143C2.72236709 11.0854143 2.54634177 11.0455571 2.37289873 11.0691286L.777050633 11.2847C.28856962 11.3502714.00667088608 11.8714143.220139241 12.3141286L2.69008861 17.4385571 2.69008861 18 9.5 16.5z"/>
  </g>
</svg>
