<?xml version="1.0" encoding="utf-8"?>
<!-- Generator: Adobe Illustrator 22.1.0, SVG Export Plug-In . SVG Version: 6.00 Build 0)  -->
<svg version="1.1" id="Layer_1" xmlns="http://www.w3.org/2000/svg" xmlns:xlink="http://www.w3.org/1999/xlink" x="0px" y="0px"
	 viewBox="0 0 34 34" style="enable-background:new 0 0 34 34;" xml:space="preserve">
<style type="text/css">
	.st0{fill:#84E2FF;}
	.st1{fill:#2ECDFF;}
	.st2{fill:#0AC5FF;}
</style>
<g>
	<g>
		<path class="st0" d="M28,20c-1.1,0-2,0.9-2,2s0.9,2,2,2c1.1,0,2-0.9,2-2S29.2,20,28,20"/>
		<path class="st0" d="M11,20c-1.1,0-2,0.9-2,2s0.9,2,2,2s2-0.9,2-2S12.2,20,11,20"/>
		<path class="st1" d="M6.9,14.4c-0.1,0-0.2-0.1-0.2-0.2v-2.3c0-0.1,0.1-0.2,0.2-0.2h0.3c0.1,0,0.2,0.1,0.2,0.2v2.3
			c0,0.1-0.1,0.2-0.2,0.2H6.9 M8.3,14.4c-0.1,0-0.2-0.1-0.2-0.2v-2.3c0-0.1,0.1-0.2,0.2-0.2h3.9c0.1,0,0.2,0.1,0.2,0.2v2.3
			c0,0.1-0.1,0.2-0.2,0.2H8.3 M15.1,14.4c-0.2,0-0.3-0.1-0.3-0.3v-2c0-0.2,0.1-0.3,0.3-0.3h4.4l0.2,0.1l0.8,2.3c0,0.1,0,0.2-0.2,0.2
			H15.1 M19.3,10H7.7c-0.9,0-1.6,0.7-1.6,1.5v1.8H5.1c-0.6,0-1,0.4-1,1v3.4c0,0.5,0.5,1,1,1h1.1v0.1c0,0.4,0.4,0.8,0.8,0.8H8
			l0.9-0.9c0.2-0.3,0.6-0.4,0.9-0.4h2.3c0.5,0,0.9,0.3,1.1,0.7l0.5,1c0.2,0.4,0.7,0.7,1.2,0.7H23c0.3,0,0.7-0.1,0.9-0.4l2.1-2.2
			c0.2-0.2,0.6-0.4,0.9-0.4c0,0,0,0,0,0l1.8,0.1c0.3,0,0.5,0.1,0.7,0.3l0.1,0.2c0.1,0.1,0.2,0.1,0.3,0.1c0,0,0.1,0,0.1,0
			c0.1,0,0.2-0.2,0.2-0.3l0-1.2c0-1-0.8-1.8-1.8-1.9l-5.6-0.6c-0.4,0-0.8-0.3-0.9-0.7L20.8,11C20.6,10.4,20,10,19.3,10"/>
	</g>
	<path class="st2" d="M10.9,23.1c0.7,0,1.2-0.5,1.2-1.2c0-0.6-0.5-1.2-1.2-1.2c-0.7,0-1.2,0.5-1.2,1.2C9.8,22.5,10.3,23.1,10.9,23.1
		 M10.9,19c1.6,0,2.9,1.3,2.9,2.9s-1.3,2.9-2.9,2.9S8,23.5,8,21.9S9.3,19,10.9,19"/>
	<path class="st2" d="M27.9,23.1c0.7,0,1.2-0.5,1.2-1.2c0-0.6-0.5-1.2-1.2-1.2c-0.7,0-1.2,0.5-1.2,1.2
		C26.8,22.5,27.3,23.1,27.9,23.1 M27.9,19c1.6,0,2.9,1.3,2.9,2.9s-1.3,2.9-2.9,2.9S25,23.5,25,21.9S26.3,19,27.9,19"/>
</g>
</svg>
