<?xml version="1.0" encoding="utf-8"?>
<!-- Generator: Adobe Illustrator 22.1.0, SVG Export Plug-In . SVG Version: 6.00 Build 0)  -->
<svg version="1.1" id="Layer_1" xmlns="http://www.w3.org/2000/svg" xmlns:xlink="http://www.w3.org/1999/xlink" x="0px" y="0px"
	 viewBox="0 0 34 34" style="enable-background:new 0 0 34 34;" xml:space="preserve">
<style type="text/css">
	.st0{fill:#F56400;}
	.st1{fill:#F8934E;}
	.st2{fill:#F9A469;}
</style>
<g>
	<polygon class="st0" points="8,16.4 6.9,16.4 6.9,15.4 6.9,10.1 5,10.1 5,16.4 5,23 6,23 6.9,21 27.7,21 28.7,23 29.6,23 
		29.6,16.4 	"/>
	<g>
		<path class="st1" d="M9.5,12c-1.1,0-2,0.9-2,2c0,1.1,0.9,2,2,2c1.1,0,2-0.9,2-2C11.5,12.9,10.6,12,9.5,12"/>
		<path class="st2" d="M25.7,12.1H12.8c-0.3,0-0.6,0.2-0.6,0.5v3.3h17.5v-0.8C29.6,13.4,27.9,12.1,25.7,12.1"/>
	</g>
</g>
</svg>
