<svg xmlns="http://www.w3.org/2000/svg" width="34" height="34" viewBox="0 0 34 34">
  <g fill="none" fill-rule="evenodd">
    <path fill="#FFF" d="M8.8276677,15.9607611 C16.5695036,14.1977142 25.4128409,12.1725021 27.2911114,11.7848857 C28.9915418,11.4334571 29.9521494,11.5080286 30.4871114,11.6691714 C30.4440734,11.7150286 30.4036177,11.7608857 30.3541241,11.8054571 C30.1957443,11.9456 30.0093899,12.0737429 29.815719,12.1954571 C29.4223519,12.4341714 28.9893899,12.6364571 28.5469595,12.8190286 C28.3580228,12.8970286 28.2577443,13.1121714 28.3283266,13.3054571 C28.4014911,13.5043143 28.6222759,13.6071714 28.8219722,13.5347429 C29.2996937,13.3607429 29.7739722,13.1661714 30.2362,12.9124571 C30.4664532,12.7821714 30.6945544,12.6407429 30.9144785,12.4637429 C31.0237949,12.3728857 31.1322506,12.2786 31.2351114,12.1598857 C31.2910608,12.0844571 31.3422759,12.0330286 31.3926304,11.9554571 C31.5979215,11.9966 31.8057949,12.0240286 32.0162506,12.0308857 C32.7767316,12.0548857 33.7691873,12.2516 33.8944278,13.0997429 C34.2580987,15.5610286 27.6625291,17.0867429 27.6625291,17.0867429 L21.4881533,18.569537 L24.0242709,16.6359286 C24.2992835,16.3937857 24.1013089,15.9069286 23.7548532,15.9725 L15.5160937,18.2117857 L12.7555312,20.4588686 C11.099347,20.7528716 9.4020354,20.7456922 7.74627595,20.4360286 L0.517617722,19.0851714 C-0.15936962,18.9583143 -0.17744557,17.9996 0.494377215,17.8487429 C1.15599306,17.7004071 1.88031008,17.537265 2.65346843,17.3625809 L2.69008861,17.4385571 L2.69008861,18 L9.5,16.5 L8.8276677,15.9607611 Z"/>
    <path fill="#FFF" fill-opacity=".8" d="M23.7548532,15.9725 C24.1013089,15.9069286 24.2992835,16.3937857 24.0242709,16.6359286 L17.8005494,21.3810714 C17.1562709,21.8726429 16.4332329,22.1820714 15.6826506,22.2883571 L10.6713089,22.9976429 C10.3579924,23.0413571 10.2099418,22.5309286 10.4737646,22.3162143 L15.5160937,18.2117857 L23.7548532,15.9725 Z M9.5,16.5 L2.69008861,18 L2.69008861,17.4385571 L0.220139241,12.3141286 C0.00667088608,11.8714143 0.28856962,11.3502714 0.777050633,11.2847 L2.37289873,11.0691286 C2.54634177,11.0455571 2.72236709,11.0854143 2.8686962,11.1814143 L9.5,16.5 Z"/>
  </g>
</svg>
