<?xml version="1.0" encoding="utf-8"?>
<!-- Generator: Adobe Illustrator 22.1.0, SVG Export Plug-In . SVG Version: 6.00 Build 0)  -->
<svg version="1.1" id="Layer_1" xmlns="http://www.w3.org/2000/svg" xmlns:xlink="http://www.w3.org/1999/xlink" x="0px" y="0px"
	 viewBox="0 0 34 34" style="enable-background:new 0 0 34 34;" xml:space="preserve">
<style type="text/css">
	.st0{fill:#F8924B;}
	.st1{fill:#F56400;}
</style>
<g>
	<g>
		<path class="st0" d="M14.1,12.1c-0.8,0-1.5,0.5-1.9,1.2l-2.6,5.2l4.7-0.2l0.8-2.6l0.5,0.5c0.1,0.1,0.2,0.2,0.3,0.4
			c0.3,0.3,0.6,0.7,1,0.8c0.2,0.1,0.3,0.1,0.5,0.1c0.1,0,0.2,0,0.2,0l0.2,0v0l3.1-0.1c0,0,0,0,0.1,0c0.1,0,0.2,0,0.3-0.1
			c0.1-0.1,0.2-0.3,0.2-0.5c0-0.2-0.1-0.3-0.1-0.4C21.2,16,21,16,20.9,16l-3.2-0.3l-0.2-0.4l0,0l4.1-2c0.1,0,0.2-0.1,0.3-0.2
			c0.1-0.1,0.1-0.3,0-0.6c-0.1-0.2-0.2-0.3-0.3-0.3c-0.1,0-0.1,0-0.2,0c-0.1,0-0.2,0-0.2,0l-3.9,1.2l-0.2,0l-1.3-0.6l-0.1-0.2
			C15.7,12.7,15.2,12.1,14.1,12.1 M15.5,8c-0.5,0-0.9,0.1-1.2,0.4c-0.4,0.4-0.7,1.5-0.6,2.3c0.1,0.6,0.5,1,1,1.2
			c0.1,0.1,0.4,0.1,0.8,0.1c0.3,0,0.7-0.1,0.9-0.3c0.5-0.4,1.4-2,0.7-2.9c-0.3-0.5-0.9-0.8-1.4-0.8C15.6,8,15.6,8,15.5,8"/>
	</g>
	<path class="st1" d="M21.5,13l-3.2,10.5"/>
	<path class="st1" d="M18.3,23.8C18.3,23.8,18.3,23.8,18.3,23.8c-0.2-0.1-0.3-0.2-0.3-0.4l3.2-10.5c0-0.1,0.2-0.2,0.3-0.2
		c0.1,0,0.2,0.2,0.2,0.3l-3.2,10.5C18.5,23.7,18.4,23.8,18.3,23.8z"/>
	<path class="st1" d="M29.5,16.5c-0.2-0.2-0.6-0.3-0.9-0.1c-0.2,0.1-0.6,0.4-0.9,0.6c-0.9,0.6-2,0.9-3.2,0.9H9.1
		c-1.1,0-2.2-0.3-3.2-0.9c-0.4-0.2-0.7-0.4-0.9-0.6c-0.3-0.2-0.7-0.1-0.9,0.1C3.6,16.9,3,18,3,19.1c0,2.1,2.3,2.8,4.5,2.8l9.2-0.1
		l9.5,0.1c2.2,0,4.5-0.7,4.5-2.8C30.6,18,30,16.9,29.5,16.5"/>
	<path class="st1" d="M21.5,25.2c-0.6,0-1.2-0.2-1.8-0.7c-1-0.7-2.1-0.7-3.6,0c-0.1,0-0.2,0-0.3-0.1c0-0.1,0-0.2,0.1-0.3
		c1.6-0.8,2.9-0.8,4,0c0.9,0.7,1.7,0.8,2.4,0.4c0.1-0.1,0.2,0,0.3,0.1s0,0.2-0.1,0.3C22.2,25,21.9,25.2,21.5,25.2z"/>
</g>
</svg>
