<svg xmlns="http://www.w3.org/2000/svg" width="20" height="20" viewBox="0 0 20 20">
  <path fill="#F56400" d="M15.1022727,18 C15.0965909,18 15.0909091,18 15.0852273,18 C12.3522727,17.9124999 9.15056836,15.3222222 6.94460218,13.1638891 C4.73579564,11.0055556 2.08664764,7.87361102 2.00142036,5.21388907 C1.97017055,4.28055573 4.3125,2.62083342 4.33664764,2.60416676 C4.94460218,2.19027769 5.61931818,2.33750009 5.89630691,2.71249991 C6.08380691,2.96666667 7.85937491,5.5972224 8.05255673,5.89583324 C8.25284109,6.20555556 8.22301127,6.66666667 7.97301127,7.12916658 C7.83522727,7.38611129 7.37784109,8.17222222 7.16335236,8.53888889 C7.39488655,8.86111111 8.00710218,9.6513888 9.27130691,10.8875001 C10.536932,12.123611 11.3437502,12.723611 11.674716,12.95 C12.049716,12.7402777 12.8536931,12.2930556 13.1164775,12.1583335 C13.5823865,11.9166667 14.0511364,11.8861113 14.3707385,12.0777778 C14.6974433,12.273611 17.3806818,14.0180555 17.6278411,14.1861113 C17.8352273,14.3291666 17.9687502,14.573611 17.9957385,14.8583335 C18.0213069,15.1458332 17.9303978,15.45 17.7414775,15.7152779 C17.7258524,15.7375001 16.0482956,18 15.1022727,18 Z"/>
</svg>
